<svg xmlns="http://www.w3.org/2000/svg" width="548.563" height="365" viewBox="0 0 548.563 365">
  <defs>
    <style>
      .cls-1, .cls-2 {
        fill: #0874d9;
      }

      .cls-1, .cls-4, .cls-6 {
        opacity: 0.1;
      }

      .cls-3 {
        fill: #3f3d56;
      }

      .cls-5 {
        fill: #f8c198;
      }

      .cls-7 {
        fill: #f86d70;
      }

      .cls-8 {
        fill: #e02200;
      }
    </style>
  </defs>
  <g id="undraw_finish_line_katerina_limpitsouni_xy20" transform="translate(-0.013 0.004)">
    <path id="Path_365" data-name="Path 365" class="cls-1" d="M397.128,174.148c-32.272-1.147-63.009-11.564-92.339-22.938s-58.421-24.03-89.921-30.068c-20.26-3.884-43.432-4.433-59.753,6.428-15.712,10.472-20.788,28.5-23.516,45.242-2.054,12.6-3.261,25.85,2.364,37.643,3.909,8.188,10.841,15.069,15.638,22.913,16.69,27.286,4.892,60.934-13.189,87.577-8.477,12.5-18.325,24.434-24.872,37.727s-9.574,28.547-3.845,42.121c5.675,13.463,19.2,23.556,33.858,30.662,29.764,14.431,64.824,18.565,99.036,20.9,75.709,5.181,151.817,2.937,227.726.693,28.094-.833,56.307-1.675,83.942-6.019,15.348-2.413,31.19-6.243,42.335-15.483,14.141-11.733,17.647-31.6,8.168-46.314-15.9-24.678-59.837-30.806-70.962-57.294-6.113-14.575.164-30.816,9.055-44.335,19.068-29,51.026-54.447,52.707-87.6,1.157-22.768-14.206-45.571-37.962-56.347-24.9-11.294-59.428-9.873-77.789,8.821C458.87,167.706,425.626,175.11,397.128,174.148Z" transform="translate(-77.371 -101.353)"/>
    <ellipse id="Ellipse_186" data-name="Ellipse 186" class="cls-2" cx="36.506" cy="7.021" rx="36.506" ry="7.021" transform="translate(48.899 350.954)"/>
    <ellipse id="Ellipse_187" data-name="Ellipse 187" class="cls-3" cx="4.248" cy="5.565" rx="4.248" ry="5.565" transform="translate(80.543 349.428)"/>
    <ellipse id="Ellipse_188" data-name="Ellipse 188" class="cls-3" cx="4.248" cy="5.565" rx="4.248" ry="5.565" transform="translate(80.543 342.627)"/>
    <ellipse id="Ellipse_189" data-name="Ellipse 189" class="cls-3" cx="4.248" cy="5.565" rx="4.248" ry="5.565" transform="translate(80.543 335.825)"/>
    <ellipse id="Ellipse_190" data-name="Ellipse 190" class="cls-3" cx="4.248" cy="5.565" rx="4.248" ry="5.565" transform="translate(80.543 329.029)"/>
    <ellipse id="Ellipse_191" data-name="Ellipse 191" class="cls-3" cx="4.248" cy="5.565" rx="4.248" ry="5.565" transform="translate(80.543 322.227)"/>
    <ellipse id="Ellipse_192" data-name="Ellipse 192" class="cls-3" cx="4.248" cy="5.565" rx="4.248" ry="5.565" transform="translate(80.543 315.426)"/>
    <ellipse id="Ellipse_193" data-name="Ellipse 193" class="cls-3" cx="4.248" cy="5.565" rx="4.248" ry="5.565" transform="translate(80.543 308.624)"/>
    <path id="Path_366" data-name="Path 366" class="cls-2" d="M215.336,587.676a20.148,20.148,0,0,0,1.586-2.329l-11.17-1.835,12.077.09a20.38,20.38,0,0,0,.389-16.131l-16.2,8.407,14.959-10.97a20.36,20.36,0,1,0-33.629,22.783,20.548,20.548,0,0,0-2.324,3.715l14.5,7.53-15.458-5.186a20.35,20.35,0,0,0,3.281,19.118,20.36,20.36,0,1,0,32,0,20.36,20.36,0,0,0,0-25.177Z" transform="translate(-114.633 -320.025)"/>
    <path id="Path_367" data-name="Path 367" class="cls-4" d="M179,645.7a20.275,20.275,0,0,0,4.358,12.586,20.36,20.36,0,1,0,32,0C218.074,654.83,179,643.421,179,645.7Z" transform="translate(-114.638 -365.469)"/>
    <path id="Path_368" data-name="Path 368" class="cls-3" d="M575.831,616.363c.309,3.989,1.845,8.118,5.076,10.472s8.372,2.309,10.841-.853a12.13,12.13,0,0,0,1.8-3.914c2.079-6.572,3.555-13.763,1.277-20.27-5.141-.334-11.1-2.753-14.959,1.5A17.721,17.721,0,0,0,575.831,616.363Z" transform="translate(-313.562 -343.113)"/>
    <path id="Path_369" data-name="Path 369" class="cls-5" d="M597.21,532.689c-.683,5.8-1.845,11.574-1.725,17.413.045,2.254.284,4.488.289,6.752a33.279,33.279,0,0,1-4.488,16.74,5.614,5.614,0,0,1-1.227,1.586,3.939,3.939,0,0,1-4.288.145,8.437,8.437,0,0,1-3.047-3.306c-3.715-6.363-3.82-14.1-5.291-21.312-1.127-5.52-3.1-10.87-3.815-16.455-.464-3.6-.394-7.26-1.132-10.811-.224-1.072-.853-2.683-1.267-4.263a6.41,6.41,0,0,1-.2-3.75c.793-1.95,3.391-1.192,5.081-1.072a116.976,116.976,0,0,0,17.881-.045,1.537,1.537,0,0,1,2.069,1.072,24.2,24.2,0,0,1,1.082,3.989A44.322,44.322,0,0,1,597.21,532.689Z" transform="translate(-311.076 -299.644)"/>
    <g id="Group_122" data-name="Group 122" class="cls-6" transform="translate(259.747 214.466)">
      <path id="Path_370" data-name="Path 370" d="M609.614,514.486a4.389,4.389,0,0,0-.923,0c-2.852.229-5.709.344-8.562.359Q604.872,514.855,609.614,514.486Z" transform="translate(-585.522 -514.287)"/>
      <path id="Path_371" data-name="Path 371" d="M586.788,575.324a8.437,8.437,0,0,1-3.047-3.306c-3.715-6.363-3.82-14.1-5.291-21.312-1.127-5.52-3.1-10.871-3.815-16.455-.464-3.6-.394-7.26-1.132-10.811-.224-1.072-.853-2.683-1.266-4.263a6.409,6.409,0,0,1-.2-3.75,2.124,2.124,0,0,1,1.994-1.3c-1.261-.085-2.493.065-2.992,1.3a6.41,6.41,0,0,0,.2,3.75c.414,1.581,1.042,3.191,1.267,4.263.738,3.55.668,7.215,1.132,10.811.713,5.59,2.688,10.94,3.815,16.455,1.471,7.215,1.576,14.959,5.291,21.312a8.437,8.437,0,0,0,3.047,3.306,4.428,4.428,0,0,0,2.613.529,4.6,4.6,0,0,1-1.616-.529Z" transform="translate(-570.833 -514.111)"/>
    </g>
    <path id="Path_372" data-name="Path 372" class="cls-5" d="M642.267,553.4c-2.992,5.984-2.493,14.461-2.493,14.461.5,19.946-7.48,61.832-7.48,61.832h-6.981s-1-46.374,0-50.363-.5-17.951-1.995-37.4a99.827,99.827,0,0,1,3.54-33.314c.558-1.995.947-3.087.947-3.087s11.469-16.954,17.951-8.976c1.5,1.855,2.289,5.6,2.563,10.327C649.209,522.478,644.561,548.807,642.267,553.4Z" transform="translate(-337.28 -289.773)"/>
    <path id="Path_373" data-name="Path 373" class="cls-4" d="M656.082,506.884c-.274-4.727-1.057-8.477-2.563-10.327a5.137,5.137,0,0,0-4.9-2.079,5.316,5.316,0,0,1,3.4,2.079c1.5,1.855,2.289,5.6,2.563,10.327.888,15.6-3.76,41.926-6.054,46.519-2.992,5.984-2.493,14.461-2.493,14.461.5,19.946-7.48,61.832-7.48,61.832h1.5s7.978-41.886,7.48-61.832c0,0-.5-8.477,2.493-14.461C652.323,548.81,656.97,522.482,656.082,506.884Z" transform="translate(-345.041 -289.776)"/>
    <path id="Path_374" data-name="Path 374" class="cls-3" d="M618.546,756.493a6.484,6.484,0,0,0-1.426,1.556c-.893,1.685.374,3.7,1.73,5.041s2.992,2.777,2.992,4.687a4.674,4.674,0,0,1-2.463,3.67c-.7.439-1.576,1-1.431,1.825a1.717,1.717,0,0,0,.264.583,7.718,7.718,0,0,0,5.1,3.092,23.013,23.013,0,0,0,6.113.05,1.232,1.232,0,0,0,.838-.289,1.137,1.137,0,0,0,.224-.688,8.955,8.955,0,0,1,.5-3.126c.648-1.3,2.139-1.965,2.992-3.131,1.2-1.6,1.032-3.815.578-5.754-1-4.224-3.216-9.04-6.547-11.967C624.151,748.68,621.124,754.065,618.546,756.493Z" transform="translate(-334.143 -418.394)"/>
    <path id="Path_375" data-name="Path 375" class="cls-3" d="M496.742,233.074c2.782-4.159,2.059-9.973-.783-14.112s-7.41-6.742-12.122-8.422a34.122,34.122,0,0,0-19.886-1.336c-5.2,1.351-9.863,4.179-14.76,6.363a63.472,63.472,0,0,1-27.565,5.485c-10.526-.294-22.06-2.992-30.891,2.762-16.166,10.516-8.976,39.139-24.269,50.862-4.124,3.161-9.315,4.543-13.9,6.981s-8.936,6.682-8.826,11.878a13.819,13.819,0,0,0,2.493,6.981,32.306,32.306,0,0,0,27.191,14.61,34.625,34.625,0,0,0,27.4-14.6c1.551-2.2,2.917-4.647,5.166-6.113,4.488-2.942,10.4-.883,15.757-.444,11.923.972,23.85-7.978,26.224-19.721,1-5.011.823-11,4.857-14.147,3.256-2.538,7.839-1.995,11.967-2.428,7.549-.783,13.508-5.485,17.607-11.628,1.88-2.817,2.1-6.183,4.662-8.4C489.826,235.2,494.1,237,496.742,233.074Z" transform="translate(-197.23 -146.316)"/>
    <g id="Group_123" data-name="Group 123" class="cls-6" transform="translate(173.929 61.951)">
      <path id="Path_376" data-name="Path 376" d="M464.478,233.931a63.213,63.213,0,0,0,13.05-1c-1.187.035-2.384.035-3.575,0-8.263-.229-17.143-1.935-24.852.12C454.186,233.1,459.447,233.791,464.478,233.931Z" transform="translate(-423.983 -220.184)"/>
      <path id="Path_377" data-name="Path 377" d="M423.577,381.435c-2.249,1.466-3.615,3.914-5.166,6.113a35.03,35.03,0,0,1-19.682,13.568c.583.025,1.167.04,1.755.035a34.61,34.61,0,0,0,27.4-14.6c1.551-2.2,2.917-4.647,5.166-6.113l.389-.239C429.92,379.715,426.465,379.545,423.577,381.435Z" transform="translate(-398.73 -294.298)"/>
      <path id="Path_378" data-name="Path 378" d="M610.188,218.932c-2.837-4.119-7.41-6.742-12.122-8.422a34.122,34.122,0,0,0-19.886-1.336c-.15.035-.294.08-.439.12a38.172,38.172,0,0,1,10.851,2.214c4.712,1.68,9.285,4.3,12.122,8.422s3.565,9.973.783,14.112c-2.643,3.944-6.916,2.144-9.714,4.573-2.563,2.219-2.782,5.585-4.662,8.4-3.525,5.271-8.432,9.474-14.541,11.07,2.1-.249,4.313-.219,6.408-.439,7.549-.783,13.508-5.485,17.607-11.628,1.88-2.817,2.1-6.183,4.662-8.4,2.8-2.428,7.071-.628,9.714-4.573C613.758,228.885,613.035,223.051,610.188,218.932Z" transform="translate(-485.891 -208.252)"/>
      <path id="Path_379" data-name="Path 379" d="M532.127,309.25c-4.1.429-8.686-.11-11.967,2.428-4.034,3.146-3.84,9.135-4.857,14.147-1.75,8.761-8.861,15.987-17.3,18.674l.593.055c11.923.972,23.85-7.978,26.224-19.721,1-5.011.823-11,4.857-14.147a9.006,9.006,0,0,1,3.1-1.5C532.546,309.195,532.342,309.23,532.127,309.25Z" transform="translate(-448.5 -258.858)"/>
    </g>
    <path id="Path_380" data-name="Path 380" class="cls-5" d="M624.537,185.067S612.569,209,608.58,217.977s-40.39,22.439-45.377,22.938a6.422,6.422,0,0,0-3.56,1.715,19.613,19.613,0,0,0-4.418,6.762s1.995,13.463-.5,35.9c-.05.434-.095.868-.135,1.287-2.174,21.352,2.379,26.388,2.379,26.388s-48.369,18.45-46.873-5.485a108.462,108.462,0,0,0-.065-17.642,74.081,74.081,0,0,0-2.862-13.892c-1.182-4.134-2.593-8.666-4.054-14.84a65.108,65.108,0,0,0-2.773-9.05c-.035-.09-.07-.18-.1-.264-2.493-6.188-4.986-8.188-6.413-8.836a21.563,21.563,0,0,1-3.83-2.154,201.421,201.421,0,0,1-23.3-19.587c-11.967-11.967-23.935-40.39-23.935-40.39s-3.491-16.455,4.488-29.919,4.488,26.428,4.488,26.428,14.461,19.447,17.951,28.423a15,15,0,0,0,6.981,8.208,82.772,82.772,0,0,1,11.04,6.9,64.471,64.471,0,0,0,7.425,4.847c5.575,2.992,12.252,6.368,17.816,7.255a16.8,16.8,0,0,0,2.628.224,2.723,2.723,0,0,0,2.194-1c1.5-1.76,1.461-5.55,1.117-8.666a44.037,44.037,0,0,0-.818-4.8s16.206-10.222,15.707,2.244a13.935,13.935,0,0,0,.379,4.1,7.106,7.106,0,0,0,4.832,5.286,11.968,11.968,0,0,0,5.984.194,5.85,5.85,0,0,0,1.765-.6c1.5-1,16.455-5.485,20.943-5.984S594.613,212.5,594.613,212.5l24.434-33.908s-.5-19.946,9.474-27.924S624.537,185.067,624.537,185.067Z" transform="translate(-246.498 -116.161)"/>
    <g id="Group_124" data-name="Group 124" class="cls-6" transform="translate(195.5 35.641)">
      <path id="Path_381" data-name="Path 381" d="M667.2,398.237a99.414,99.414,0,0,0-.573,12.067c.05-2.633.224-5.64.573-9.075.04-.419.085-.853.135-1.286a195.577,195.577,0,0,0,1.247-23.132,200.319,200.319,0,0,1-1.247,20.14C667.309,397.384,667.244,397.818,667.2,398.237Z" transform="translate(-554.61 -266.45)"/>
      <path id="Path_382" data-name="Path 382" d="M595.1,289.07c-.334.194-.5.314-.5.314a42.707,42.707,0,0,1,.957,6.482A30.588,30.588,0,0,0,595.1,289.07Z" transform="translate(-518.502 -222.461)"/>
      <path id="Path_383" data-name="Path 383" d="M461.789,185.873c.244-3.491.608-9.748.539-15.313-.085,7.44-.748,15.029-.748,15.029Z" transform="translate(-451.811 -163.045)"/>
      <path id="Path_384" data-name="Path 384" d="M578.561,466.53a3.274,3.274,0,0,1-.035.583c-1.5,23.935,46.873,5.485,46.873,5.485a8.116,8.116,0,0,1-1.262-2.533C616.852,472.658,580.241,484.716,578.561,466.53Z" transform="translate(-510.426 -311.432)"/>
      <path id="Path_385" data-name="Path 385" d="M738.372,185.763S726.4,209.7,722.415,218.673s-40.39,22.439-45.377,22.938a6.424,6.424,0,0,0-3.56,1.715,19.613,19.613,0,0,0-4.418,6.762s.12.813.264,2.359a18.542,18.542,0,0,1,4.154-6.128,6.424,6.424,0,0,1,3.56-1.715c4.986-.5,41.388-13.962,45.377-22.938s15.957-32.911,15.957-32.911,8.432-25.605,7.5-33.265C745.108,165.3,738.372,185.763,738.372,185.763Z" transform="translate(-555.833 -155.49)"/>
      <path id="Path_386" data-name="Path 386" d="M510.025,309.4a74.085,74.085,0,0,0-2.862-13.892c-1.182-4.134-2.593-8.666-4.054-14.84a65.1,65.1,0,0,0-2.773-9.05c-.035-.09-.07-.18-.1-.264-2.493-6.188-4.986-8.188-6.413-8.836a21.558,21.558,0,0,1-3.83-2.154,201.415,201.415,0,0,1-23.3-19.587c-11.967-11.967-23.935-40.39-23.935-40.39a45.086,45.086,0,0,1-.738-7.27,48.07,48.07,0,0,0,.738,10.262s11.967,28.423,23.935,40.39a201.414,201.414,0,0,0,23.3,19.587,21.554,21.554,0,0,0,3.859,2.154c1.421.648,3.909,2.648,6.413,8.836.03.085.065.174.1.264a65.089,65.089,0,0,1,2.758,9.05c1.461,6.173,2.872,10.706,4.054,14.84A74.088,74.088,0,0,1,510.04,312.4c.209,2.084.334,4.353.369,6.906A86.835,86.835,0,0,0,510.025,309.4Z" transform="translate(-441.99 -174.356)"/>
    </g>
    <path id="Path_387" data-name="Path 387" class="cls-2" d="M617.874,347.9a29.7,29.7,0,0,0-1.995,3.929,23.739,23.739,0,0,0-.9,6.592,52.93,52.93,0,0,1-1.416,9.235,10.213,10.213,0,0,1-.5,1.636,4.316,4.316,0,0,1-.583,1,4.253,4.253,0,0,1-.927.843,10.885,10.885,0,0,1-1.69.922c-6.941,3.241-14.511,6.1-22.085,4.986a32.137,32.137,0,0,1-9.19-3.092c-2.742-1.331-5.844-2.912-8.686-1.805h0a4.372,4.372,0,0,1-1.391.434,1.319,1.319,0,0,1-.279-.025c-.937-.18-.937-3.341-1.152-4.273-.818-3.58-.942-6.482-1.431-9.594a31.481,31.481,0,0,0-1.2-5.071,59.882,59.882,0,0,1-2.6-18.789c0-.314-2.244,0-2.992-.03-.189,0-.294-.03-.249-.095a1,1,0,0,1,.15-.17,2.278,2.278,0,0,1,.893-.444l.588-.174c3.082-.873,6.482-1.237,8.786-3.406,2.393-2.239,2.992-5.814,2.887-9.085a54.1,54.1,0,0,1-.459-5.724,16.8,16.8,0,0,0,2.628.224,2.723,2.723,0,0,0,2.194-1,39.388,39.388,0,0,1,2.154,4.986,34.466,34.466,0,0,0,2.738,6.163,10.437,10.437,0,0,0,9.335,4.782,8.669,8.669,0,0,0,7.719-6.732c.573-3.166-.758-7.724-.728-11.015a11.968,11.968,0,0,0,5.984.194,5.41,5.41,0,0,1,.214.623c1.122,3.85,2.618,8.268,6.383,9.634,2.433.878,5.311.219,7.559,1.5a4.852,4.852,0,0,1,.5.329,5.521,5.521,0,0,1,1.321,1.4,11.266,11.266,0,0,1,1.6,5.026A27.883,27.883,0,0,1,617.874,347.9Z" transform="translate(-304.953 -198.872)"/>
    <path id="Path_388" data-name="Path 388" class="cls-4" d="M610.646,292.077a16.994,16.994,0,0,1-15.268-1.541,44.036,44.036,0,0,0-.818-4.8s16.206-10.222,15.707,2.244A13.933,13.933,0,0,0,610.646,292.077Z" transform="translate(-322.982 -183.169)"/>
    <circle id="Ellipse_194" data-name="Ellipse 194" class="cls-5" cx="16.954" cy="16.954" r="16.954" transform="translate(264.592 75.139)"/>
    <path id="Path_389" data-name="Path 389" class="cls-7" d="M555.06,344.272s32.911-20.943,135.133,1.5,161.561,4.488,161.561,4.488v23.436s-114.688,12.466-158.569,0-106.346-19.657-128.221-.354Z" transform="translate(-303.178 -210.043)"/>
    <path id="Path_390" data-name="Path 390" class="cls-4" d="M555.06,344.272s32.911-20.943,135.133,1.5,161.561,4.488,161.561,4.488v23.436s-114.688,12.466-158.569,0-106.346-19.657-128.221-.354Z" transform="translate(-303.178 -210.043)"/>
    <path id="Path_391" data-name="Path 391" class="cls-8" d="M557.06,346.272s31.913-20.943,134.135,1.5,160.564,4.488,160.564,4.488l.5,21.442s-113.691,12.466-157.572,0-105.847-21.152-127.723-1.85Z" transform="translate(-304.181 -211.046)"/>
    <path id="Path_392" data-name="Path 392" class="cls-7" d="M299.329,384.649s-32.911,20.943-135.133-1.5-97.236-4.488-97.236-4.488V355.229s50.363-12.466,94.244,0,106.346,19.657,128.222.354Z" transform="translate(-58.447 -217.211)"/>
    <path id="Path_393" data-name="Path 393" class="cls-4" d="M299.329,384.649s-32.911,20.943-135.133-1.5-97.236-4.488-97.236-4.488V355.229s50.363-12.466,94.244,0,106.346,19.657,128.222.354Z" transform="translate(-58.447 -217.211)"/>
    <path id="Path_394" data-name="Path 394" class="cls-8" d="M298.872,384.655s-31.913,20.943-134.135-1.5S68.5,378.671,68.5,378.671L68,357.229s49.366-12.466,93.247,0,105.847,21.152,127.723,1.85Z" transform="translate(-58.988 -218.214)"/>
    <path id="Path_395" data-name="Path 395" class="cls-3" d="M569.3,246.833c-.5-3.112-1.267-7.031,1.336-8.811a5.535,5.535,0,0,1,3.087-.8c5.39-.055,10.541,3.7,15.827,2.6a8.921,8.921,0,0,0,3.491-15.892c-2.079-1.546-4.707-2.1-7.25-2.628-6.687-1.376-13.668-2.748-20.27-1s-12.636,7.669-12.107,14.461c.249,3.251,1.9,6.2,3.635,8.976,1.316,2.1,6.443,11.967,8.931,12.117C569.494,256.068,569.648,248.868,569.3,246.833Z" transform="translate(-302.338 -151.933)"/>
    <path id="Path_396" data-name="Path 396" class="cls-2" d="M619.644,461.7s-34.406,8.477-45.875,0c0,0-4.986,19.447-3.49,29.42,0,0,24.433,1.5,26.927,2.992,0,0,.5-3.989,2.992-1.995,0,0,8.477-9.973,23.935-1C624.132,491.12,627.124,467.684,619.644,461.7Z" transform="translate(-310.668 -273.369)"/>
    <path id="Path_397" data-name="Path 397" class="cls-4" d="M603.164,227.708a9.891,9.891,0,0,0-1.112-.7,8.9,8.9,0,0,1-4.882,14.6c-5.286,1.1-10.437-2.658-15.827-2.6a5.535,5.535,0,0,0-3.087.8c-2.6,1.78-1.84,5.7-1.341,8.811.329,2.034.194,9.235-3.306,9.04h-.06c.962,1.172,1.86,1.965,2.553,1.995,3.49.194,3.635-6.981,3.306-9.04-.5-3.112-1.262-7.031,1.341-8.811a5.535,5.535,0,0,1,3.087-.8c5.39-.055,10.541,3.7,15.827,2.6a8.921,8.921,0,0,0,3.49-15.892Z" transform="translate(-312.448 -155.706)"/>
    <g id="Group_125" data-name="Group 125" class="cls-6" transform="translate(0.013 43.982)">
      <path id="Path_398" data-name="Path 398" class="cls-2" d="M93.009,176.552s-37.284-15.677-42.17,12.6c0,0-2.548,4.4,1,8.043,0,0,.763-1.95,4.368.07a18.748,18.748,0,0,0,4.069,1.651,9.155,9.155,0,0,0,5.794-.309h0s12.262-.663,22.574-16.7c0,0,4.418-2.733,4.642-3.755l-7.39.5s.563,5.41-2.493,8.656c0,0,2.718-8.392,1.411-8.632-.264-.05-3.9.434-3.9.434s.942,9.4-3.989,14.271c0,0,4.578-9.569,2.583-14.1l-5.45,1.052s1.5,9.893-3.9,15.652c0,0,4.433-10.172,2.723-15.343l-5.226,1.755s1.262,9.684-3.251,14.461c0,0,3.939-12.272,2.084-13.962,0,0-4.7,1.9-5.7,2.992,0,0,.748,6.981-2.124,9.474,0,0,1.765-8.477.893-8.826,0,0-5.46,4.109-7.121,7.654,0,0,2.074-5.415,6.433-8.477a11.48,11.48,0,0,0-6.482.913s1.89-3.6,7.8-1.89c0,0,4.383-3.032,5.261-2.992,0,0-5.595-2.493-9.639-2.189,0,0,4.333-2.493,11.01,1.675l5.206-1.885s-7.225-3.7-10.851-3.69c0,0,4.817-1.86,12.207,3.326l5.331-1.092s-5.984-3.665-10.018-4.518c0,0,4.842-.763,11.559,4.268l3.65-.309s-4.418-2.6-5.754-3.231-1.277-1.047-1.277-1.047a17.4,17.4,0,0,1,8.562,4.119S92.974,177.015,93.009,176.552Z" transform="translate(-49.953 -172.217)"/>
    </g>
    <g id="Group_126" data-name="Group 126" class="cls-6" transform="translate(5.476 -0.004)">
      <path id="Path_399" data-name="Path 399" class="cls-2" d="M97.126,104.223S83.892,73.671,64.9,87.683a5.655,5.655,0,0,0-3.989,5.335s1.566-.723,2.553,2.528a15.653,15.653,0,0,0,1.5,3.3,7.48,7.48,0,0,0,3.585,3.107h0s7.659,6.592,22.938,2.937c0,0,4.184.9,4.9.414l-4.672-3.919s-2.743,3.535-6.423,3.71c0,0,6.4-3.441,5.754-4.328-.13-.18-2.563-1.965-2.563-1.965s-4.8,6.123-10.472,6.218c0,0,8.173-3.082,9.569-6.906l-3.835-2.493s-4.757,6.727-11.234,7.076c0,0,8.427-3.491,10.357-7.559l-4.1-1.935S73.994,99.686,68.6,99.93c0,0,9.33-5.046,9.185-7.106,0,0-3.874-1.546-5.1-1.456,0,0-3.525,4.563-6.672,4.433,0,0,5.879-4.034,5.555-4.737,0,0-5.585-.668-8.592.5A17.016,17.016,0,0,1,71.631,90.2a9.347,9.347,0,0,0-4.358-3.141s3.171-1.062,5.714,3.321c0,0,4.328.693,4.832,1.212,0,0-1.895-4.682-4.488-6.792,0,0,3.989,1,5.585,7.265l4.164,1.85s-2.179-6.318-4.368-8.367c0,0,3.924,1.636,5.36,8.926l3.785,2.389s-1.471-5.585-3.376-8.367c0,0,3.311,2.3,4.438,9.115L91.262,99.5s-1.147-4.059-1.581-5.2-.16-1.346-.16-1.346a14.366,14.366,0,0,1,2.738,7.325S96.857,104.483,97.126,104.223Z" transform="translate(-60.91 -84.006)"/>
    </g>
  </g>
</svg>
