<svg xmlns="http://www.w3.org/2000/svg" xmlns:xlink="http://www.w3.org/1999/xlink" width="518.78" height="384.25" viewBox="0 0 518.78 384.25">
  <defs>
    <style>
      .cls-1, .cls-31, .cls-32, .cls-33 {
        fill: #0874d9;
      }

      .cls-1, .cls-11, .cls-35 {
        opacity: 0.1;
      }

      .cls-2 {
        fill: url(#linear-gradient);
      }

      .cls-3 {
        fill: url(#linear-gradient-2);
      }

      .cls-4 {
        fill: #f8c198;
      }

      .cls-5 {
        fill: #b77983;
      }

      .cls-14, .cls-6 {
        opacity: 0.05;
      }

      .cls-11, .cls-7 {
        fill: #fff;
      }

      .cls-47, .cls-8 {
        fill: none;
      }

      .cls-9 {
        fill: #4b4442;
      }

      .cls-10 {
        fill: #8499f0;
      }

      .cls-12 {
        fill: #f4f4f4;
      }

      .cls-13 {
        fill: #7e646b;
      }

      .cls-15 {
        fill: #b7b6cc;
      }

      .cls-16, .cls-20, .cls-24, .cls-28, .cls-32 {
        opacity: 0.5;
      }

      .cls-17 {
        fill: url(#linear-gradient-3);
      }

      .cls-18 {
        fill: #f9fafb;
      }

      .cls-19, .cls-20, .cls-21 {
        fill: #f0b429;
      }

      .cls-21, .cls-25, .cls-29, .cls-33 {
        opacity: 0.3;
      }

      .cls-22 {
        fill: url(#linear-gradient-4);
      }

      .cls-23, .cls-24, .cls-25 {
        fill: #e02200;
      }

      .cls-26 {
        fill: url(#linear-gradient-5);
      }

      .cls-27, .cls-28, .cls-29 {
        fill: #30b34e;
      }

      .cls-30 {
        fill: url(#linear-gradient-6);
      }

      .cls-34 {
        fill: #e6ecf8;
      }

      .cls-36 {
        fill: #a8a8a8;
      }

      .cls-37, .cls-40 {
        opacity: 0.2;
      }

      .cls-38 {
        fill: url(#linear-gradient-7);
      }

      .cls-39 {
        fill: #f6f7f9;
      }

      .cls-41 {
        fill: url(#linear-gradient-8);
      }

      .cls-42 {
        fill: #ae6e79;
      }

      .cls-43 {
        fill: #bebed0;
      }

      .cls-44 {
        fill: #5c5c8e;
      }

      .cls-45 {
        fill: #42383c;
      }

      .cls-46 {
        fill: #e6e8ee;
      }

      .cls-47 {
        stroke: #565987;
        stroke-miterlimit: 10;
      }

      .cls-48 {
        fill: #ffd037;
      }
    </style>
    <linearGradient id="linear-gradient" x1="0.5" y1="1" x2="0.5" gradientUnits="objectBoundingBox">
      <stop offset="0" stop-color="gray" stop-opacity="0.251"/>
      <stop offset="0.54" stop-color="gray" stop-opacity="0.122"/>
      <stop offset="1" stop-color="gray" stop-opacity="0.102"/>
    </linearGradient>
    <linearGradient id="linear-gradient-2" x1="0.5" y1="1" x2="0.5" y2="0" xlink:href="#linear-gradient"/>
    <linearGradient id="linear-gradient-3" x1="-0.211" y1="3.614" x2="-0.211" y2="0.343" xlink:href="#linear-gradient"/>
    <linearGradient id="linear-gradient-4" x1="-0.036" y1="4.542" x2="-0.036" y2="1.284" xlink:href="#linear-gradient"/>
    <linearGradient id="linear-gradient-5" x1="-0.017" y1="4.446" x2="-0.017" y2="1.187" xlink:href="#linear-gradient"/>
    <linearGradient id="linear-gradient-6" x1="-1.04" y1="1.715" x2="-1.04" y2="0.715" xlink:href="#linear-gradient"/>
    <linearGradient id="linear-gradient-7" x1="0.551" y1="0.784" x2="0.551" y2="0.225" xlink:href="#linear-gradient"/>
    <linearGradient id="linear-gradient-8" x1="0.5" y1="1" x2="0.5" y2="0" xlink:href="#linear-gradient"/>
  </defs>
  <g id="undraw_upload_87y9" transform="translate(0 -0.002)">
    <path id="Path_201" data-name="Path 201" class="cls-1" d="M303.993,72.509C286.972,65.59,268.986,59.8,250.623,60.535c-27.017,1.062-52.893,17.3-65.6,41.143-10.77,20.2-12.1,43.877-16.737,66.292-5.715,27.621-16.659,53.869-28.354,79.539-6.283,13.769-12.908,27.873-13.939,42.989-1.433,20.981,8.6,41.894,24.329,55.865s36.633,21.32,57.591,22.928c11.159.856,22.818.064,32.731-5.129,10.486-5.495,18.129-15.427,28.656-20.84,9.758-5.037,21.169-5.724,32.122-5.069a143.847,143.847,0,0,1,41.94,8.911c15.308,5.751,29.544,14.076,44.82,19.905s32.342,9.085,47.957,4.217c14.653-4.579,26.257-15.661,36.711-26.9a470.8,470.8,0,0,0,46.8-59.208c9.428-14.122,18.2-29.022,22.374-45.484,7.968-31.468-3-66.974-27.333-88.468C494.538,133.421,467.481,125.691,441,121c-24.146-4.277-52.065-4.542-74.291-15.688C345.507,94.668,326.22,81.548,303.993,72.509Z" transform="translate(-83.582 -46.714)"/>
    <path id="Path_202" data-name="Path 202" class="cls-2" d="M809.387,140.737c-6.539.261-6.869,17.144-6.461,17.881s-1.484,8.357-1.484,8.357-2.967,11.553-2.624,13.7a4,4,0,0,1-1.6,3.553c-2.9,1.145-6.544,4.836-7.51,5.848l-.243.261a21.12,21.12,0,0,0-3.306,2.555c-.495.723-1.832.147-1.832.147a35.7,35.7,0,0,0-4.3-.22c-.339.1-.87-.522-1.172-.916-.142-.188-.233-.33-.233-.33l-.115-3.407a2.788,2.788,0,0,0-.458-.284c.078-.385.174-.783.293-1.191a10.2,10.2,0,0,0,4.162-3.737c.11-.174.211-.353.307-.531a1.374,1.374,0,0,0,.865.243,1.718,1.718,0,0,0,.4-.037,3.257,3.257,0,0,0,1.172-.591,6.273,6.273,0,0,0,2.18-2.555,4.15,4.15,0,0,0,.206-.609c-.069.114-.142.229-.215.339a3.522,3.522,0,0,0-.243-2.972,9.759,9.759,0,0,1-1.145-1.685c-.385-1.1.343-2.244.792-3.324a5.591,5.591,0,0,0,.407-3.132,4,4,0,0,0-1.694-2.642c-1.8-1.168-4.24-.527-6.324-1.09a17.124,17.124,0,0,1-2.175-.875,16.484,16.484,0,0,0-3.329-1.035c-1.131-.224-2.5-.247-3.205.636a6.575,6.575,0,0,0-.522.884,3.274,3.274,0,0,1-2.047,1.47,7.673,7.673,0,0,1-1.259.133,1.216,1.216,0,0,0,0-.522c-.531-1.74.989-3.031,2.967-3.81s9.5-6.7,10.376-8.11,7-5.815,7-5.815,9.158-2.592,12.162-12.034-14.369,6.594-16.118,7.075a17.82,17.82,0,0,0-4.254,2.29L767.676,151.1a40.35,40.35,0,0,0-6.008,4.149,20.172,20.172,0,0,0-4.405,6.292s-1.067,1.74-2.624,4.259a11.594,11.594,0,0,1-3.4,3.613l.05-.092c-.124.151-3.956,4.991-4.3,7.107s-1.9,10.738-1.9,10.738-1.374,6.772-2.317,8.105c0,0-.765,3.888-1.218,4.41s-2.29,6.031-1.978,6.589c0,0-1.749,3.814-1.442,5.257l-3.155,7.555s-1.713,3.737-1.6,5.921c.055,1.058.1,2.29.133,3.3v.458h0v.458c-.169.284-.6,1.007-1.058,1.882a9.8,9.8,0,0,0-1.3,3.842c.073,1.722.078,5.925-.714,7.469l-.234-.092a3.2,3.2,0,0,0-.458,1.52l.055.027c0,.133-.041.27-.055.417-.192,1.754.087,4.194-.353,4.73-.609.742-.307,17.181-.307,17.181s-.989,10.289.989,16.81l-.151,5.106a47.544,47.544,0,0,0,.151,5.495,53.579,53.579,0,0,1,.307,5.554l1.14,8.146s-1.525,12.588-.229,15.7a17.111,17.111,0,0,1,1.374,5.408,8.411,8.411,0,0,0,2.1.811v.458l-.3,7.656v.421s-.037.2-.064.536h0v.188a.224.224,0,0,0,0,.055v.16a1.128,1.128,0,0,0,0,.124.893.893,0,0,1,0,.11v.691h0v.669a1.324,1.324,0,0,0,.037.229.23.23,0,0,0,0,.055,1.169,1.169,0,0,0,.05.252h0a.975.975,0,0,0,.06.247.06.06,0,0,1,0,.027h0a.452.452,0,0,0,.037.128.231.231,0,0,0,0,.06.745.745,0,0,0,.046.156v.037c.046.128.092.256.146.385a.166.166,0,0,0,0,.041c0,.046.041.1.064.142l.028.064.06.124.037.069.064.114.041.069c0,.037.041.073.064.11a.846.846,0,0,1,.046.073l.069.105.05.069.073.105.055.069.083.1.055.064.1.11.05.055.156.151a.237.237,0,0,0,.05.046,1.241,1.241,0,0,0,.114.105l.073.06.1.082.087.064.1.073.1.064.1.064.105.06.105.064.11.055.115.055.115.055.114.05.124.05.124.046.128.046.137.041.215.064.179.046.142.027.147.032h.156l.151.023H740.7l.247-.023h.151l.417-.046s5.188.774,5.357-1.278a1.639,1.639,0,0,1,.023-.33v-.261a.682.682,0,0,1,0-.1v-2.606c-.032-1.017-.082-1.96-.115-2.486a3.321,3.321,0,0,0-.028-.458s-1.767-2.665-1.479-3.663a26.363,26.363,0,0,0,.224-4.387s-.687-1.626-1.149-3.063c-.037-.11-.069-.22-.1-.325a16.928,16.928,0,0,0,1.081-1.374,17.4,17.4,0,0,0-1.291-10.44.65.65,0,0,1-.279-.536.224.224,0,0,1,0-.055l.884-10.811-.536-6.292s-.38-4.3.458-6.15l1.671-16.288,2.372-9.474s.76-.371,1.374,1.41,2.125,9.845,2.125,9.845l3.663,13.33s.609,4.739,1.14,5.408.536,3.627.536,3.627,1.14,2.372.989,3.407a14.734,14.734,0,0,0,.376,4.813c.375.962.536,7.784.536,7.784a15.726,15.726,0,0,0,.151,6.74,23.733,23.733,0,0,1,.38,7.7,5.232,5.232,0,0,0,.311.43c-.037.1-.078.2-.114.293-.238.618-.426,1.053-.426,1.053a27,27,0,0,0,.229,4.387c.284,1-1.484,3.663-1.484,3.663s0,.165-.027.458c-.032.527-.082,1.465-.115,2.486v2.61a.575.575,0,0,0,0,.087v.266a1.684,1.684,0,0,0,.023.33c.174,2.051,5.362,1.278,5.362,1.278l.417.05h2.317l.156-.027.151-.023.147-.032.147-.027.179-.046.215-.064.133-.041.128-.046a.988.988,0,0,0,.124-.046l.124-.05.119-.05.115-.05.114-.06.105-.055.11-.06.1-.064.105-.064.092-.064.1-.073a.614.614,0,0,0,.087-.064.841.841,0,0,0,.1-.078l.078-.064.114-.1.05-.05.156-.151.046-.055.1-.105.05-.069a.923.923,0,0,0,.087-.1l.05-.069.078-.105.046-.069.073-.105a.641.641,0,0,1,.046-.073c0-.037.041-.073.064-.11l.041-.069c0-.041.041-.078.06-.114a.5.5,0,0,0,.037-.069c0-.041.041-.082.06-.124l.032-.064c0-.046.041-.092.064-.142v-.041c.05-.128.1-.256.142-.385v-.037a.491.491,0,0,1,.05-.151.352.352,0,0,1,0-.064.174.174,0,0,1,.037-.128v-.023a.06.06,0,0,0,0-.027,1.11,1.11,0,0,1,.064-.243h0a1.572,1.572,0,0,1,.05-.247v-.06a1.774,1.774,0,0,1,.037-.224.18.18,0,0,0,0-.078v-.6h0v-.8a1.129,1.129,0,0,1,0-.124v-.16a.227.227,0,0,1,0-.055c0-.064,0-.128,0-.183h0c-.027-.334-.06-.536-.06-.536v-.417l-.288-7.409v-.458c.426-.238.861-.508,1.314-.824,0,0-.078-4.222,1.14-5.921s-.609-6.15-.609-6.15l-.76-15.922.3-7.327a7.286,7.286,0,0,1-.916-3.553,12.927,12.927,0,0,0-1.218-4.579s-.76-2.518.156-3.26-.989-16.943-.989-16.943.458-11.837-.412-18.866v-.114l.243-.11c-.073-.563-.151-1.09-.238-1.58l-.256.078a12.882,12.882,0,0,0-.458-1.832l-1.218-5.591s-.027-.293-.06-.719c-.041-.5-.087-1.186-.1-1.786a3.038,3.038,0,0,1,.082-.751l-.064-.055a1.663,1.663,0,0,1,.064-.389l-.266-.224s-.037-.252-.064-.636a7.164,7.164,0,0,1,.33-3.173c.609-1.223,6.869-5.852,6.869-5.852l3.508-7.02s3.5-4.927,6.159-5.889,10.949-6.475,10.949-6.475,2.889-2.963,3.118-3.663l.1-.147h.055v-.1l7.784-11.663c3.114-2.519,3.228-7.885,3.228-7.885l.811-12.263-.266-7.253.376-4.121S815.922,140.48,809.387,140.737ZM764.8,172.47a9.812,9.812,0,0,0-1.291,4.863v.444a9.781,9.781,0,0,0,1.039,4.386,3.6,3.6,0,0,0-.755,1.343,7.281,7.281,0,0,1-1.575-2.954,3.074,3.074,0,0,0-1.218-2,8.386,8.386,0,0,1,.073-2.628l.041-.037s.032-.055.1-.147h0c.325-.49,1.419-2.143,2.551-4.025a3.6,3.6,0,0,0,.581.192l.7.174Z" transform="translate(-410.46 -85.663)"/>
    <path id="Path_203" data-name="Path 203" class="cls-3" d="M855.459,216.725c.069-.156.124-.321.179-.485a10.088,10.088,0,0,0-.458,1.122C855.276,217.147,855.372,216.936,855.459,216.725Z" transform="translate(-478.943 -131.154)"/>
    <path id="Path_204" data-name="Path 204" class="cls-4" d="M806.154,239.438s-1.433,6.832-4.075,7.716,3.205,8.7,3.205,8.7l12.121-.664.22-2.532s-2.29-5.069,1.543-11.237S806.154,239.438,806.154,239.438Z" transform="translate(-449.785 -142.978)"/>
    <path id="Path_205" data-name="Path 205" class="cls-5" d="M755.831,570.509c-.165,2.038-5.179,1.268-5.179,1.268-8.316,1.154-6.942-7-6.942-7v-.417l.289-7.6.082-2.12s9.158-4.185,8.925-3.306a5.207,5.207,0,0,0,.371,1.978c.458,1.424,1.113,3.036,1.113,3.036a27.382,27.382,0,0,1-.22,4.35c-.275.989,1.433,3.636,1.433,3.636s0,.165.027.458A53.431,53.431,0,0,1,755.831,570.509Z" transform="translate(-418.47 -312.741)"/>
    <path id="Path_206" data-name="Path 206" class="cls-5" d="M799.11,573.8s-5.014.774-5.179-1.268a52.068,52.068,0,0,1,.087-5.728,4.093,4.093,0,0,1,.023-.458s1.708-2.647,1.433-3.636a27.426,27.426,0,0,1-.22-4.355s.179-.426.412-1.039c.49-1.287,1.227-3.375,1.076-3.97-.22-.884,8.925,3.3,8.925,3.3l.092,2.372.279,7.35v.417S807.43,574.958,799.11,573.8Z" transform="translate(-445.718 -313.829)"/>
    <path id="Path_207" data-name="Path 207" class="cls-4" d="M822.752,138.854A18.773,18.773,0,0,1,811,150.791s-5.916,4.387-6.759,5.76-8.114,7.272-10.028,8.045-3.375,2.056-2.862,3.778c.458,1.6-4.552,9.419-5.307,10.582h0l-.092.147-1.58,1.653-5.362,2.715-4.368-1.4-.554-5.248,2.317-4.121h0a11.37,11.37,0,0,0,3.283-3.585c1.506-2.5,2.537-4.222,2.537-4.222a20.145,20.145,0,0,1,4.258-6.246,38.537,38.537,0,0,1,5.8-4.121l10.766-6.411a17.358,17.358,0,0,1,4.121-2.29C808.873,145.342,825.655,129.489,822.752,138.854Z" transform="translate(-434.984 -87.603)"/>
    <path id="Path_208" data-name="Path 208" class="cls-6" d="M779.012,223.676l7.162-1.433a.458.458,0,0,0-.128.3h0l-.092.147-1.58,1.653-5.362,2.715-4.368-1.4-.554-5.248,2.317-4.121h0c-2.193,4.579-.055,7.83-.055,7.83Z" transform="translate(-434.984 -131.182)"/>
    <path id="Path_209" data-name="Path 209" class="cls-6" d="M864.575,271.6a1.311,1.311,0,0,0-.05.147,2.017,2.017,0,0,1-.266.458l-2.889,1.41-4.41.458-2.29-5.545,1.525-6.076.843-1.136.234-.256c.087,1.1.531,6.832.5,8.554-.037,1.91,1.374,2.061,1.374,2.061Z" transform="translate(-478.666 -155.451)"/>
    <path id="Path_210" data-name="Path 210" class="cls-7" d="M803.017,247.612a1.325,1.325,0,0,0-.05.147,26.785,26.785,0,0,1-3.008,3.636s-8.009,5.472-10.578,6.411-5.953,5.838-5.953,5.838l-3.379,6.974s-6.058,4.579-6.644,5.806a7.235,7.235,0,0,0-.316,3.15,3.267,3.267,0,0,0,.055.632l-1.786,1.864-1.424,1.484-2.006,2.088-3.265-.458-10.175-1.616-1.951-1.1-10.83-6.1s0-.38-.028-.962c0-.256,0-.549-.027-.875-.032-.989-.078-2.221-.128-3.269-.11-2.166,1.543-5.875,1.543-5.875l3.045-7.5c-.293-1.429,1.4-5.216,1.4-5.216-.293-.549,1.47-6.021,1.909-6.534s1.177-4.373,1.177-4.373c.916-1.319,2.239-8.041,2.239-8.041s1.507-8.522,1.832-10.651,4.03-6.9,4.149-7.047c-2.642,4.845-.33,8.371-.33,8.371l2.647-.458,7.166-1.4c-.33.22-.11,2.642-.11,2.642a3.054,3.054,0,0,1,1.172,1.983,7.607,7.607,0,0,0,1.616,3.045l.037.041a3.585,3.585,0,0,1,1.726-2.464L774.393,230l.554,2.642s-.151.371-1.1,1.1.4,2.642.4,2.642a13.455,13.455,0,0,1,.591,3.636h0a5.355,5.355,0,0,1,3.118-1.062,9.445,9.445,0,0,0,1.873-2.683,1.108,1.108,0,0,1,1.58-.733,10.149,10.149,0,0,1,1.8-1.25c.884-.458,1.909.458,1.909.458l.11,3.384s.087.137.229.325c.289.4.806,1.021,1.131.916a33.543,33.543,0,0,1,4.149.22s1.287.549,1.763-.147a21.728,21.728,0,0,1,3.205-2.532s.527,6.818.527,8.723S797.6,247.7,797.6,247.7Z" transform="translate(-417.328 -131.041)"/>
    <path id="Path_211" data-name="Path 211" class="cls-8" d="M875.886,284.759h-.1C875.964,284.3,875.886,284.759,875.886,284.759Z" transform="translate(-490.115 -168.188)"/>
    <circle id="Ellipse_145" data-name="Ellipse 145" class="cls-9" cx="0.659" cy="0.659" r="0.659" transform="translate(354.977 111.447)"/>
    <circle id="Ellipse_146" data-name="Ellipse 146" class="cls-9" cx="0.659" cy="0.659" r="0.659" transform="translate(350.164 121.036)"/>
    <circle id="Ellipse_147" data-name="Ellipse 147" class="cls-9" cx="0.659" cy="0.659" r="0.659" transform="translate(340.69 141.564)"/>
    <circle id="Ellipse_148" data-name="Ellipse 148" class="cls-9" cx="0.659" cy="0.659" r="0.659" transform="translate(345.168 131.206)"/>
    <path id="Path_212" data-name="Path 212" class="cls-6" d="M753.9,553.314c-3.443,4.094-7.162,4.025-9.378,3.448l.082-2.12s9.158-4.185,8.925-3.306A4.86,4.86,0,0,0,753.9,553.314Z" transform="translate(-418.955 -312.741)"/>
    <path id="Path_213" data-name="Path 213" class="cls-6" d="M807.884,559.058c-5.848,3.379-9.277-.582-10.074-1.7.49-1.287,1.227-3.375,1.076-3.97-.22-.884,8.925,3.3,8.925,3.3Z" transform="translate(-447.843 -313.851)"/>
    <path id="Path_214" data-name="Path 214" class="cls-10" d="M774.554,439.3c-1.172,1.69-1.1,5.875-1.1,5.875-7.565,5.435-11.53-1.177-11.53-1.177a24.322,24.322,0,0,0-.366-7.638,15.94,15.94,0,0,1-.146-6.685s-.147-6.759-.517-7.711a14.753,14.753,0,0,1-.366-4.776c.147-1.03-.952-3.375-.952-3.375s0-2.94-.517-3.6-1.1-5.367-1.1-5.367l-3.521-13.22s-1.47-8-2.056-9.767-1.323-1.4-1.323-1.4l-2.116,9.474-1.616,16.16c-.811,1.832-.458,6.1-.458,6.1l.513,6.241-.852,10.724a.226.226,0,0,0,0,.055.655.655,0,0,0,.266.531,17.648,17.648,0,0,1,1.232,10.358c-5.582,8.082-12.341,3.892-12.341,3.892a17.141,17.141,0,0,0-1.319-5.358c-1.25-3.086.22-15.569.22-15.569l-1.1-8.082a54.148,54.148,0,0,0-.293-5.495,48.316,48.316,0,0,1-.147-5.435l.147-5.069c-1.91-6.466-.957-16.673-.957-16.673s-.293-16.306.3-17.043c.426-.531.156-2.949.339-4.694a3.274,3.274,0,0,1,.43-1.507l.073-.073c.957-1.177.957-5.875.879-7.716a9.909,9.909,0,0,1,1.259-3.81c.458-.888.875-1.621,1.03-1.887l.064-.105s4.185,1.03,15.276,6.319a20.843,20.843,0,0,0,6.31,1.955,14.038,14.038,0,0,0,3.292.05,11.493,11.493,0,0,0,4.735-1.539,8.325,8.325,0,0,0,2.047-1.644,13.678,13.678,0,0,0,0,2.958c.027.426.06.714.06.714l1.223,5.449a14.29,14.29,0,0,1,.458,1.974c.087.485.16,1.012.229,1.571.856,6.969.4,18.715.4,18.715s1.832,16.086.957,16.819-.151,3.233-.151,3.233a13.037,13.037,0,0,1,1.177,4.552,7.327,7.327,0,0,0,.884,3.526l-.3,7.272.769,15.775S775.73,437.607,774.554,439.3Z" transform="translate(-412.163 -201.214)"/>
    <path id="Path_215" data-name="Path 215" class="cls-6" d="M806.13,489.761s5.564-3.205,6.777-1.763S806.13,489.761,806.13,489.761Z" transform="translate(-452.353 -278.27)"/>
    <path id="Path_216" data-name="Path 216" class="cls-6" d="M813.225,496.14s-.916.458,1.1,1.044S813.225,496.14,813.225,496.14Z" transform="translate(-456.087 -282.885)"/>
    <path id="Path_217" data-name="Path 217" class="cls-6" d="M739.994,476.807c-.188.055,4.63,3.251,8.98.6C748.955,477.411,741.079,476.477,739.994,476.807Z" transform="translate(-416.498 -272.367)"/>
    <path id="Path_218" data-name="Path 218" class="cls-6" d="M753.573,490.24a5.9,5.9,0,0,1-4.02,2.976C746.85,493.6,753.573,490.24,753.573,490.24Z" transform="translate(-421.336 -279.687)"/>
    <path id="Path_219" data-name="Path 219" class="cls-6" d="M797.71,502.52s6.338,10.074,5.124,12.451S797.71,502.52,797.71,502.52Z" transform="translate(-447.789 -286.344)"/>
    <path id="Path_220" data-name="Path 220" class="cls-6" d="M773.589,369.09l-.659,19.722s3.91-.165,4.579-6.663,1.159-11.791,1.159-11.791Z" transform="translate(-434.356 -214.013)"/>
    <path id="Path_221" data-name="Path 221" class="cls-10" d="M773.109,368.13l-.659,19.722s3.911-.165,4.579-6.667S778.2,369.4,778.2,369.4Z" transform="translate(-434.095 -213.492)"/>
    <path id="Path_222" data-name="Path 222" class="cls-6" d="M744.557,369.339s-3.086,8.274-10.147,4.268a3.254,3.254,0,0,1,.43-1.507c1.932.81,6.411,2,8.242-3.37Z" transform="translate(-413.474 -213.818)"/>
    <path id="Path_223" data-name="Path 223" class="cls-6" d="M744.077,367.414s-3.086,8.274-10.147,4.268a3.274,3.274,0,0,1,.43-1.507c1.932.815,6.411,2,8.242-3.366Z" transform="translate(-413.214 -212.777)"/>
    <path id="Path_224" data-name="Path 224" class="cls-10" d="M744.077,368.374s-3.086,8.274-10.147,4.268a3.274,3.274,0,0,1,.43-1.507c1.932.815,6.411,2,8.242-3.366Z" transform="translate(-413.214 -213.297)"/>
    <path id="Path_225" data-name="Path 225" class="cls-6" d="M802.541,379.4c-7.757,3.691-10.6-5.01-10.6-5.01l1.832.055c.321,5.564,6.452,4.066,8.554,3.384C802.4,378.333,802.472,378.841,802.541,379.4Z" transform="translate(-444.661 -216.886)"/>
    <path id="Path_226" data-name="Path 226" class="cls-6" d="M803.5,377.954c-7.752,3.686-10.6-5.014-10.6-5.014l1.832.055c.321,5.564,6.452,4.071,8.554,3.389C803.359,376.869,803.432,377.4,803.5,377.954Z" transform="translate(-445.181 -216.1)"/>
    <path id="Path_227" data-name="Path 227" class="cls-10" d="M803.021,378.434c-7.753,3.686-10.6-5.014-10.6-5.014l1.832.055c.32,5.568,6.452,4.071,8.554,3.389C802.879,377.349,802.952,377.875,803.021,378.434Z" transform="translate(-444.921 -216.36)"/>
    <path id="Path_228" data-name="Path 228" class="cls-11" d="M744.077,368.374s-3.086,8.274-10.147,4.268a3.274,3.274,0,0,1,.43-1.507c1.932.815,6.411,2,8.242-3.366Z" transform="translate(-413.214 -213.297)"/>
    <path id="Path_229" data-name="Path 229" class="cls-11" d="M803.021,378.434c-7.753,3.686-10.6-5.014-10.6-5.014l1.832.055c.32,5.568,6.452,4.071,8.554,3.389C802.879,377.349,802.952,377.875,803.021,378.434Z" transform="translate(-444.921 -216.36)"/>
    <path id="Path_230" data-name="Path 230" class="cls-6" d="M755.888,584.365a12.988,12.988,0,0,1-.055,1.525c-.165,2.038-5.179,1.268-5.179,1.268-4.579.637-6.228-1.561-6.773-3.663a8.384,8.384,0,0,1-.252-2.088,8.678,8.678,0,0,1,.082-1.255v-.417a3.063,3.063,0,0,1,2.848.582c2.038,1.653,4.739.385,4.739.385a6.359,6.359,0,0,1,2.747.824c.43.371,1.14-.522,1.681-1.374.032.549.082,1.543.114,2.606C755.879,583.3,755.888,583.852,755.888,584.365Z" transform="translate(-418.472 -328.131)"/>
    <path id="Path_231" data-name="Path 231" class="cls-6" d="M747.847,586.4s-1.374,1.346-3.965-.733a8.387,8.387,0,0,1-.252-2.088C744.953,584.587,747.408,586.4,747.847,586.4Z" transform="translate(-418.472 -330.286)"/>
    <path id="Path_232" data-name="Path 232" class="cls-6" d="M768.638,588.092a1.035,1.035,0,0,1-1.488-.238,9.793,9.793,0,0,0,1.466-1.374C768.629,587.03,768.638,587.579,768.638,588.092Z" transform="translate(-431.222 -331.858)"/>
    <path id="Path_233" data-name="Path 233" class="cls-6" d="M793.869,586.429a14.094,14.094,0,0,0,.05,1.525c.165,2.042,5.179,1.268,5.179,1.268,4.579.641,6.228-1.557,6.772-3.663a8.794,8.794,0,0,0,.169-3.343V581.8a3.1,3.1,0,0,0-2.853.582c-2.038,1.653-4.735.385-4.735.385a6.385,6.385,0,0,0-2.747.829c-.43.371-1.14-.522-1.676-1.374-.032.549-.087,1.543-.119,2.606C793.873,585.362,793.864,585.911,793.869,586.429Z" transform="translate(-445.706 -329.251)"/>
    <path id="Path_234" data-name="Path 234" class="cls-6" d="M811.43,588.446s1.374,1.346,3.961-.733a8.356,8.356,0,0,0,.256-2.083C814.32,586.633,811.865,588.446,811.43,588.446Z" transform="translate(-455.226 -331.397)"/>
    <path id="Path_235" data-name="Path 235" class="cls-6" d="M793.869,590.152a1.03,1.03,0,0,0,1.484-.238,9.685,9.685,0,0,1-1.465-1.374C793.873,589.085,793.864,589.634,793.869,590.152Z" transform="translate(-445.706 -332.974)"/>
    <path id="Path_236" data-name="Path 236" class="cls-6" d="M774.8,285s-7.052,19.466-4.336,21.155S774.8,285,774.8,285Z" transform="translate(-432.681 -168.429)"/>
    <path id="Path_237" data-name="Path 237" class="cls-6" d="M790.894,271.88s-1.328,6.466-.664,7.052S790.894,271.88,790.894,271.88Z" transform="translate(-443.633 -161.316)"/>
    <path id="Path_238" data-name="Path 238" class="cls-6" d="M813.4,304.77s-8.668,8.078-8.082,8.742S813.4,304.77,813.4,304.77Z" transform="translate(-451.897 -179.146)"/>
    <path id="Path_239" data-name="Path 239" class="cls-6" d="M824.395,260.877c-3.283,1-10.958,3.347-11.045,3.329l.426-1.749a5.355,5.355,0,0,1,3.118-1.062,9.444,9.444,0,0,0,1.873-2.683,1.108,1.108,0,0,1,1.58-.733,10.42,10.42,0,0,1,1.8-1.25c.884-.458,1.909.458,1.909.458l.11,3.379S824.253,260.689,824.395,260.877Z" transform="translate(-456.267 -153.033)"/>
    <path id="Path_240" data-name="Path 240" class="cls-12" d="M824.395,259.937c-3.283,1-10.958,3.347-11.045,3.324l.426-1.745a5.355,5.355,0,0,1,3.118-1.062,9.444,9.444,0,0,0,1.873-2.683,1.108,1.108,0,0,1,1.58-.733,10.156,10.156,0,0,1,1.8-1.25c.884-.458,1.909.458,1.909.458l.11,3.384S824.253,259.74,824.395,259.937Z" transform="translate(-456.267 -152.524)"/>
    <path id="Path_241" data-name="Path 241" class="cls-6" d="M808.634,250.814a13.41,13.41,0,0,1,.586,3.636l-1.278,1.017-2.427-7-.11-3.636-.046-.206.037.041a3.567,3.567,0,0,1,1.726-2.459l1.653,2.2.554,2.642s-.151.371-1.1,1.1S808.634,250.814,808.634,250.814Z" transform="translate(-451.936 -145.233)"/>
    <path id="Path_242" data-name="Path 242" class="cls-12" d="M809.124,250.315a13.456,13.456,0,0,1,.591,3.636l-1.278,1.03-2.427-7-.11-3.636-.05-.206.037.041a3.585,3.585,0,0,1,1.726-2.464l1.653,2.207.554,2.642s-.151.371-1.1,1.1S809.124,250.315,809.124,250.315Z" transform="translate(-452.201 -144.967)"/>
    <path id="Path_243" data-name="Path 243" class="cls-6" d="M824.887,222.608a9.831,9.831,0,1,1-2.878-7.038A9.914,9.914,0,0,1,824.887,222.608Z" transform="translate(-451.773 -129.23)"/>
    <path id="Path_244" data-name="Path 244" class="cls-4" d="M824.877,221.644a9.859,9.859,0,1,1-2.888-7.027A9.918,9.918,0,0,1,824.877,221.644Z" transform="translate(-451.762 -128.709)"/>
    <path id="Path_245" data-name="Path 245" class="cls-6" d="M826.362,221.629a9.859,9.859,0,0,1-1.442,5.152c-.146-.261-.234-.563-.38-.829-.206-.371-.682-.682-1.035-.458a1.058,1.058,0,0,0-.325.458c-.289.609-.8,1.218-1.474,1.2a1.461,1.461,0,0,1-1.255-1.072,4.4,4.4,0,0,1-.073-1.749c.1-1.191.119-2.564-.765-3.366a5.009,5.009,0,0,0-1.914-.856,2.511,2.511,0,0,1-1.649-1.218c-.183-.458-.137-.943-.3-1.374a2.4,2.4,0,0,0-1.781-1.31,4.671,4.671,0,0,1-3.118,1.067,11.686,11.686,0,0,1-3.068-.485,9.918,9.918,0,0,1,18.582,4.822Z" transform="translate(-453.247 -128.695)"/>
    <path id="Path_246" data-name="Path 246" class="cls-13" d="M813.847,211.266c.165.458.119.952.3,1.374a2.5,2.5,0,0,0,1.649,1.218,5.037,5.037,0,0,1,1.914.852c.884.806.865,2.18.765,3.37a4.4,4.4,0,0,0,.073,1.749A1.47,1.47,0,0,0,819.8,220.9a1.822,1.822,0,0,0,1.474-1.2,1.068,1.068,0,0,1,.325-.458c.353-.234.829.078,1.035.458a4.537,4.537,0,0,0,.591,1.113,1.319,1.319,0,0,0,1.2.275,3.038,3.038,0,0,0,1.131-.586,6.2,6.2,0,0,0,2.106-2.532,3.635,3.635,0,0,0-.133-3.205,9.628,9.628,0,0,1-1.1-1.676c-.376-1.094.33-2.221.765-3.292a5.714,5.714,0,0,0,.389-3.109,3.993,3.993,0,0,0-1.635-2.624c-1.74-1.159-4.094-.522-6.109-1.081a15.5,15.5,0,0,1-2.1-.865,15.572,15.572,0,0,0-3.205-1.026c-1.094-.22-2.418-.247-3.109.627a6.921,6.921,0,0,0-.5.879,3.164,3.164,0,0,1-1.978,1.456c-.591.142-1.209.105-1.832.192a2.015,2.015,0,0,0-1.525.875,3.034,3.034,0,0,0-.1,1.832,1.859,1.859,0,0,1-.458,1.726c-.234.179-.554.266-.7.517a.728.728,0,0,0,.215.865,2.064,2.064,0,0,0,.875.385,13.385,13.385,0,0,0,3.512.6,4.634,4.634,0,0,0,3.27-1.2c-.078.078-.582.046-.673.041A2.675,2.675,0,0,1,813.847,211.266Z" transform="translate(-451.347 -122.87)"/>
    <g id="Group_95" data-name="Group 95" class="cls-14" transform="translate(353.06 81.908)">
      <path id="Path_247" data-name="Path 247" d="M826.286,228.629a3.118,3.118,0,0,1-1.131.591,1.328,1.328,0,0,1-1.2-.279,4.472,4.472,0,0,1-.6-1.113c-.206-.371-.682-.682-1.035-.458a1.121,1.121,0,0,0-.325.458,1.793,1.793,0,0,1-1.474,1.2,1.452,1.452,0,0,1-1.25-1.072,4.4,4.4,0,0,1-.078-1.749c.105-1.191.119-2.56-.76-3.366a5.036,5.036,0,0,0-1.919-.856,2.521,2.521,0,0,1-1.648-1.218c-.183-.458-.137-.943-.3-1.374a2.394,2.394,0,0,0-1.781-1.31,4.753,4.753,0,0,1-3.118,1.072,13.581,13.581,0,0,1-3.512-.6,2.12,2.12,0,0,1-.875-.38.968.968,0,0,1-.142-.165,1.282,1.282,0,0,0-.513.4.728.728,0,0,0,.215.865,2.066,2.066,0,0,0,.875.385,13.385,13.385,0,0,0,3.512.6,4.712,4.712,0,0,0,3.114-1.067,2.4,2.4,0,0,1,1.786,1.305c.165.458.119.952.3,1.374a2.511,2.511,0,0,0,1.648,1.218,5.035,5.035,0,0,1,1.914.852c.884.806.865,2.18.765,3.37a4.4,4.4,0,0,0,.073,1.749,1.47,1.47,0,0,0,1.255,1.072,1.822,1.822,0,0,0,1.474-1.2,1.068,1.068,0,0,1,.325-.458c.353-.234.829.078,1.035.458a4.4,4.4,0,0,0,.6,1.113,1.309,1.309,0,0,0,1.2.275,3.037,3.037,0,0,0,1.131-.586,6.2,6.2,0,0,0,2.106-2.532,4.056,4.056,0,0,0,.2-.6A6.53,6.53,0,0,1,826.286,228.629Z" transform="translate(-804.565 -214.022)"/>
      <path id="Path_248" data-name="Path 248" d="M854,220.263c.1-.211.188-.421.275-.627a4.165,4.165,0,0,0,.169-.485A10.829,10.829,0,0,0,854,220.263Z" transform="translate(-831.363 -214.64)"/>
      <path id="Path_249" data-name="Path 249" d="M807.106,212.043a1.879,1.879,0,0,0,.417-1.685,7.5,7.5,0,0,1-.087-1.058,1.553,1.553,0,0,0-.252.321,3.033,3.033,0,0,0-.1,1.832A3.584,3.584,0,0,1,807.106,212.043Z" transform="translate(-805.881 -209.3)"/>
    </g>
    <path id="Path_250" data-name="Path 250" class="cls-6" d="M772.366,353.665c-.852.06-2.047.124-3.485.174-1,.032-2.115.055-3.311.055-1.044,0-2.148,0-3.292-.05a70.587,70.587,0,0,1-10.793-1.113c-4.758-.916-9.158-2.5-11.906-5.17.458-.888.875-1.626,1.03-1.887,0-.256,0-.554-.027-.875,4.831,2.29,19.892,8.65,31.436,5.037a3.271,3.271,0,0,0,.055.632l.261.22A13.906,13.906,0,0,0,772.366,353.665Z" transform="translate(-416.277 -200.845)"/>
    <path id="Path_251" data-name="Path 251" class="cls-9" d="M772.366,352.7c-.852.06-2.047.124-3.485.169-1,.037-2.115.055-3.311.055-1.044,0-2.148,0-3.292-.05a70.577,70.577,0,0,1-10.793-1.108c-4.758-.916-9.158-2.5-11.906-5.174.458-.888.875-1.621,1.03-1.887,0-.256,0-.55-.027-.875,4.831,2.29,19.892,8.654,31.436,5.06a3.271,3.271,0,0,0,.055.632l.261.22A13.733,13.733,0,0,0,772.366,352.7Z" transform="translate(-416.277 -200.32)"/>
    <path id="Path_252" data-name="Path 252" class="cls-15" d="M310.35,559.884a6.3,6.3,0,0,1-1.406-4.794l20.212-165.384,1.676-13.737a6.342,6.342,0,0,1,6.246-5.568l59.2-.394a6.333,6.333,0,0,0,6.292-6.507l-.023-.627a6.338,6.338,0,0,1,6.333-6.553h62.212a6.333,6.333,0,0,1,6.333,6.319,6.758,6.758,0,0,1-.055.852,6.333,6.333,0,0,0,6.118,7.171l59.748,1.525a6.328,6.328,0,0,1,6.081,7.4L519.45,554.05l-.563,3.3a6.194,6.194,0,0,1-.916,2.363Z" transform="translate(-182.808 -207.09)"/>
    <g id="Group_96" data-name="Group 96" class="cls-16" transform="translate(238.926 112.853)">
      <rect id="Rectangle_324" data-name="Rectangle 324" class="cls-17" width="120.353" height="36.798" transform="matrix(0.568, -0.823, 0.823, 0.568, 0, 99.019)"/>
    </g>
    <rect id="Rectangle_325" data-name="Rectangle 325" class="cls-18" width="34.984" height="118.741" transform="matrix(0.823, 0.568, -0.568, 0.823, 307.847, 114.192)"/>
    <rect id="Rectangle_326" data-name="Rectangle 326" class="cls-19" width="24.698" height="24.698" transform="matrix(0.821, 0.571, -0.571, 0.821, 309.921, 118.82)"/>
    <rect id="Rectangle_327" data-name="Rectangle 327" class="cls-20" width="24.732" height="24.732" transform="matrix(0.823, 0.568, -0.568, 0.823, 294.034, 143.26)"/>
    <rect id="Rectangle_328" data-name="Rectangle 328" class="cls-21" width="24.732" height="24.732" transform="matrix(0.823, 0.568, -0.568, 0.823, 277.057, 167.826)"/>
    <g id="Group_97" data-name="Group 97" class="cls-16" transform="translate(232.613 106.959)">
      <rect id="Rectangle_329" data-name="Rectangle 329" class="cls-22" width="119.904" height="36.798" transform="matrix(0.28, -0.96, 0.96, 0.28, 0, 115.09)"/>
    </g>
    <rect id="Rectangle_330" data-name="Rectangle 330" class="cls-18" width="34.984" height="118.292" transform="matrix(0.96, 0.28, -0.28, 0.96, 267.18, 108.073)"/>
    <rect id="Rectangle_331" data-name="Rectangle 331" class="cls-23" width="24.732" height="24.732" transform="matrix(0.96, 0.28, -0.28, 0.96, 271.588, 111.35)"/>
    <rect id="Rectangle_332" data-name="Rectangle 332" class="cls-24" width="24.732" height="24.732" transform="matrix(0.96, 0.28, -0.28, 0.96, 263.212, 140.009)"/>
    <rect id="Rectangle_333" data-name="Rectangle 333" class="cls-25" width="24.732" height="24.732" transform="matrix(0.96, 0.28, -0.28, 0.96, 254.837, 168.664)"/>
    <g id="Group_98" data-name="Group 98" class="cls-16" transform="translate(232.676 108.958)">
      <rect id="Rectangle_334" data-name="Rectangle 334" class="cls-26" width="119.904" height="36.798" transform="matrix(0.08, -0.997, 0.997, 0.08, 0, 119.518)"/>
    </g>
    <rect id="Rectangle_335" data-name="Rectangle 335" class="cls-18" width="34.984" height="118.292" transform="matrix(0.997, 0.08, -0.08, 0.997, 243.394, 109.864)"/>
    <rect id="Rectangle_336" data-name="Rectangle 336" class="cls-27" width="24.732" height="24.732" transform="matrix(0.997, 0.08, -0.08, 0.997, 248.357, 112.183)"/>
    <rect id="Rectangle_337" data-name="Rectangle 337" class="cls-28" width="24.732" height="24.732" transform="matrix(0.997, 0.08, -0.08, 0.997, 245.96, 141.938)"/>
    <rect id="Rectangle_338" data-name="Rectangle 338" class="cls-29" width="24.732" height="24.732" transform="matrix(0.997, 0.08, -0.08, 0.997, 243.567, 171.703)"/>
    <g id="Group_99" data-name="Group 99" class="cls-16" transform="translate(226.462 112.177)">
      <rect id="Rectangle_339" data-name="Rectangle 339" class="cls-30" width="36.798" height="119.904" transform="translate(0 1.676) rotate(-2.61)"/>
    </g>
    <rect id="Rectangle_340" data-name="Rectangle 340" class="cls-7" width="34.984" height="118.292" transform="translate(227.706 114.603) rotate(-2.61)"/>
    <rect id="Rectangle_341" data-name="Rectangle 341" class="cls-31" width="24.732" height="24.732" transform="translate(232.916 116.274) rotate(-2.61)"/>
    <rect id="Rectangle_342" data-name="Rectangle 342" class="cls-32" width="24.763" height="24.763" transform="translate(235.244 145.156) rotate(-2.862)"/>
    <rect id="Rectangle_343" data-name="Rectangle 343" class="cls-33" width="24.732" height="24.732" transform="translate(235.634 175.928) rotate(-2.61)"/>
    <path id="Path_253" data-name="Path 253" class="cls-34" d="M371.992,463.316,340.91,475.341,295.48,492.9c-1.717-3.205-4.245-7.537-7.372-12.707-10.761-17.831-28.564-45.567-44.417-69.941-17.858-27.475-33.231-50.659-33.231-50.659l11.127-3.205L312.483,330Z" transform="translate(-129.446 -192.823)"/>
    <path id="Path_254" data-name="Path 254" class="cls-35" d="M385.171,463.316l-31.083,12.025a233.628,233.628,0,0,1-52.815,4.854c-10.761-17.831-28.564-45.567-44.417-69.941L234.77,356.371,325.661,330Z" transform="translate(-142.625 -192.823)"/>
    <path id="Path_255" data-name="Path 255" class="cls-31" d="M403.172,440.124s-48.287,28.564-120.38,22.1L225.32,322.107l27.543-4.735,95.218-16.352L402.115,437.4Z" transform="translate(-137.502 -177.113)"/>
    <path id="Path_256" data-name="Path 256" class="cls-35" d="M434.7,437.44a228.252,228.252,0,0,1-37.759-1.076c-14.323-1.685-28.729-5.156-41.079-11.521a124.488,124.488,0,0,1-26.852-18.037c-20.024-18.01-32.416-43.772-43.543-89.393l95.218-16.352Z" transform="translate(-170.109 -177.135)"/>
    <path id="Path_257" data-name="Path 257" class="cls-18" d="M462.478,381.3s-35.593,6.969-71.823,2.679c-14.323-1.685-28.729-5.156-41.079-11.521a124.6,124.6,0,0,1-26.852-18.037c-24.782-22.3-37.869-56.465-51.364-125.468,0,0,59.171,14.282,117.683-17C389.025,211.973,408.747,335.05,462.478,381.3Z" transform="translate(-162.46 -128.829)"/>
    <path id="Path_258" data-name="Path 258" class="cls-35" d="M451.461,536.955c-14.323-1.685-28.729-5.156-41.079-11.521A124.608,124.608,0,0,1,383.53,507.4c21.1-1.713,24.132-13.247,24.132-13.247C423.3,518.973,451.461,536.955,451.461,536.955Z" transform="translate(-223.266 -281.807)"/>
    <path id="Path_259" data-name="Path 259" class="cls-33" d="M338.2,288.9s48.117-2.72,61.552-13.092l2.038,6.548S370,296.384,338.2,296.553Z" transform="translate(-198.693 -163.447)"/>
    <path id="Path_260" data-name="Path 260" class="cls-33" d="M338.2,351.853s46.588-2.551,81.787-19.553l1.191,2.72s-27.933,16.306-82.978,20.574Z" transform="translate(-198.693 -194.069)"/>
    <path id="Path_261" data-name="Path 261" class="cls-33" d="M346.39,379.363s46.588-2.551,81.783-19.553l1.191,2.72s-27.933,16.3-82.973,20.574Z" transform="translate(-203.133 -208.982)"/>
    <path id="Path_262" data-name="Path 262" class="cls-33" d="M354.57,406.913s46.588-2.551,81.787-19.553l1.186,2.72s-27.933,16.306-82.973,20.574Z" transform="translate(-207.567 -223.917)"/>
    <path id="Path_263" data-name="Path 263" class="cls-33" d="M362.76,434.463s46.588-2.551,81.783-19.553l1.19,2.72S417.8,433.936,362.76,438.2Z" transform="translate(-212.007 -238.851)"/>
    <path id="Path_264" data-name="Path 264" class="cls-33" d="M370.94,462.023s46.588-2.551,81.787-19.553l1.186,2.72s-27.933,16.3-82.973,20.574Z" transform="translate(-216.441 -253.791)"/>
    <path id="Path_265" data-name="Path 265" class="cls-31" d="M1065.869,827.21s-19.36-1.168-17.08,12.4a3.3,3.3,0,0,0,1.722,3.485s.032-1.007,1.983-.664a8.9,8.9,0,0,0,2.106.1,4.35,4.35,0,0,0,2.569-1.062h0s5.444-2.248,7.56-11.141c0,0,1.566-1.941,1.5-2.441l-3.265,1.374a5.851,5.851,0,0,1,.238,4.313s-.105-4.226-.733-4.121c-.128,0-1.7.815-1.7.815s1.919,4.121.458,7.088c0,0,.549-5.06-1.072-6.791l-2.29,1.342s2.244,4.24.724,7.7c0,0,.389-5.307-1.209-7.377l-2.083,1.626s2.111,4.181.824,7.052c0,0-.169-6.182-1.277-6.649a11.849,11.849,0,0,0-2.1,2.29s1.442,3.031.545,4.634c0,0-.549-4.121-1-4.121,0,0-1.832,2.747-2.005,4.579a9.9,9.9,0,0,1,1.566-4.859,5.5,5.5,0,0,0-2.784,1.442s.284-1.932,3.233-2.1a12.872,12.872,0,0,1,1.9-2.2,11.961,11.961,0,0,0-4.707.545s1.566-1.832,5.248-.994l2.056-1.676s-3.86-.531-5.495.055c0,0,1.882-1.612,6.049-.458l2.239-1.337a20.386,20.386,0,0,0-5.248-.458s2.065-1.117,5.907.092l1.6-.719s-2.409-.458-3.114-.549-.746-.266-.746-.266a8.306,8.306,0,0,1,4.529.5S1065.924,827.425,1065.869,827.21Z" transform="translate(-583.795 -462.341)"/>
    <ellipse id="Ellipse_149" data-name="Ellipse 149" class="cls-1" cx="13.701" cy="2.317" rx="13.701" ry="2.317" transform="translate(455.039 379.618)"/>
    <ellipse id="Ellipse_150" data-name="Ellipse 150" class="cls-1" cx="46.707" cy="4.231" rx="46.707" ry="4.231" transform="translate(325.918 369.054)"/>
    <path id="Path_266" data-name="Path 266" class="cls-31" d="M1094.49,729.413s-10.912-.659-9.616,6.992a1.864,1.864,0,0,0,.966,1.964s.023-.568,1.122-.375a5.087,5.087,0,0,0,1.186.055,2.446,2.446,0,0,0,1.447-.6h0s3.068-1.268,4.263-6.283c0,0,.884-1.094.847-1.374l-1.832.783a3.319,3.319,0,0,1,.133,2.436s-.059-2.386-.412-2.331c-.073,0-.957.458-.957.458s1.081,2.29.266,4c0,0,.311-2.853-.6-3.833l-1.3.76s1.264,2.39.407,4.341c0,0,.22-2.995-.682-4.158l-1.172.916s1.186,2.358.458,3.975c0,0-.1-3.485-.719-3.746a7.325,7.325,0,0,0-1.186,1.278s.815,1.713.311,2.615c0,0-.311-2.322-.563-2.331a7.655,7.655,0,0,0-1.131,2.587,5.606,5.606,0,0,1,.884-2.747,3.069,3.069,0,0,0-1.571.815s.16-1.09,1.832-1.181a7.3,7.3,0,0,1,1.071-1.241,6.747,6.747,0,0,0-2.656.307,2.983,2.983,0,0,1,2.958-.559l1.163-.948a9.576,9.576,0,0,0-3.1.032s1.062-.916,3.412-.247l1.264-.756a11.411,11.411,0,0,0-2.963-.252,4.524,4.524,0,0,1,3.329.05l.916-.4s-1.374-.27-1.758-.311-.421-.151-.421-.151a4.726,4.726,0,0,1,2.555.284A11.077,11.077,0,0,0,1094.49,729.413Z" transform="translate(-603.399 -409.333)"/>
    <ellipse id="Ellipse_151" data-name="Ellipse 151" class="cls-1" cx="7.725" cy="1.305" rx="7.725" ry="1.305" transform="translate(475.856 328.396)"/>
    <path id="Path_267" data-name="Path 267" class="cls-31" d="M951.411,743.91s-13.179-.8-11.622,8.439a2.248,2.248,0,0,0,1.168,2.372s0-.687,1.374-.458a6.018,6.018,0,0,0,1.433.069,2.958,2.958,0,0,0,1.749-.724h0s3.7-1.529,5.147-7.583c0,0,1.067-1.319,1.021-1.662l-2.248.952a3.975,3.975,0,0,1,.16,2.935s-.073-2.876-.5-2.812c-.087,0-1.154.559-1.154.559s1.3,2.793.32,4.826c0,0,.375-3.444-.728-4.625l-1.566.916s1.525,2.89.49,5.243c0,0,.266-3.613-.82-5.037l-1.42,1.108s1.438,2.844.559,4.8c0,0-.11-4.208-.865-4.524a8.625,8.625,0,0,0-1.429,1.543s.98,2.065.371,3.155c0,0-.376-2.8-.682-2.816a9.583,9.583,0,0,0-1.374,3.128,6.764,6.764,0,0,1,1.067-3.306,3.708,3.708,0,0,0-1.891.984s.192-1.314,2.2-1.429a8.449,8.449,0,0,1,1.3-1.493,8.114,8.114,0,0,0-3.205.366s1.062-1.236,3.567-.673l1.4-1.145a11.651,11.651,0,0,0-3.741.037s1.282-1.094,4.121-.293l1.525-.916a13.861,13.861,0,0,0-3.576-.307s1.41-.76,4.02.064l1.09-.49s-1.639-.321-2.12-.371-.5-.183-.5-.183a5.659,5.659,0,0,1,3.082.339A14.134,14.134,0,0,0,951.411,743.91Z" transform="translate(-524.739 -417.189)"/>
    <ellipse id="Ellipse_152" data-name="Ellipse 152" class="cls-1" cx="9.328" cy="1.575" rx="9.328" ry="1.575" transform="translate(408.268 336.762)"/>
    <ellipse id="Ellipse_153" data-name="Ellipse 153" class="cls-1" cx="13.701" cy="2.317" rx="13.701" ry="2.317" transform="translate(11.324 372.713)"/>
    <path id="Path_268" data-name="Path 268" class="cls-36" d="M68.1,820.933s7.812-.238,10.17-1.914,12.02-3.663,12.606-.994,11.745,13.38,2.921,13.453-20.5-1.374-22.854-2.807S68.1,820.933,68.1,820.933Z" transform="translate(-52.275 -456.669)"/>
    <path id="Path_269" data-name="Path 269" class="cls-37" d="M93.943,835.516c-8.824.073-20.5-1.374-22.854-2.807-1.786-1.09-2.5-5-2.747-6.809H68.08s.495,6.306,2.844,7.739,14.062,2.885,22.863,2.839c2.546-.023,3.425-.916,3.379-2.29C96.809,834.994,95.839,835.5,93.943,835.516Z" transform="translate(-52.264 -461.645)"/>
    <rect id="Rectangle_344" data-name="Rectangle 344" class="cls-38" width="78.152" height="139.855" transform="matrix(0.309, -0.951, 0.951, 0.309, 361.615, 74.324)"/>
    <rect id="Rectangle_345" data-name="Rectangle 345" class="cls-39" width="77.075" height="137.923" transform="matrix(0.309, -0.951, 0.951, 0.309, 362.7, 74.114)"/>
    <g id="Group_100" data-name="Group 100" class="cls-40" transform="translate(386.284 27.022)">
      <circle id="Ellipse_154" data-name="Ellipse 154" class="cls-31" cx="14.36" cy="14.36" r="14.36"/>
    </g>
    <g id="Group_101" data-name="Group 101" class="cls-40" transform="translate(435 35.058)">
      <rect id="Rectangle_346" data-name="Rectangle 346" class="cls-31" width="3.933" height="62.564" transform="matrix(0.309, -0.951, 0.951, 0.309, 0, 3.741)"/>
    </g>
    <g id="Group_102" data-name="Group 102" class="cls-40" transform="translate(431.899 44.595)">
      <rect id="Rectangle_347" data-name="Rectangle 347" class="cls-31" width="3.933" height="31.871" transform="matrix(0.309, -0.951, 0.951, 0.309, 0, 3.741)"/>
    </g>
    <g id="Group_103" data-name="Group 103" class="cls-40" transform="translate(428.793 54.138)">
      <rect id="Rectangle_348" data-name="Rectangle 348" class="cls-31" width="3.933" height="51.547" transform="matrix(0.309, -0.951, 0.951, 0.309, 0, 3.741)"/>
    </g>
    <g id="Group_104" data-name="Group 104" class="cls-40" transform="translate(425.693 63.678)">
      <rect id="Rectangle_349" data-name="Rectangle 349" class="cls-31" width="3.933" height="62.564" transform="matrix(0.309, -0.951, 0.951, 0.309, 0, 3.741)"/>
    </g>
    <g id="Group_105" data-name="Group 105" class="cls-16" transform="translate(463.114 91.443)">
      <rect id="Rectangle_350" data-name="Rectangle 350" class="cls-31" width="7.606" height="17.314" transform="matrix(0.309, -0.951, 0.951, 0.309, 0, 7.233)"/>
    </g>
    <path id="Path_270" data-name="Path 270" class="cls-41" d="M856.087,466.759a4.141,4.141,0,0,0-.046-.458,2.33,2.33,0,0,0-.078-.458c-.06-.311-.124-.618-.2-.916-.037-.142-.073-.288-.115-.426a11.608,11.608,0,0,0-2.289-4.428c-.06-.073-.124-.142-.183-.211s-.247-.266-.371-.389-.238-.234-.357-.339-.229-.2-.339-.293c-.22-.179-.426-.33-.6-.458a3.745,3.745,0,0,0-.371-.238,2.033,2.033,0,0,0-.861-.279l-1.9-.188h0l-2.6-.256-9.282-3.6-.366.128a21.086,21.086,0,0,1-.687-2.29,2.051,2.051,0,0,0,.733-.536,1.67,1.67,0,0,0,.5-.646c.234-.54-.215-1.69-.124-2.349a11.083,11.083,0,0,1,1.145-3.036,14.082,14.082,0,0,0,1.534-6.544,7.38,7.38,0,0,0-3.05-5.806c-.984-.655-2.143-1-3.169-1.6-.8-.458-1.5-1.072-2.258-1.594a12.977,12.977,0,0,0-12.785-.916,62.352,62.352,0,0,0-5.39,3.508,9.1,9.1,0,0,1-6.09,1.676,1.482,1.482,0,0,0-.064.266l-.179-.023c-.366,1,.531,1.987,1.374,2.67,1.571,1.3,3.352,2.587,5.4,2.633a5.671,5.671,0,0,1,2.349.174,2.152,2.152,0,0,1,.458.275,10.2,10.2,0,0,0,3.205,10.17l-4.739-1.7s-.2.1-.5.293l-6.576-4.378s-13.183-4.781-16.847,2.665,15.876,3.6,15.876,3.6l4.181,2.29a3.805,3.805,0,0,0,.458,2.509l11.4,7.043a60.2,60.2,0,0,1-6.759,1.832c-.975,0-3.663.962-5.371,4.8s-7.817,22.584-13.188,25.707-19.534,24.027-19.534,24.027l.064.165c-.252.069-.5.137-.742.22a15.011,15.011,0,0,0-7.359,5.55,2.354,2.354,0,0,0,1.648,3.714c5.591.71,8.645-1.868,10.115-3.814.1-.124.183-.247.266-.371a1.956,1.956,0,0,0,1.374.064l6.837-5.527s-5.348,5.266-2.212,10.074l-.238.334A76.429,76.429,0,0,0,775.738,554s-2.931,2.161-3.173,10.811-3.178,22.584-3.178,22.584-1.951,16.581-.733,21.622c0,0,.142.2.4.508-.092.11-.192.229-.3.348-1.067,1.154-2.99,2.747-5.229,2.289-3.416-.724-3.416,5.284,1.465,5.765a130.155,130.155,0,0,1,13.334,2.674,2.807,2.807,0,0,0,3.48-2.995A25.355,25.355,0,0,0,780.339,611c-.05-.115-.1-.229-.151-.334.142-.137.288-.275.431-.421,0,0,0-10.573,1.713-13.453,0,0,4.639-21.865,4.391-27.392-.188-4.323,12.039-21.16,17.359-28.271l-.046-.27c1.374-1.832,2.225-2.931,2.225-2.931l4.117,26.192s1.955,5.765,4.4,8.888c0,0,10.5,19.942,11.723,26.188a19.7,19.7,0,0,0,3.7,8.618l-.316.3a5.345,5.345,0,0,1-4.607,1.653c-3.416-.724-3.416,5.284,1.465,5.765a131.169,131.169,0,0,1,13.33,2.679,2.811,2.811,0,0,0,3.485-3c-.279-2.5-.824-5.609-1.877-7.446a5.159,5.159,0,0,0-.279-.458,2.576,2.576,0,0,0,.971-.682s-6.351-15.138-6.351-19.232c0,0-2.683-15.615-11.718-21.38,0,0,.852-19.534,3.425-30.405.064-.266.128-.531.192-.788a72.45,72.45,0,0,0,7.125-1.484l.243-7.208,1.223,5.765,13.673-8.407s-.119-1.516-.348-3.837c-.119-1.163-.261-2.528-.43-4.007-.137-1.181-.293-2.436-.458-3.718-.046-.321-.087-.646-.133-.966-.179-1.3-.375-2.606-.586-3.888q-.124-.723-.247-1.429c-.114-.627-.229-1.241-.348-1.832-.059-.3-.124-.6-.183-.884s-.128-.577-.192-.856-.128-.549-.192-.82c-.037-.133-.069-.266-.1-.394-.069-.261-.137-.517-.206-.765a13.736,13.736,0,0,1-.495-3.15v-1.268a9.077,9.077,0,0,1,.124-1.264c.027-.206.064-.417.105-.623a13.971,13.971,0,0,1,.692-2.454c.151-.4.325-.792.513-1.181.458-.916.916-1.891,1.4-2.931.247-.517.495-1.049.742-1.589s.5-1.09.751-1.649c2.377-5.3,4.721-11.2,5.348-15.079.064-.408.115-.792.137-1.154A7.368,7.368,0,0,0,856.087,466.759Z" transform="translate(-427.955 -245.606)"/>
    <path id="Path_271" data-name="Path 271" class="cls-42" d="M850.032,473.774l-8.055-5.445s-12.789-4.739-16.343,2.605,15.4,3.553,15.4,3.553l8.055,4.5Z" transform="translate(-462.686 -266.994)"/>
    <rect id="Rectangle_351" data-name="Rectangle 351" class="cls-18" width="77.041" height="119.932" transform="matrix(0.541, -0.841, 0.841, 0.541, 299.96, 251.954)"/>
    <rect id="Rectangle_352" data-name="Rectangle 352" class="cls-15" width="21.797" height="5.129" transform="matrix(0.536, -0.844, 0.844, 0.536, 314.91, 247.433)"/>
    <rect id="Rectangle_353" data-name="Rectangle 353" class="cls-15" width="47.87" height="4.703" transform="matrix(0.536, -0.844, 0.844, 0.536, 328.746, 251.16)"/>
    <rect id="Rectangle_354" data-name="Rectangle 354" class="cls-15" width="47.87" height="4.703" transform="matrix(0.536, -0.844, 0.844, 0.536, 337.226, 256.542)"/>
    <rect id="Rectangle_355" data-name="Rectangle 355" class="cls-15" width="47.87" height="4.703" transform="matrix(0.536, -0.844, 0.844, 0.536, 345.703, 261.933)"/>
    <rect id="Rectangle_356" data-name="Rectangle 356" class="cls-15" width="47.803" height="4.696" transform="matrix(0.541, -0.841, 0.841, 0.541, 354.474, 269.745)"/>
    <rect id="Rectangle_357" data-name="Rectangle 357" class="cls-7" width="47.87" height="4.703" transform="matrix(0.536, -0.844, 0.844, 0.536, 362.658, 272.705)"/>
    <rect id="Rectangle_358" data-name="Rectangle 358" class="cls-7" width="47.87" height="4.703" transform="matrix(0.536, -0.844, 0.844, 0.536, 371.138, 278.088)"/>
    <rect id="Rectangle_359" data-name="Rectangle 359" class="cls-15" width="12.396" height="12.396" transform="matrix(0.536, -0.844, 0.844, 0.536, 406.736, 255.135)"/>
    <path id="Path_272" data-name="Path 272" class="cls-43" d="M911.715,829.99a125.8,125.8,0,0,0-12.931-2.638c-4.739-.458-4.739-6.411-1.42-5.687a5.13,5.13,0,0,0,4.465-1.626,10.46,10.46,0,0,0,.916-1,2.747,2.747,0,0,1,1.534-.939c1.777-.385,5.495-.971,7.743.252a3.347,3.347,0,0,1,1.227,1.346c1.021,1.832,1.552,4.877,1.832,7.327a2.748,2.748,0,0,1-3.366,2.967Z" transform="translate(-500.544 -457.154)"/>
    <path id="Path_273" data-name="Path 273" class="cls-43" d="M780.85,835.183a125.462,125.462,0,0,0-12.927-2.638c-4.739-.458-4.739-6.411-1.424-5.683,2.171.458,4.039-1.1,5.069-2.239.128-.137.243-.27.339-.394a2.748,2.748,0,0,1,1.53-.916c1.777-.389,5.495-.975,7.748.252a4.191,4.191,0,0,1,1.626,2.166,25.641,25.641,0,0,1,1.419,6.516,2.747,2.747,0,0,1-3.379,2.935Z" transform="translate(-429.605 -459.979)"/>
    <path id="Path_274" data-name="Path 274" class="cls-35" d="M791.572,825.714c-5.655,5.829-10.5-.11-11.242-1.09.128-.137.243-.27.339-.394a2.748,2.748,0,0,1,1.529-.916c1.777-.389,5.495-.975,7.748.252A3.954,3.954,0,0,1,791.572,825.714Z" transform="translate(-438.367 -459.979)"/>
    <path id="Path_275" data-name="Path 275" class="cls-35" d="M921.323,819.7c-2.45,1.671-10.7,1.259-10.7,1.259a7.728,7.728,0,0,1-.747-.916,10.46,10.46,0,0,0,.916-1,2.748,2.748,0,0,1,1.534-.939c1.777-.385,5.495-.971,7.743.252A3.347,3.347,0,0,1,921.323,819.7Z" transform="translate(-508.595 -457.154)"/>
    <path id="Path_276" data-name="Path 276" class="cls-44" d="M850.96,725.568c-1.662,2.134-11.132,1.658-11.132,1.658s-2.844-2.844-4.03-9-11.37-25.817-11.37-25.817c-2.367-3.082-4.263-8.764-4.263-8.764l-4.025-25.817s-19.42,25.579-19.182,31.028-4.268,27.017-4.268,27.017c-1.658,2.844-1.658,13.279-1.658,13.279-6.154,6.411-11.365-1.186-11.365-1.186-1.186-4.973.71-21.316.71-21.316s2.844-13.737,3.077-22.264,3.082-10.656,3.082-10.656a75.957,75.957,0,0,1,11.123-24.571c1.429-2.047,2.377-3.141,2.377-3.141l38.368,4.5a24.156,24.156,0,0,0-1.648,5.083c-2.5,10.715-3.324,29.97-3.324,29.97,8.764,5.683,11.37,21.064,11.37,21.064C844.8,710.645,850.96,725.568,850.96,725.568Z" transform="translate(-437.797 -364.134)"/>
    <g id="Group_106" data-name="Group 106" class="cls-14" transform="translate(346.927 281.877)">
      <path id="Path_277" data-name="Path 277" d="M820.476,674.965l-.495-3.155s-19.42,25.579-19.182,31.028-4.263,27.017-4.263,27.017c-1.662,2.844-1.662,13.279-1.662,13.279a8.1,8.1,0,0,1-3.7,2.377c1.864.49,4.121.128,6.548-2.377,0,0,0-10.422,1.658-13.279,0,0,4.5-21.554,4.263-27.017C803.456,698.575,815.311,681.971,820.476,674.965Z" transform="translate(-791.17 -659.991)"/>
      <path id="Path_278" data-name="Path 278" d="M869.587,706.609s-2.606-15.395-11.365-21.064c0,0,.829-19.255,3.32-29.97a24.129,24.129,0,0,1,1.653-5.083L824.826,646s-.092.1-.256.3l35.781,4.2a24.161,24.161,0,0,0-1.648,5.083c-2.5,10.715-3.325,29.97-3.325,29.97,8.764,5.683,11.37,21.064,11.37,21.064,0,4.025,6.159,18.948,6.159,18.948-.98,1.255-4.671,1.607-7.542,1.685,2.29.059,9.007.082,10.381-1.685C875.746,725.557,869.587,710.634,869.587,706.609Z" transform="translate(-809.276 -646)"/>
    </g>
    <path id="Path_279" data-name="Path 279" class="cls-42" d="M793.742,633.913a8.652,8.652,0,0,1-1.122,1.96c-1.424,1.919-4.387,4.456-9.808,3.76a2.331,2.331,0,0,1-1.6-3.663,14.593,14.593,0,0,1,7.139-5.495,13.032,13.032,0,0,1,3.027-.614Z" transform="translate(-438.609 -355.374)"/>
    <path id="Path_280" data-name="Path 280" class="cls-45" d="M891.333,485.826l-18.994-6.946s-5.449,2.844-3.315,6.869l18.495,11.608Z" transform="translate(-486.178 -273.529)"/>
    <path id="Path_281" data-name="Path 281" class="cls-35" d="M891.487,486l-19-6.947s-5.449,2.839-3.315,6.869l18.472,11.6Z" transform="translate(-486.26 -273.621)"/>
    <path id="Path_282" data-name="Path 282" class="cls-42" d="M907.715,468.5s-.238,11.132,4.739,14.923S898,489.341,898,489.341s3.082-11.37,0-17.291S907.715,468.5,907.715,468.5Z" transform="translate(-501.897 -267.647)"/>
    <path id="Path_283" data-name="Path 283" class="cls-35" d="M860.165,650.451a24.163,24.163,0,0,0-1.648,5.083c-22.9,3.5-38.854-6.031-38.854-6.031-.087-.137-.169-.275-.243-.412,1.429-2.047,2.376-3.141,2.376-3.141Z" transform="translate(-459.557 -364.096)"/>
    <path id="Path_284" data-name="Path 284" class="cls-35" d="M802.7,633.94a8.651,8.651,0,0,1-1.122,1.96c-2.193-.366-3.947-4.579-4.272-5.376a13.038,13.038,0,0,1,3.027-.614Z" transform="translate(-447.572 -355.401)"/>
    <path id="Path_285" data-name="Path 285" class="cls-45" d="M856.067,490.78l-8.526,3.077-3.553,4.739s-7.327,2.367-8.288,2.367-3.553.948-5.211,4.735-7.579,22.273-12.789,25.345-18.948,23.683-18.948,23.683,2.367,6.411,5.211,5.449l6.63-5.449s-5.211,5.211-2.134,9.95c0,0,19.425,11.6,46.189,4.5l.234-7.1,1.186,5.683,13.279-8.288s-1.186-15.29-3.324-23.07a14.067,14.067,0,0,1,.916-9.8c3.439-7.166,8.746-19.136,8.1-23.5-.765-5.142-3.663-7.377-4.781-8.05a1.978,1.978,0,0,0-.833-.279l-4.336-.43Z" transform="translate(-448.352 -279.98)"/>
    <path id="Path_286" data-name="Path 286" class="cls-6" d="M857.058,542.76s-4.739,22.026-9.95,25.579-19.182,14.923-19.658,16.819" transform="translate(-463.91 -308.158)"/>
    <path id="Path_287" data-name="Path 287" class="cls-45" d="M852.4,541.21s-4.735,22.025-9.946,25.579S823.272,581.712,822.8,583.6" transform="translate(-461.39 -307.317)"/>
    <path id="Path_288" data-name="Path 288" class="cls-35" d="M897.28,502.54s16.343-5.449,21.064-4.03" transform="translate(-501.764 -284.043)"/>
    <g id="Group_107" data-name="Group 107" class="cls-14" transform="translate(406.913 210.8)">
      <path id="Path_289" data-name="Path 289" d="M934.443,531.1c3.439-7.166,8.746-19.136,8.1-23.5-.765-5.142-3.663-7.377-4.781-8.05a1.976,1.976,0,0,0-.833-.279l-1.832-.183a1.831,1.831,0,0,1,.55.224c1.108.678,4.016,2.908,4.776,8.055.646,4.359-4.661,16.334-8.1,23.5a14.057,14.057,0,0,0-.916,9.8c2.143,7.784,3.329,23.07,3.329,23.07l-11.42,7.139.289,1.374,13.279-8.288s-1.186-15.29-3.324-23.07A14.067,14.067,0,0,1,934.443,531.1Z" transform="translate(-922.793 -495.285)"/>
      <path id="Path_290" data-name="Path 290" d="M896.3,463.665l2.052.206-8.92-3.521-.8.288Z" transform="translate(-888.63 -460.35)"/>
    </g>
    <path id="Path_291" data-name="Path 291" class="cls-6" d="M887.45,587.455s7.326-4.025,9.712-3.077,11.132-.238,11.132-.238" transform="translate(-496.436 -330.589)"/>
    <path id="Path_292" data-name="Path 292" class="cls-6" d="M906.918,472.581c-.27-2.377.829-2.015.829-2.015s-12.789-2.367-9.712,3.553a13.563,13.563,0,0,1,1.3,5.206h.124C903.012,479.331,905.086,475.356,906.918,472.581Z" transform="translate(-501.914 -268.769)"/>
    <circle id="Ellipse_155" data-name="Ellipse 155" class="cls-42" cx="10.184" cy="10.184" r="10.184" transform="translate(387.346 189.246)"/>
    <path id="Path_293" data-name="Path 293" class="cls-35" d="M890.071,451.839a14.2,14.2,0,0,0,1.488-6.452,7.317,7.317,0,0,0-2.958-5.728c-.953-.641-2.079-.984-3.073-1.571-.774-.458-1.456-1.058-2.193-1.571a12.414,12.414,0,0,0-12.4-.916,56.979,56.979,0,0,0-5.224,3.462,8.754,8.754,0,0,1-5.907,1.653c-.357.985.517,1.955,1.319,2.633,1.525,1.278,3.251,2.551,5.239,2.592a5.482,5.482,0,0,1,2.29.174,3.283,3.283,0,0,1,1.163,1.081,21.327,21.327,0,0,1,2.418,4.1,3.4,3.4,0,0,0,1.081,1.594c.916.586,2.1.1,3.205.055,1.685-.069,3.205.994,4.451,2.129a13.588,13.588,0,0,0,4.011,3.036c1.177.458,3.531.43,4.121-.975.224-.531-.211-1.667-.119-2.317a11.209,11.209,0,0,1,1.09-2.976Z" transform="translate(-481.404 -249.396)"/>
    <path id="Path_294" data-name="Path 294" class="cls-45" d="M890.536,451.309a14.134,14.134,0,0,0,1.488-6.447,7.325,7.325,0,0,0-2.954-5.728c-.957-.646-2.083-.989-3.073-1.575-.774-.458-1.456-1.053-2.193-1.571a12.414,12.414,0,0,0-12.4-.916,56.956,56.956,0,0,0-5.225,3.457,8.73,8.73,0,0,1-5.907,1.653c-.357.989.513,1.96,1.319,2.633,1.525,1.278,3.251,2.551,5.239,2.6a5.408,5.408,0,0,1,2.29.174,3.205,3.205,0,0,1,1.163,1.081,21.066,21.066,0,0,1,2.413,4.094,3.405,3.405,0,0,0,1.085,1.594c.916.586,2.1.1,3.205.055,1.685-.064,3.205,1,4.446,2.134a13.477,13.477,0,0,0,4.016,3.031c1.177.458,3.531.43,4.121-.975.229-.531-.206-1.667-.115-2.317A11.2,11.2,0,0,1,890.536,451.309Z" transform="translate(-481.658 -249.109)"/>
    <path id="Path_295" data-name="Path 295" class="cls-35" d="M517.962,597.233a4.721,4.721,0,0,1-3.031,1.071l-204.581-.87a6.3,6.3,0,0,1-1.406-4.794l20.212-165.383,12.675-.137a4.79,4.79,0,0,1,4.671,3.535l2.367,8.737a4.79,4.79,0,0,0,4.735,3.535l50.585-1.213a4.79,4.79,0,0,0,4.675-4.79v-5.788a4.79,4.79,0,0,1,4.735-4.79l70.1-.756a4.79,4.79,0,0,1,4.749,3.888l31,162.1.2,1.044A4.762,4.762,0,0,1,517.962,597.233Z" transform="translate(-182.808 -244.641)"/>
    <path id="Path_296" data-name="Path 296" class="cls-46" d="M432.074,430.6l-70.1.756a4.79,4.79,0,0,0-4.739,4.785v5.793a4.79,4.79,0,0,1-4.671,4.785l-50.581,1.213a4.785,4.785,0,0,1-4.739-3.535l-2.377-8.732a4.785,4.785,0,0,0-4.675-3.535l-67.565.728a4.785,4.785,0,0,0-4.671,5.586l27.182,159.976a4.79,4.79,0,0,0,4.7,3.988l213.45.916a4.79,4.79,0,0,0,4.721-5.687L436.823,434.487A4.785,4.785,0,0,0,432.074,430.6Z" transform="translate(-133.475 -247.357)"/>
    <path id="Path_297" data-name="Path 297" class="cls-4" d="M876,171.175l-.366,4.075.266,7.208-.774,12.158s-.11,5.326-3.118,7.821l-7.679,11.791-.046.023-2.889,1.41-4.41.458-2.289-5.545,1.516-6.09.843-1.136.234-.256c.916-1.007,4.451-4.666,7.258-5.806a3.973,3.973,0,0,0,1.543-3.526c-.33-2.152,2.528-13.591,2.528-13.591s1.832-7.565,1.433-8.3-.073-17.483,6.246-17.739S876,171.175,876,171.175Z" transform="translate(-478.677 -97.482)"/>
    <ellipse id="Ellipse_156" data-name="Ellipse 156" class="cls-1" cx="7.423" cy="1.021" rx="7.423" ry="1.021" transform="translate(61.919 319.92)"/>
    <ellipse id="Ellipse_157" data-name="Ellipse 157" class="cls-1" cx="7.423" cy="1.021" rx="7.423" ry="1.021" transform="translate(33.487 322.801)"/>
    <ellipse id="Ellipse_158" data-name="Ellipse 158" class="cls-1" cx="7.423" cy="1.021" rx="7.423" ry="1.021" transform="translate(0 318.899)"/>
    <ellipse id="Ellipse_159" data-name="Ellipse 159" class="cls-1" cx="5.275" cy="0.723" rx="5.275" ry="0.723" transform="translate(47.014 331.309)"/>
    <ellipse id="Ellipse_160" data-name="Ellipse 160" class="cls-1" cx="5.275" cy="0.723" rx="5.275" ry="0.723" transform="translate(17.506 330.585)"/>
    <path id="Path_298" data-name="Path 298" class="cls-31" d="M85.114,670.391s10.408-34.123-1.63-47.792c-9.007-10.225-19.232-9-23.811-7.739a8.467,8.467,0,0,0-5.458,4.538c-1.6,3.453-1.314,9.058,9.987,15.6,18.916,10.953,20.093,25.977,20.093,25.977Z" transform="translate(-44.364 -346.793)"/>
    <path id="Path_299" data-name="Path 299" class="cls-47" d="M70.54,626.41s30.68,9.616,23.811,50.691" transform="translate(-53.597 -353.503)"/>
    <path id="Path_300" data-name="Path 300" class="cls-47" d="M105.957,633.92s-4.227,2.848-2.88,7.13" transform="translate(-71.092 -357.574)"/>
    <path id="Path_301" data-name="Path 301" class="cls-47" d="M77.26,637.549s2.583-2.628,5.728-1.177" transform="translate(-57.24 -358.667)"/>
    <path id="Path_302" data-name="Path 302" class="cls-47" d="M103.75,667.3s4.538-2.29,5.71.581" transform="translate(-71.6 -375.198)"/>
    <path id="Path_303" data-name="Path 303" class="cls-47" d="M124.156,678.77s-3.407-.27-3.466,1.374" transform="translate(-80.783 -381.878)"/>
    <path id="Path_304" data-name="Path 304" class="cls-31" d="M101.673,708.959s-12.194-24.8-15.541-24.269c-1.589.261-2.322,1.832-2.656,3.4a9.978,9.978,0,0,0,.664,6.035C85.87,698.107,90.518,705.64,101.673,708.959Z" transform="translate(-60.502 -385.092)"/>
    <path id="Path_305" data-name="Path 305" class="cls-47" d="M89.71,695s12.794,18.554,15.267,19.37" transform="translate(-63.989 -390.685)"/>
    <line id="Line_60" data-name="Line 60" class="cls-47" x2="2.986" transform="translate(24.544 307.213)"/>
    <line id="Line_61" data-name="Line 61" class="cls-47" x2="4.684" y2="0.201" transform="translate(28.12 314)"/>
    <line id="Line_62" data-name="Line 62" class="cls-47" x1="0.508" y2="2.441" transform="translate(30.465 308.569)"/>
    <line id="Line_63" data-name="Line 63" class="cls-47" x1="0.092" y2="2.216" transform="translate(35.859 315.992)"/>
    <path id="Path_306" data-name="Path 306" class="cls-31" d="M122.66,708.959s12.19-24.8,15.537-24.269c1.594.261,2.326,1.832,2.656,3.4a9.978,9.978,0,0,1-.664,6.035C138.458,698.107,133.806,705.64,122.66,708.959Z" transform="translate(-81.851 -385.092)"/>
    <path id="Path_307" data-name="Path 307" class="cls-47" d="M138.321,695S125.5,713.555,123.05,714.37" transform="translate(-82.062 -390.685)"/>
    <line id="Line_64" data-name="Line 64" class="cls-47" x1="2.986" transform="translate(54.45 307.213)"/>
    <line id="Line_65" data-name="Line 65" class="cls-47" x1="4.684" y2="0.201" transform="translate(49.175 314)"/>
    <line id="Line_66" data-name="Line 66" class="cls-47" x2="0.508" y2="2.441" transform="translate(51.007 308.569)"/>
    <line id="Line_67" data-name="Line 67" class="cls-47" x2="0.092" y2="2.216" transform="translate(46.029 315.992)"/>
    <path id="Path_308" data-name="Path 308" class="cls-31" d="M76.083,746.362a2.106,2.106,0,0,1-.691-1.049.916.916,0,0,1,.485-1.067,1.346,1.346,0,0,1,1.282.458,1.638,1.638,0,0,0,1.241.582,1.9,1.9,0,0,1-.586-1.777.723.723,0,0,1,.16-.362c.247-.266.7-.151.994.059a3.759,3.759,0,0,1,1.209,3.091,5.908,5.908,0,0,0,0-1.273,1.305,1.305,0,0,1,.513-1.113,1.429,1.429,0,0,1,.728-.174,1.511,1.511,0,0,1,1.186.339,1.177,1.177,0,0,1-.046,1.452,4.67,4.67,0,0,1-1.227.98,2.746,2.746,0,0,0-.875.838.612.612,0,0,0-.064.146H77.727A7.392,7.392,0,0,1,76.083,746.362Z" transform="translate(-56.209 -416.701)"/>
    <path id="Path_309" data-name="Path 309" class="cls-31" d="M177.532,724.574a2.074,2.074,0,0,1-.691-1.044.916.916,0,0,1,.481-1.067,1.346,1.346,0,0,1,1.282.458,1.688,1.688,0,0,0,1.25.6,1.9,1.9,0,0,1-.591-1.772.728.728,0,0,1,.165-.362c.247-.266.7-.151.994.055a3.706,3.706,0,0,1,1.209,3.1,5.954,5.954,0,0,0,0-1.278,1.31,1.31,0,0,1,.458-1.126,1.46,1.46,0,0,1,.728-.169A1.529,1.529,0,0,1,184,722.3a1.177,1.177,0,0,1-.05,1.456,4.579,4.579,0,0,1-1.223.98,2.719,2.719,0,0,0-.875.833.748.748,0,0,0-.064.151h-2.606A7.326,7.326,0,0,1,177.532,724.574Z" transform="translate(-111.204 -404.905)"/>
    <path id="Path_310" data-name="Path 310" class="cls-31" d="M143.717,746.389a2.148,2.148,0,0,1-.7-1.049.916.916,0,0,1,.485-1.067,1.345,1.345,0,0,1,1.282.458,1.7,1.7,0,0,0,1.25.6,1.91,1.91,0,0,1-.591-1.777.728.728,0,0,1,.165-.362c.247-.266.7-.151.994.06a3.7,3.7,0,0,1,1.209,3.091,5.91,5.91,0,0,0,0-1.273,1.31,1.31,0,0,1,.481-1.126,1.416,1.416,0,0,1,.728-.174,1.516,1.516,0,0,1,1.186.339,1.172,1.172,0,0,1-.05,1.452,4.649,4.649,0,0,1-1.223.98,2.748,2.748,0,0,0-.875.838.613.613,0,0,0-.064.147h-2.656a7.468,7.468,0,0,1-1.626-1.14Z" transform="translate(-92.871 -416.729)"/>
    <path id="Path_311" data-name="Path 311" class="cls-31" d="M46.044,706.25s-.994,1.3.458,3.265,2.651,3.622,2.166,4.845c0,0-2.193-3.663-3.979-3.7S44.079,708.425,46.044,706.25Z" transform="translate(-39.107 -396.784)"/>
    <path id="Path_312" data-name="Path 312" class="cls-35" d="M46.048,706.25a1.639,1.639,0,0,0-.2.408c-1.74,2.047-2.67,3.956-.994,4.007,1.557.046,3.43,2.83,3.874,3.535a1.641,1.641,0,0,1-.05.16s-2.193-3.663-3.979-3.7S44.083,708.425,46.048,706.25Z" transform="translate(-39.111 -396.784)"/>
    <path id="Path_313" data-name="Path 313" class="cls-48" d="M44.66,709.523c0,.458.05.829.114.829s.114-.371.114-.829-.064-.243-.128-.243S44.66,709.065,44.66,709.523Z" transform="translate(-39.568 -398.399)"/>
    <path id="Path_314" data-name="Path 314" class="cls-48" d="M42.979,710.7c.4.22.751.348.783.293s-.27-.275-.673-.495-.243-.06-.275,0S42.576,710.479,42.979,710.7Z" transform="translate(-38.523 -399.025)"/>
    <path id="Path_315" data-name="Path 315" class="cls-31" d="M56.924,706.25s1,1.3-.458,3.265-2.651,3.622-2.166,4.845c0,0,2.193-3.663,3.979-3.7S58.888,708.425,56.924,706.25Z" transform="translate(-44.734 -396.784)"/>
    <path id="Path_316" data-name="Path 316" class="cls-35" d="M56.989,706.25a1.735,1.735,0,0,1,.206.408c1.74,2.047,2.67,3.956.994,4.007-1.557.046-3.43,2.83-3.879,3.535a.946.946,0,0,0,.055.16s2.193-3.663,3.979-3.7S58.953,708.425,56.989,706.25Z" transform="translate(-44.799 -396.784)"/>
    <path id="Path_317" data-name="Path 317" class="cls-48" d="M63.929,709.523c0,.458-.05.829-.114.829s-.114-.371-.114-.829.064-.243.128-.243S63.929,709.065,63.929,709.523Z" transform="translate(-49.889 -398.399)"/>
    <path id="Path_318" data-name="Path 318" class="cls-48" d="M64.661,710.7c-.4.22-.756.348-.783.293s.27-.275.673-.495.243-.06.27,0S65.059,710.479,64.661,710.7Z" transform="translate(-49.985 -399.025)"/>
    <path id="Path_319" data-name="Path 319" class="cls-36" d="M51.261,721.812s-2.78-.087-3.617-.682-4.277-1.31-4.488-.353-4.176,4.762-1.039,4.785,7.295-.49,8.132-1S51.261,721.812,51.261,721.812Z" transform="translate(-37.537 -404.405)"/>
    <path id="Path_320" data-name="Path 320" class="cls-37" d="M42.064,727c3.141.027,7.295-.485,8.132-1,.636-.385.888-1.777.975-2.422h.092s-.174,2.244-1.012,2.748-4.991,1.026-8.132,1c-.916,0-1.218-.33-1.2-.806C41.043,726.817,41.414,726.978,42.064,727Z" transform="translate(-37.54 -406.178)"/>
    <circle id="Ellipse_161" data-name="Ellipse 161" class="cls-1" cx="9.905" cy="9.905" r="9.905" transform="translate(5.637 48.118)"/>
    <circle id="Ellipse_162" data-name="Ellipse 162" class="cls-1" cx="9.905" cy="9.905" r="9.905" transform="translate(481.905 127.268)"/>
    <circle id="Ellipse_163" data-name="Ellipse 163" class="cls-1" cx="9.905" cy="9.905" r="9.905" transform="translate(303.86 16.665)"/>
    <circle id="Ellipse_164" data-name="Ellipse 164" class="cls-1" cx="16.599" cy="16.599" r="16.599" transform="translate(18.751 96.066)"/>
    <path id="Path_321" data-name="Path 321" class="cls-39" d="M462.811,610.964l-.586-.586a.627.627,0,0,1,0-.916l5.142-5.147a.627.627,0,0,1,.916,0l5.142,5.142a.637.637,0,0,1,0,.916l-.586.586a.636.636,0,0,1-.916,0l-3.041-3.205v7.606a.632.632,0,0,1-.632.636H467.4a.636.636,0,0,1-.637-.636v-7.6l-3.04,3.205a.637.637,0,0,1-.916,0Z" transform="translate(-265.818 -341.418)"/>
    <path id="Path_322" data-name="Path 322" class="cls-39" d="M460.689,592.714a10.436,10.436,0,1,1-10.436,10.436,10.436,10.436,0,0,1,10.436-10.436m0-1.374a11.81,11.81,0,1,0,11.81,11.81A11.81,11.81,0,0,0,460.689,591.34Z" transform="translate(-258.691 -334.492)"/>
  </g>
</svg>
