<svg xmlns="http://www.w3.org/2000/svg" xmlns:xlink="http://www.w3.org/1999/xlink" width="451.838" height="376.052" viewBox="0 0 451.838 376.052">
  <defs>
    <style>
      .cls-1 {
        opacity: 0.7;
      }

      .cls-2 {
        fill: url(#linear-gradient);
      }

      .cls-24, .cls-3 {
        fill: #535461;
      }

      .cls-26, .cls-4 {
        opacity: 0.1;
      }

      .cls-5 {
        fill: #e0e0e0;
      }

      .cls-6 {
        fill: url(#linear-gradient-2);
      }

      .cls-7 {
        fill: url(#linear-gradient-3);
      }

      .cls-8 {
        fill: #eee;
      }

      .cls-22, .cls-9 {
        fill: #0874d9;
      }

      .cls-10 {
        fill: url(#linear-gradient-6);
      }

      .cls-11 {
        fill: url(#linear-gradient-7);
      }

      .cls-12 {
        fill: url(#linear-gradient-11);
      }

      .cls-13 {
        fill: url(#linear-gradient-12);
      }

      .cls-14 {
        fill: url(#linear-gradient-13);
      }

      .cls-15 {
        fill: url(#linear-gradient-14);
      }

      .cls-16 {
        fill: url(#linear-gradient-15);
      }

      .cls-17 {
        fill: url(#linear-gradient-18);
      }

      .cls-18 {
        fill: url(#linear-gradient-19);
      }

      .cls-19 {
        fill: url(#linear-gradient-21);
      }

      .cls-20 {
        opacity: 0.4;
      }

      .cls-21 {
        fill: url(#linear-gradient-22);
      }

      .cls-22 {
        opacity: 0.2;
      }

      .cls-23, .cls-26 {
        fill: #f55f44;
      }

      .cls-23 {
        opacity: 0.05;
      }

      .cls-24 {
        opacity: 0.25;
      }

      .cls-25 {
        fill: url(#linear-gradient-24);
      }
    </style>
    <linearGradient id="linear-gradient" x1="0.5" y1="1" x2="0.5" gradientUnits="objectBoundingBox">
      <stop offset="0" stop-color="gray" stop-opacity="0.251"/>
      <stop offset="0.54" stop-color="gray" stop-opacity="0.122"/>
      <stop offset="1" stop-color="gray" stop-opacity="0.102"/>
    </linearGradient>
    <linearGradient id="linear-gradient-2" x1="0.5" x2="0.5" y2="1" gradientUnits="objectBoundingBox">
      <stop offset="0" stop-color="#e0e0e0"/>
      <stop offset="0.31" stop-color="#fccc63"/>
      <stop offset="0.77" stop-color="#f55f44"/>
    </linearGradient>
    <linearGradient id="linear-gradient-3" x1="0.5" y1="0" x2="0.5" y2="1" xlink:href="#linear-gradient-2"/>
    <linearGradient id="linear-gradient-6" x1="0.5" x2="0.5" y2="0" xlink:href="#linear-gradient"/>
    <linearGradient id="linear-gradient-7" x1="0.5" x2="0.5" y2="1" gradientUnits="objectBoundingBox">
      <stop offset="0" stop-color="#f2f2f2"/>
      <stop offset="0.31" stop-color="#e6e6e6"/>
      <stop offset="0.77" stop-color="#ccc"/>
    </linearGradient>
    <linearGradient id="linear-gradient-11" x1="0.5" y1="0.001" x2="0.5" y2="1" xlink:href="#linear-gradient-7"/>
    <linearGradient id="linear-gradient-12" x1="0.5" y1="0" x2="0.5" y2="1" xlink:href="#linear-gradient-7"/>
    <linearGradient id="linear-gradient-13" x1="0.5" y1="0" x2="0.5" y2="1" xlink:href="#linear-gradient-7"/>
    <linearGradient id="linear-gradient-14" x1="0.5" y1="0" x2="0.5" y2="1" xlink:href="#linear-gradient-7"/>
    <linearGradient id="linear-gradient-15" x1="0.5" y1="0" x2="0.5" y2="1" xlink:href="#linear-gradient-7"/>
    <linearGradient id="linear-gradient-18" x1="0.5" x2="0.5" y2="0" xlink:href="#linear-gradient"/>
    <linearGradient id="linear-gradient-19" x1="0.5" x2="0.5" y2="1" gradientUnits="objectBoundingBox">
      <stop offset="0" stop-color="#f2f2f2"/>
      <stop offset="0.31" stop-color="#e0e0e0"/>
      <stop offset="0.77" stop-color="#b3b3b3"/>
    </linearGradient>
    <linearGradient id="linear-gradient-21" x1="0.5" y1="0" x2="0.5" y2="1" xlink:href="#linear-gradient-7"/>
    <linearGradient id="linear-gradient-22" x1="0.5" y1="0.999" x2="0.5" y2="-0.001" xlink:href="#linear-gradient"/>
    <linearGradient id="linear-gradient-24" x1="0.501" y1="1.001" x2="0.501" y2="0.001" xlink:href="#linear-gradient"/>
  </defs>
  <g id="undraw_To_the_stars_qhyy" transform="translate(0 -0.05)">
    <g id="Group_108" data-name="Group 108" class="cls-1" transform="translate(147.334 23.477)">
      <path id="Path_323" data-name="Path 323" class="cls-2" d="M577.257,258.8a73.535,73.535,0,0,0-8.3-34.187,42.165,42.165,0,0,0-6.837-9.929,4.884,4.884,0,0,0-5.568-1.1,5.02,5.02,0,0,0-1.953,1.26,44.263,44.263,0,0,0-6.666,9.562,73.819,73.819,0,0,0-8.727,35.124v7.355h-4.718V181.425a114.805,114.805,0,0,0-11.863-51.28c-3.722-7.428-7.116-12.043-9.729-14.881a6.745,6.745,0,0,0-10.139,0,66.581,66.581,0,0,0-9.514,14.324,115.036,115.036,0,0,0-12.454,52.633v84.67h-4.078v-7.707a73.819,73.819,0,0,0-8.727-35.124,44.507,44.507,0,0,0-6.666-9.562,4.884,4.884,0,0,0-5.665-1.035l.171.093a5.035,5.035,0,0,0-1.592,1.114,43.379,43.379,0,0,0-6.837,9.929,73.534,73.534,0,0,0-8.3,34.187V386.564h14.554l-1.587,10.505v31.408h11.9V397.069l-1.587-10.505h14.344V270.2h4.078V386.041h11.623l-1.67,11.023v31.413h11.9V397.069l-1.67-11.023h15.662l-1.67,11.023v31.408h11.9V397.069l-1.67-11.023h9.279V270.2h4.718V386.74h3.824v-.176h12.644l-1.587,10.505v31.408h11.9V397.069l-1.587-10.505h12.869Z" transform="translate(-439.089 -112.969)"/>
    </g>
    <path id="Path_324" data-name="Path 324" class="cls-3" d="M345.637,602.87H334.37l2.012-13.68h7.243Z" transform="translate(-171.071 -301.417)"/>
    <g id="Group_109" data-name="Group 109" class="cls-4" transform="translate(164.75 289.38)">
      <path id="Path_325" data-name="Path 325" d="M337.34,596.3h8.366l-.562-3.824H337.9Z" transform="translate(-337.34 -592.48)"/>
    </g>
    <path id="Path_326" data-name="Path 326" class="cls-3" d="M543.4,602.87H532.13l2.012-13.68h7.243Z" transform="translate(-272.249 -301.417)"/>
    <g id="Group_110" data-name="Group 110" class="cls-4" transform="translate(261.331 289.38)">
      <path id="Path_327" data-name="Path 327" d="M535.1,596.3h8.366l-.562-3.824h-7.243Z" transform="translate(-535.1 -592.48)"/>
    </g>
    <path id="Path_328" data-name="Path 328" class="cls-3" d="M420.622,602.87H409.35l2.012-13.68h7.248Z" transform="translate(-209.432 -301.417)"/>
    <g id="Group_111" data-name="Group 111" class="cls-4" transform="translate(201.368 289.38)">
      <path id="Path_329" data-name="Path 329" d="M412.32,596.3h8.371l-.562-3.824h-7.248Z" transform="translate(-412.32 -592.48)"/>
    </g>
    <path id="Path_330" data-name="Path 330" class="cls-3" d="M467.587,602.87H456.32l2.012-13.68h7.243Z" transform="translate(-233.463 -301.417)"/>
    <g id="Group_112" data-name="Group 112" class="cls-4" transform="translate(224.307 289.38)">
      <path id="Path_331" data-name="Path 331" d="M459.29,596.3h8.371l-.566-3.824h-7.243Z" transform="translate(-459.29 -592.48)"/>
    </g>
    <rect id="Rectangle_360" data-name="Rectangle 360" class="cls-3" width="80.485" height="3.218" transform="translate(174.566 174.689)"/>
    <path id="Path_332" data-name="Path 332" class="cls-5" d="M662.823,316.9a4.537,4.537,0,0,0-6.725,0,43.213,43.213,0,0,0-6.31,9.309,73.54,73.54,0,0,0-8.258,34.186v123.9h35.617V359.88a73.258,73.258,0,0,0-7.868-33.312A41.889,41.889,0,0,0,662.823,316.9Z" transform="translate(-395.328 -193.064)"/>
    <path id="Path_333" data-name="Path 333" class="cls-5" d="M460.983,316.9a4.537,4.537,0,0,1,6.725,0,43.214,43.214,0,0,1,6.31,9.309,73.541,73.541,0,0,1,8.258,34.186v123.9H446.649V359.88a73.257,73.257,0,0,1,7.868-33.312A41.225,41.225,0,0,1,460.983,316.9Z" transform="translate(-295.623 -193.064)"/>
    <path id="Path_334" data-name="Path 334" class="cls-3" d="M309.65,346.93l8.449.039v10.422H309.65Z" transform="translate(-158.424 -177.471)"/>
    <path id="Path_335" data-name="Path 335" class="cls-3" d="M364.86,346.93l8.449.039v10.422H364.86Z" transform="translate(-186.67 -177.471)"/>
    <path id="Path_336" data-name="Path 336" class="cls-3" d="M504.11,346.93l8.454.039v10.422H504.11Z" transform="translate(-257.913 -177.471)"/>
    <path id="Path_337" data-name="Path 337" class="cls-3" d="M559.32,346.93l8.454.039v10.422H559.32Z" transform="translate(-286.16 -177.471)"/>
    <g id="Group_113" data-name="Group 113" class="cls-4" transform="translate(166.698 122.186)">
      <path id="Path_338" data-name="Path 338" d="M490.422,325.881a43.039,43.039,0,0,0-6.31-9.309,4.522,4.522,0,0,0-5.372-1.011,4.8,4.8,0,0,1,1.358,1.011,43.215,43.215,0,0,1,6.31,9.309,73.54,73.54,0,0,1,8.258,34.187V483.954h4.024V360.082a73.54,73.54,0,0,0-8.268-34.2Z" transform="translate(-478.74 -315.085)"/>
    </g>
    <g id="Group_114" data-name="Group 114" class="cls-4" transform="translate(245.786 122.521)">
      <path id="Path_339" data-name="Path 339" d="M652.557,326.573a43.035,43.035,0,0,1,6.31-9.309,4.785,4.785,0,0,1,1.558-1.113,4.527,4.527,0,0,0-5.177,1.113,43.212,43.212,0,0,0-6.31,9.308,73.539,73.539,0,0,0-8.259,34.186V484.647H644.3V360.78A73.539,73.539,0,0,1,652.557,326.573Z" transform="translate(-640.678 -315.771)"/>
    </g>
    <rect id="Rectangle_361" data-name="Rectangle 361" class="cls-6" width="11.267" height="30.582" transform="translate(163.299 301.453)"/>
    <rect id="Rectangle_362" data-name="Rectangle 362" class="cls-7" width="11.267" height="30.582" transform="translate(199.918 301.453)"/>
    <rect id="Rectangle_363" data-name="Rectangle 363" class="cls-7" width="11.267" height="30.582" transform="translate(222.857 301.453)"/>
    <rect id="Rectangle_364" data-name="Rectangle 364" class="cls-7" width="11.267" height="30.582" transform="translate(259.881 301.453)"/>
    <path id="Path_340" data-name="Path 340" class="cls-8" d="M557.862,117.22a6.271,6.271,0,0,0-9.6,0,65.593,65.593,0,0,0-9.006,13.953,114.752,114.752,0,0,0-11.789,51.255V381.242h50.835V181.627a114.189,114.189,0,0,0-11.233-49.917A62.841,62.841,0,0,0,557.862,117.22Z" transform="translate(-336.973 -90.524)"/>
    <rect id="Rectangle_365" data-name="Rectangle 365" class="cls-9" width="26.524" height="12.156" rx="6.078" transform="translate(202.301 48.78)"/>
    <g id="Group_115" data-name="Group 115" class="cls-1" transform="translate(66.466 284.664)">
      <path id="Path_341" data-name="Path 341" class="cls-10" d="M541.378,691.8h0a40.535,40.535,0,0,0-80.524,6.872v.6h0a37.407,37.407,0,0,0-4.444.952,37.039,37.039,0,0,0-69.643-6.3,36.623,36.623,0,0,0-10.217-2.334h0a40.232,40.232,0,0,0-2.789-9.206,37.019,37.019,0,0,0-73.8-.977,40.268,40.268,0,0,0-3.624,12.879h0a37.058,37.058,0,0,0-21.24,44.931H571.824A37.048,37.048,0,0,0,541.378,691.8Z" transform="translate(-273.505 -647.773)"/>
    </g>
    <circle id="Ellipse_165" data-name="Ellipse 165" class="cls-11" cx="35.569" cy="35.569" r="35.569" transform="translate(97.617 286.469)"/>
    <circle id="Ellipse_166" data-name="Ellipse 166" class="cls-11" cx="38.948" cy="38.948" r="38.948" transform="translate(94.062 296.427)"/>
    <circle id="Ellipse_167" data-name="Ellipse 167" class="cls-11" cx="38.948" cy="38.948" r="38.948" transform="translate(252.345 296.427)"/>
    <circle id="Ellipse_168" data-name="Ellipse 168" class="cls-11" cx="35.569" cy="35.569" r="35.569" transform="translate(253.766 303.186)"/>
    <path id="Path_342" data-name="Path 342" class="cls-12" d="M572.988,735.064a35.5,35.5,0,0,1-14.71,28.814H516.556a35.583,35.583,0,1,1,56.427-28.814Z" transform="translate(-323.847 -389.549)"/>
    <path id="Path_343" data-name="Path 343" class="cls-13" d="M480.535,772.979a35.406,35.406,0,0,1-1.524,10.315H410.916v-.024a35.569,35.569,0,0,1,33.835-45.859h.22q1.494,0,2.964.122a35.2,35.2,0,0,1,9.812,2.242A35.579,35.579,0,0,1,480.535,772.979Z" transform="translate(-276.563 -408.969)"/>
    <path id="Path_344" data-name="Path 344" class="cls-14" d="M663.342,787.559q0,1.6-.142,3.16a.088.088,0,0,1,0,.044H592.347c-.1-1.055-.146-2.124-.146-3.2A35.534,35.534,0,0,1,622.44,752.4a36.034,36.034,0,0,1,5.314-.4c.908,0,1.812.034,2.706.1A35.6,35.6,0,0,1,660.2,772.971c.147.322.288.65.42.977a35.4,35.4,0,0,1,2.72,13.611Z" transform="translate(-370.09 -416.434)"/>
    <path id="Path_345" data-name="Path 345" class="cls-15" d="M801.013,772.984a35.411,35.411,0,0,1-1.524,10.315h-68.08a35.794,35.794,0,0,1-.913-16.869c.059-.308.117-.62.186-.923a35.583,35.583,0,0,1,34.782-28.087c1.118,0,2.217.049,3.306.156.488.039.977.1,1.465.161A35.574,35.574,0,0,1,801.013,772.984Z" transform="translate(-440.536 -408.975)"/>
    <path id="Path_346" data-name="Path 346" class="cls-16" d="M355.2,783.279c.117-.371.22-.742.322-1.118a35.593,35.593,0,0,0-43.852-43.5,33.948,33.948,0,0,0-4.156,1.436,35.6,35.6,0,0,0-20.4,43.173H355.2Z" transform="translate(-213.216 -408.951)"/>
    <g id="Group_116" data-name="Group 116" class="cls-1" transform="translate(340.434 288.125)">
      <circle id="Ellipse_169" data-name="Ellipse 169" class="cls-2" cx="6.525" cy="6.525" r="6.525"/>
    </g>
    <circle id="Ellipse_170" data-name="Ellipse 170" class="cls-11" cx="6.046" cy="6.046" r="6.046" transform="translate(340.913 288.604)"/>
    <g id="Group_117" data-name="Group 117" class="cls-1" transform="translate(369.722 350.491)">
      <circle id="Ellipse_171" data-name="Ellipse 171" class="cls-17" cx="7.116" cy="7.116" r="7.116"/>
    </g>
    <circle id="Ellipse_172" data-name="Ellipse 172" class="cls-18" cx="6.759" cy="6.759" r="6.759" transform="translate(370.079 350.847)"/>
    <g id="Group_118" data-name="Group 118" class="cls-1" transform="translate(64.544 309.237)">
      <circle id="Ellipse_173" data-name="Ellipse 173" class="cls-2" cx="7.819" cy="7.819" r="7.819"/>
    </g>
    <circle id="Ellipse_174" data-name="Ellipse 174" class="cls-19" cx="7.467" cy="7.467" r="7.467" transform="translate(64.896 309.589)"/>
    <g id="Group_119" data-name="Group 119" class="cls-20" transform="translate(328.403 0.05)">
      <path id="Path_347" data-name="Path 347" class="cls-21" d="M848.371,73.507h0a21.65,21.65,0,0,0-6.388-5.655h0A21.45,21.45,0,1,0,831.238,107.9c.454,0,.908,0,1.358-.044a21.445,21.445,0,0,0,15.765-34.323Z" transform="translate(-809.845 -65)"/>
    </g>
    <path id="Path_348" data-name="Path 348" class="cls-22" d="M852.717,87.638a20.273,20.273,0,0,1-18.99,20.234c-.423.029-.853.044-1.283.044A20.273,20.273,0,1,1,842.583,70.08h0a20.463,20.463,0,0,1,6.041,5.348h0A20.169,20.169,0,0,1,852.717,87.638Z" transform="translate(-482.638 -66.162)"/>
    <path id="Path_349" data-name="Path 349" class="cls-23" d="M838.25,82.362a22.067,22.067,0,0,0-3.023,1.592,4.785,4.785,0,0,0-1.617,1.465,1.9,1.9,0,0,0-.039,2.066,2.916,2.916,0,0,0,2.281.825,4.327,4.327,0,0,0,4.142-1.367l1.743-1.582c.606-.547,1.27-1.3,1.006-2.076a1.751,1.751,0,0,0-1.465-.977,6.149,6.149,0,0,0-4.361.767" transform="translate(-493.435 -73.746)"/>
    <circle id="Ellipse_175" data-name="Ellipse 175" class="cls-23" cx="1.065" cy="1.065" r="1.065" transform="translate(336.468 28.415)"/>
    <circle id="Ellipse_176" data-name="Ellipse 176" class="cls-23" cx="3.912" cy="3.912" r="3.912" transform="translate(355.32 18.809)"/>
    <path id="Path_350" data-name="Path 350" class="cls-23" d="M875.626,78.232h0a5.338,5.338,0,1,1-6.041-5.372h0A20.462,20.462,0,0,1,875.626,78.232Z" transform="translate(-509.635 -68.971)"/>
    <path id="Path_351" data-name="Path 351" class="cls-23" d="M871.55,130.8a20.224,20.224,0,0,1-15.291,8.556c-.024-.278-.039-.562-.039-.845a9.606,9.606,0,0,1,15.33-7.711Z" transform="translate(-505.169 -97.646)"/>
    <circle id="Ellipse_177" data-name="Ellipse 177" class="cls-24" cx="2.491" cy="2.491" r="2.491" transform="translate(350.514 165.889)"/>
    <circle id="Ellipse_178" data-name="Ellipse 178" class="cls-24" cx="2.491" cy="2.491" r="2.491" transform="translate(18.417 231.331)"/>
    <circle id="Ellipse_179" data-name="Ellipse 179" class="cls-24" cx="2.491" cy="2.491" r="2.491" transform="translate(446.725 245.494)"/>
    <circle id="Ellipse_180" data-name="Ellipse 180" class="cls-24" cx="2.491" cy="2.491" r="2.491" transform="translate(138.519 127.473)"/>
    <circle id="Ellipse_181" data-name="Ellipse 181" class="cls-24" cx="2.491" cy="2.491" r="2.491" transform="translate(130.338 70.205)"/>
    <circle id="Ellipse_182" data-name="Ellipse 182" class="cls-24" cx="2.491" cy="2.491" r="2.491" transform="translate(59.909 183.67)"/>
    <path id="Path_352" data-name="Path 352" class="cls-24" d="M843.588,384.8h-2.217V382.59h-.9V384.8H838.25v.908h2.217v2.212h.9v-2.212h2.217Z" transform="translate(-428.867 -195.716)"/>
    <path id="Path_353" data-name="Path 353" class="cls-24" d="M919.588,227.8h-2.217V225.59h-.9V227.8H914.25v.908h2.217v2.212h.9v-2.212h2.217Z" transform="translate(-467.75 -115.391)"/>
    <path id="Path_354" data-name="Path 354" class="cls-24" d="M595.958,140.087h-2.217V137.87h-.9v2.217H590.62v.9h2.217v2.217h.9v-2.217h2.217Z" transform="translate(-302.174 -70.512)"/>
    <path id="Path_355" data-name="Path 355" class="cls-24" d="M794.063,359.312h-2.217V357.1h-.9v2.212H788.73v.908h2.212v2.212h.9v-2.212h2.217Z" transform="translate(-403.531 -182.675)"/>
    <path id="Path_356" data-name="Path 356" class="cls-24" d="M628,510.072h-2.212V507.86h-.9v2.212H622.67v.908h2.217v2.212h.9v-2.212H628Z" transform="translate(-318.571 -259.807)"/>
    <path id="Path_357" data-name="Path 357" class="cls-24" d="M163.338,199.082h-2.217V196.87h-.9v2.212H158v.9h2.217V202.2h.9v-2.217h2.217Z" transform="translate(-80.836 -100.697)"/>
    <path id="Path_358" data-name="Path 358" class="cls-24" d="M5.338,258.082H3.121V255.87h-.9v2.212H0v.9H2.217V261.2h.9v-2.217H5.338Z" transform="translate(0 -130.883)"/>
    <path id="Path_359" data-name="Path 359" class="cls-24" d="M225.973,443.8h-2.217V441.58h-.9V443.8H220.64v.9h2.212v2.217h.9V444.7h2.217Z" transform="translate(-112.884 -225.896)"/>
    <circle id="Ellipse_183" data-name="Ellipse 183" class="cls-11" cx="6.759" cy="6.759" r="6.759" transform="translate(370.079 350.847)"/>
    <g id="Group_120" data-name="Group 120" class="cls-20" transform="translate(112.955 166.055)">
      <path id="Path_360" data-name="Path 360" class="cls-25" d="M387.095,408.993h0a10.31,10.31,0,0,0-3.043-2.7h0a10.217,10.217,0,1,0-5.108,19.047h.645A10.217,10.217,0,0,0,387.095,409Z" transform="translate(-368.695 -404.91)"/>
    </g>
    <path id="Path_361" data-name="Path 361" class="cls-22" d="M389.22,415.735a9.655,9.655,0,0,1-9.045,9.636h-.611a9.655,9.655,0,1,1,4.83-18.021h0a9.768,9.768,0,0,1,2.877,2.544h0a9.607,9.607,0,0,1,1.949,5.841Z" transform="translate(-256.367 -239.444)"/>
    <path id="Path_362" data-name="Path 362" class="cls-26" d="M382.308,413.217a10.514,10.514,0,0,0-1.465.757,2.281,2.281,0,0,0-.772.689.908.908,0,0,0,0,.977,1.382,1.382,0,0,0,1.084.391,2.061,2.061,0,0,0,1.954-.65l.83-.752c.288-.264.606-.62.488-.977a.874.874,0,0,0-.7-.488,2.93,2.93,0,0,0-2.076.366" transform="translate(-261.488 -243.05)"/>
    <circle id="Ellipse_184" data-name="Ellipse 184" class="cls-26" cx="0.508" cy="0.508" r="0.508" transform="translate(116.845 179.593)"/>
    <circle id="Ellipse_185" data-name="Ellipse 185" class="cls-26" cx="1.866" cy="1.866" r="1.866" transform="translate(125.821 175.016)"/>
    <path id="Path_363" data-name="Path 363" class="cls-26" d="M400.129,411.329h0a2.54,2.54,0,1,1-2.877-2.549h0A9.767,9.767,0,0,1,400.129,411.329Z" transform="translate(-269.224 -240.835)"/>
    <path id="Path_364" data-name="Path 364" class="cls-26" d="M398.212,436.3a9.631,9.631,0,0,1-7.282,4.078v-.405a4.576,4.576,0,0,1,7.326-3.673Z" transform="translate(-267.116 -254.444)"/>
    <g id="Group_121" data-name="Group 121" class="cls-4" transform="translate(190.756 98.702)">
      <rect id="Rectangle_366" data-name="Rectangle 366" width="50.303" height="1.954"/>
    </g>
  </g>
</svg>
