<svg xmlns="http://www.w3.org/2000/svg" xmlns:xlink="http://www.w3.org/1999/xlink" width="497.359" height="342.846" viewBox="0 0 497.359 342.846">
  <defs>
    <style>
      .cls-1, .cls-2, .cls-7 {
        fill: #0874d9;
      }

      .cls-1, .cls-16, .cls-20, .cls-5 {
        opacity: 0.1;
      }

      .cls-3 {
        fill: #444053;
      }

      .cls-4 {
        opacity: 0.7;
      }

      .cls-20, .cls-6 {
        fill: #fff;
      }

      .cls-7, .cls-8 {
        opacity: 0.3;
      }

      .cls-9 {
        fill: #f8f8f8;
        opacity: 0.998;
      }

      .cls-10 {
        fill: url(#linear-gradient);
      }

      .cls-11 {
        fill: #f8c198;
      }

      .cls-12 {
        opacity: 0.05;
      }

      .cls-13 {
        fill: #bebed0;
      }

      .cls-14 {
        fill: #343434;
      }

      .cls-15 {
        fill: none;
      }

      .cls-17 {
        fill: #f7cddd;
      }

      .cls-18 {
        fill: #f0cedb;
      }

      .cls-19 {
        fill: #4c3e42;
      }

      .cls-21 {
        fill: #efc8c4;
      }

      .cls-22 {
        fill: #727a9c;
      }

      .cls-23 {
        fill: #30b34e;
      }

      .cls-24 {
        fill: #ffd037;
      }

      .cls-25 {
        fill: #65617d;
      }

      .cls-26 {
        fill: #9d9cb5;
      }
    </style>
    <linearGradient id="linear-gradient" x1="0.5" y1="1" x2="0.5" gradientUnits="objectBoundingBox">
      <stop offset="0" stop-color="gray" stop-opacity="0.251"/>
      <stop offset="0.54" stop-color="gray" stop-opacity="0.122"/>
      <stop offset="1" stop-color="gray" stop-opacity="0.102"/>
    </linearGradient>
  </defs>
  <g id="undraw_to_do_list_a49b" transform="translate(0.003 0)">
    <path id="Path_62" data-name="Path 62" class="cls-1" d="M175.866,69.082C192.74,53.882,219.23,50.787,243.339,52c75.729,3.8,144.089,40.716,203.22,82.474,21.406,15.117,42.481,31.423,56.389,52.227,28.289,42.378,19.9,101.087-19.435,136-13.383,11.88-29.606,20.984-46.261,29.06-29.611,14.351-61.555,25.87-95.168,29.15-23.968,2.337-48.211.43-72.058-2.824-66.569-9.117-131.912-29.271-186.682-63.767C59.313,299.188,36.671,280.382,26.771,255.9s-3.564-55.481,20.963-69.966c10.146-5.992,22.272-8.7,34.148-11.239,17.481-3.736,35.237-7.425,51.013-15.027,16.293-7.851,35.581-23.038,32.357-40.419C161.79,100.612,159.014,84.233,175.866,69.082Z" transform="translate(-22.3 -51.76)"/>
    <path id="Path_63" data-name="Path 63" class="cls-2" d="M279,497.1s4.464-3.2,9.082-1.223c0,0-1.291,2.746-7.046,2.712Z" transform="translate(-168.505 -304.339)"/>
    <path id="Path_64" data-name="Path 64" class="cls-2" d="M277.462,500s-1.192,5.359,2.441,8.837c0,0,2.014-2.268-.276-7.546Z" transform="translate(-167.522 -307.054)"/>
    <path id="Path_65" data-name="Path 65" class="cls-2" d="M264,483.917s.164-4.524,10.408-3.418c0,0,.159,2.91-3.362,4.425S265.838,485.351,264,483.917Z" transform="translate(-159.962 -295.848)"/>
    <path id="Path_66" data-name="Path 66" class="cls-2" d="M260.008,488.65s-4.257,1.55-.047,10.959c0,0,2.815-.745,3.172-4.563S261.932,489.967,260.008,488.65Z" transform="translate(-156.602 -300.59)"/>
    <path id="Path_67" data-name="Path 67" class="cls-2" d="M248.537,464.965s-.861-7.4,9.573-7.042c0,0,.994,6.694-7.666,8.755Z" transform="translate(-151.145 -283.082)"/>
    <path id="Path_68" data-name="Path 68" class="cls-2" d="M231.83,446.577s1.106-8.467,11.622-6.362c0,0,.319,7.275-9.831,8.3Z" transform="translate(-141.639 -272.812)"/>
    <path id="Path_69" data-name="Path 69" class="cls-2" d="M219.38,427.068s2.075-8.3,12.483-6.229c0,0-2.152,7.468-11.738,7.718Z" transform="translate(-134.548 -261.779)"/>
    <path id="Path_70" data-name="Path 70" class="cls-2" d="M207.53,407.552s2.01-8.609,12.053-6.422c0,0-3.013,8.209-11.351,7.847Z" transform="translate(-127.799 -250.54)"/>
    <path id="Path_71" data-name="Path 71" class="cls-2" d="M199.66,386.518s1.4-10.473,10.761-8.527c0,0-2.333,9.569-10.03,10.012Z" transform="translate(-123.317 -237.427)"/>
    <path id="Path_72" data-name="Path 72" class="cls-2" d="M192.09,364.807s1.752-10.568,11.256-7.877c0,0-3.306,10.051-10.546,9.3Z" transform="translate(-119.005 -225.319)"/>
    <path id="Path_73" data-name="Path 73" class="cls-2" d="M187.13,340.961s3.013-10.615,10.3-10.611c0,0-3.078,11.192-9.608,12.69Z" transform="translate(-116.18 -210.43)"/>
    <path id="Path_74" data-name="Path 74" class="cls-2" d="M183.71,318.636s3.241-12.767,9.19-12.018c0,0-2.208,9.745-8.906,13.977Z" transform="translate(-114.233 -196.896)"/>
    <path id="Path_75" data-name="Path 75" class="cls-2" d="M181.28,295.215s3.086-10.649,8.906-11.3c0,0-1.98,10.438-8.674,14.024Z" transform="translate(-112.849 -183.986)"/>
    <path id="Path_76" data-name="Path 76" class="cls-2" d="M178.76,272.774s3.952-10.7,7.8-11.084c0,0-1.494,10.438-7.348,12.8Z" transform="translate(-111.413 -171.325)"/>
    <path id="Path_77" data-name="Path 77" class="cls-2" d="M176.83,249.544s2.238-11.54,6.052-12.634c0,0-.168,9.371-5.635,13.473Z" transform="translate(-110.314 -157.212)"/>
    <path id="Path_78" data-name="Path 78" class="cls-2" d="M172.4,224.421s2.466-9.22,5.531-10.731c0,0-.207,10.761-4.735,12.914Z" transform="translate(-107.791 -143.987)"/>
    <path id="Path_79" data-name="Path 79" class="cls-2" d="M167.334,199.247,166.15,183.2s6.285,11.906,1.722,18.867Z" transform="translate(-104.231 -126.621)"/>
    <path id="Path_80" data-name="Path 80" class="cls-2" d="M149.488,167.65s-4.645-11.575-5.678-12.19c0,0,8.523,7.318,8.092,17.123Z" transform="translate(-91.508 -110.822)"/>
    <path id="Path_81" data-name="Path 81" class="cls-2" d="M238.852,474.188s-7.425-.684-6.8,9.741c0,0,6.715.831,8.562-7.882Z" transform="translate(-141.744 -292.348)"/>
    <path id="Path_82" data-name="Path 82" class="cls-2" d="M221.04,454.82s-8.532.3-7.43,10.951c0,0,7.21,1.007,9.194-9Z" transform="translate(-131.206 -281.322)"/>
    <path id="Path_83" data-name="Path 83" class="cls-2" d="M202.733,436.625s-7.886-3.336-12.483,6.229c0,0,7.27,2.751,13.223-4.735Z" transform="translate(-117.957 -270.638)"/>
    <path id="Path_84" data-name="Path 84" class="cls-2" d="M190.744,415.836s-8.075-3.564-12.384,5.777c0,0,8.372,2.527,13.094-4.356Z" transform="translate(-111.185 -258.739)"/>
    <path id="Path_85" data-name="Path 85" class="cls-2" d="M181.758,394.744s-7.912-7-13.718.611c0,0,8.028,5.7,14.132,1Z" transform="translate(-105.308 -245.433)"/>
    <path id="Path_86" data-name="Path 86" class="cls-2" d="M174.93,371.3s-7.963-7.163-13.71.861c0,0,8.854,5.79,14.046.684Z" transform="translate(-101.423 -232.075)"/>
    <path id="Path_87" data-name="Path 87" class="cls-2" d="M171.519,344.78s-6.272-9.083-13.159-6.741c0,0,6.517,9.625,13.176,8.932Z" transform="translate(-99.794 -214.59)"/>
    <path id="Path_88" data-name="Path 88" class="cls-2" d="M168.281,321.8s-6.418-11.5-11.971-9.25c0,0,4.64,8.85,12.195,11.213Z" transform="translate(-98.627 -200.128)"/>
    <path id="Path_89" data-name="Path 89" class="cls-2" d="M166.057,298.427s-6.483-9-12.177-7.649c0,0,5.368,9.169,12.875,10.3Z" transform="translate(-97.243 -187.814)"/>
    <path id="Path_90" data-name="Path 90" class="cls-2" d="M168.329,273.51s-5.144-10.176-9.009-10.12c0,0,2.673,10.2,8.755,11.872Z" transform="translate(-100.341 -172.293)"/>
    <path id="Path_91" data-name="Path 91" class="cls-2" d="M164.481,252.277s-5.682-10.288-9.651-10.159c0,0,3.048,8.867,9.509,11.088Z" transform="translate(-97.784 -160.178)"/>
    <path id="Path_92" data-name="Path 92" class="cls-2" d="M164.379,227.578s-4.283-8.532-7.589-9.388c0,0,2.38,10.5,7.24,11.708Z" transform="translate(-98.9 -146.55)"/>
    <path id="Path_93" data-name="Path 93" class="cls-2" d="M155.426,202.483l-9.337-13.1s2.768,13.18,10.723,15.617Z" transform="translate(-92.806 -130.141)"/>
    <path id="Path_94" data-name="Path 94" class="cls-2" d="M137.938,176.127S127.43,169.442,127,168.31c0,0,5.6,9.72,15.35,11.1Z" transform="translate(-81.933 -118.141)"/>
    <path id="Path_95" data-name="Path 95" class="cls-2" d="M130.572,164.918s-12.208-10.869-15.212-10.74c0,0,9.728.069,15.5,10.129Z" transform="translate(-75.304 -110.091)"/>
    <path id="Path_96" data-name="Path 96" class="cls-3" d="M160.249,205.846l-.43.073c-2.875-17.24-6.5-27.351-10.189-28.479l.125-.43C153.663,178.2,157.3,188.163,160.249,205.846Z" transform="translate(-94.822 -123.096)"/>
    <path id="Path_97" data-name="Path 97" class="cls-3" d="M178.385,283.552l-.646.077c-.2-1.61-.37-3.263-.5-4.907-1.167-14.313-2.63-27.441-4.266-37.264l.357-.478c1.64,9.84,3.388,23.356,4.558,37.69C178.019,280.306,178.187,281.946,178.385,283.552Z" transform="translate(-108.116 -159.53)"/>
    <path id="Path_98" data-name="Path 98" class="cls-3" d="M237.126,414.8c-.116-.047-11.721-4.7-24.032-16.4a94.114,94.114,0,0,1-18.01-23.546c-5.9-10.938-9.763-24.514-11.394-37.781l.689.293c3.659,29.779,18.045,49.683,29.271,60.379,12.19,11.6,23.675,16.207,23.782,16.25Z" transform="translate(-114.221 -214.258)"/>
    <g id="Group_92" data-name="Group 92" class="cls-4" transform="translate(95.649 2.587)">
      <path id="Path_99" data-name="Path 99" class="cls-2" d="M320.84,435.609s5.213-1.722,9.039,1.537c0,0-2.053,2.238-7.537.491Z" transform="translate(-287.984 -272.708)"/>
      <path id="Path_100" data-name="Path 100" class="cls-2" d="M317.752,436.23s-2.729,4.765-.3,9.16c0,0,2.583-1.563,1.984-7.283Z" transform="translate(-285.481 -273.321)"/>
      <path id="Path_101" data-name="Path 101" class="cls-2" d="M309.75,418.762s1.507-4.27,10.955-.168c0,0-.71,2.828-4.528,3.224S311.084,420.669,309.75,418.762Z" transform="translate(-281.667 -262.263)"/>
      <path id="Path_102" data-name="Path 102" class="cls-2" d="M303.712,420.89s-4.52.215-3.306,10.447c0,0,2.914.129,4.391-3.414S305.158,422.715,303.712,420.89Z" transform="translate(-276.228 -264.585)"/>
      <path id="Path_103" data-name="Path 103" class="cls-2" d="M299.3,396.655s1.373-7.318,11.23-3.874c0,0-1.037,6.685-9.922,6.078Z" transform="translate(-275.716 -248.05)"/>
      <path id="Path_104" data-name="Path 104" class="cls-2" d="M288.94,374.214s3.573-7.748,12.974-2.617c0,0-1.86,7.038-11.859,5Z" transform="translate(-269.815 -235.51)"/>
      <path id="Path_105" data-name="Path 105" class="cls-2" d="M282.9,352.216s4.455-7.318,13.774-2.234c0,0-4.3,6.483-13.5,3.874Z" transform="translate(-266.375 -223.176)"/>
      <path id="Path_106" data-name="Path 106" class="cls-2" d="M277.31,329.992s4.477-7.61,13.426-2.544c0,0-5.316,6.939-13.167,4.115Z" transform="translate(-263.191 -210.374)"/>
      <path id="Path_107" data-name="Path 107" class="cls-2" d="M275.27,307.539s4.451-9.582,12.819-4.933c0,0-5.075,8.437-12.552,6.573Z" transform="translate(-262.029 -196.491)"/>
      <path id="Path_108" data-name="Path 108" class="cls-2" d="M274.69,284.5s4.817-9.569,13.086-4.171c0,0-6.143,8.609-12.832,5.742Z" transform="translate(-261.699 -183.586)"/>
      <path id="Path_109" data-name="Path 109" class="cls-2" d="M276.16,261.041s6.026-9.237,12.982-7.068c0,0-6.272,9.784-12.948,9.259Z" transform="translate(-262.536 -169.329)"/>
      <path id="Path_110" data-name="Path 110" class="cls-2" d="M278.59,238.3s6.887-11.222,12.35-8.738c0,0-5.01,8.648-12.66,10.692Z" transform="translate(-263.744 -155.411)"/>
      <path id="Path_111" data-name="Path 111" class="cls-2" d="M283.115,215.422s6.121-9.25,11.863-8.136c0,0-4.993,9.38-12.449,10.809Z" transform="translate(-266.164 -142.874)"/>
      <path id="Path_112" data-name="Path 112" class="cls-2" d="M288.152,192.872s6.952-9.039,10.74-8.256c0,0-4.533,9.522-10.822,10.025Z" transform="translate(-269.32 -129.988)"/>
      <path id="Path_113" data-name="Path 113" class="cls-2" d="M292.71,169.492s5.57-10.331,9.539-10.262c0,0-2.953,8.9-9.388,11.192Z" transform="translate(-271.962 -115.556)"/>
      <path id="Path_114" data-name="Path 114" class="cls-2" d="M296.7,143.969s5.1-8.067,8.476-8.609c0,0-3.4,10.219-8.359,10.938Z" transform="translate(-274.235 -101.961)"/>
      <path id="Path_115" data-name="Path 115" class="cls-2" d="M298.327,116.257l3.646-15.677s2.458,13.236-3.973,18.509Z" transform="translate(-274.975 -82.152)"/>
      <path id="Path_116" data-name="Path 116" class="cls-2" d="M295.965,80.774s-.994-12.431-1.795-13.344c0,0,5.966,9.5,2.634,18.759Z" transform="translate(-272.794 -63.272)"/>
      <path id="Path_117" data-name="Path 117" class="cls-2" d="M286.268,402.239s-6.887-2.858-9.388,7.283c0,0,6.16,2.789,10.516-4.98Z" transform="translate(-262.946 -253.75)"/>
      <path id="Path_118" data-name="Path 118" class="cls-2" d="M274.622,378.932s-8.235-2.251-10.352,8.247c0,0,6.586,3.108,11.459-5.858Z" transform="translate(-255.764 -240.572)"/>
      <path id="Path_119" data-name="Path 119" class="cls-2" d="M264.074,356.523s-6.534-5.531-13.774,2.234c0,0,6.121,4.791,14.037-.594Z" transform="translate(-247.808 -226.837)"/>
      <path id="Path_120" data-name="Path 120" class="cls-2" d="M258.962,332.936s-6.655-5.8-13.542,1.829c0,0,7.24,4.907,13.8-.258Z" transform="translate(-245.028 -213.288)"/>
      <path id="Path_121" data-name="Path 121" class="cls-2" d="M257.794,309.31s-5.475-9.039-13.284-3.5c0,0,5.97,7.834,13.2,5.165Z" transform="translate(-244.51 -198.016)"/>
      <path id="Path_122" data-name="Path 122" class="cls-2" d="M258.154,284.945s-5.475-9.207-13.344-3.25c0,0,6.732,8.179,13.2,4.834Z" transform="translate(-244.681 -184.164)"/>
      <path id="Path_123" data-name="Path 123" class="cls-2" d="M264.125,256.957s-3.284-10.533-10.555-10.331c0,0,3.358,11.131,9.922,12.449Z" transform="translate(-249.67 -165.331)"/>
      <path id="Path_124" data-name="Path 124" class="cls-2" d="M267.9,233.9s-2.7-12.892-8.674-12.393c0,0,1.8,9.832,8.308,14.338Z" transform="translate(-252.894 -151.021)"/>
      <path id="Path_125" data-name="Path 125" class="cls-2" d="M272.8,210.749s-3.512-10.52-9.354-10.929c0,0,2.4,10.352,9.229,13.667Z" transform="translate(-255.297 -138.674)"/>
      <path id="Path_126" data-name="Path 126" class="cls-2" d="M282.421,187.461s-1.885-11.243-5.6-12.341c0,0-.478,10.533,4.83,13.942Z" transform="translate(-262.909 -124.607)"/>
      <path id="Path_127" data-name="Path 127" class="cls-2" d="M285.08,166.049s-2.363-11.515-6.19-12.569c0,0,.271,9.371,5.781,13.413Z" transform="translate(-264.091 -112.281)"/>
      <path id="Path_128" data-name="Path 128" class="cls-2" d="M292.228,142.472s-1.55-9.418-4.451-11.222c0,0-.861,10.735,3.444,13.344Z" transform="translate(-269.113 -99.62)"/>
      <path id="Path_129" data-name="Path 129" class="cls-2" d="M291.122,115.77,286.1,100.48s-1.291,13.4,5.6,18.1Z" transform="translate(-268.144 -82.095)"/>
      <path id="Path_130" data-name="Path 130" class="cls-2" d="M282.393,85.448s-8.062-9.517-8.123-10.718c0,0,2.466,10.946,11.351,15.16Z" transform="translate(-261.46 -67.43)"/>
      <path id="Path_131" data-name="Path 131" class="cls-2" d="M278.7,72.556S270.276,58.545,267.37,57.77c0,0,9.263,2.966,11.76,14.274Z" transform="translate(-257.53 -57.77)"/>
      <path id="Path_132" data-name="Path 132" class="cls-3" d="M294.7,120.465l-.43-.06c2.38-17.308,1.937-28.044-1.257-30.218l.245-.357C296.643,92.142,297.138,102.735,294.7,120.465Z" transform="translate(-272.133 -76.03)"/>
      <path id="Path_133" data-name="Path 133" class="cls-3" d="M278.281,200.23l-.641-.116c.293-1.6.62-3.224.981-4.838,3.147-14.011,5.656-26.976,7.012-36.842l.486-.353c-1.36,9.9-3.715,23.309-6.861,37.342C278.9,197,278.57,198.62,278.281,200.23Z" transform="translate(-263.379 -114.901)"/>
      <path id="Path_134" data-name="Path 134" class="cls-3" d="M303.461,342.821c-.095-.077-9.788-7.976-18.079-22.814A94.042,94.042,0,0,1,275.2,292.169c-2.38-12.2-2.032-26.309.362-39.459l.568.482c-5.359,29.52,2.454,52.808,10,66.363,8.179,14.7,17.769,22.513,17.868,22.59Z" transform="translate(-261.066 -168.798)"/>
    </g>
    <path id="Path_135" data-name="Path 135" class="cls-2" d="M1015.178,805.839s-18.2-1.1-16.052,11.657a3.1,3.1,0,0,0,1.614,3.276s.034-.947,1.868-.624a8.334,8.334,0,0,0,1.976.095,4.141,4.141,0,0,0,2.419-1h0s5.114-2.114,7.1-10.473c0,0,1.472-1.825,1.416-2.294l-3.073,1.291a5.5,5.5,0,0,1,.224,4.055s-.1-3.973-.689-3.874c-.121.021-1.6.77-1.6.77s1.808,3.874.43,6.663c0,0,.516-4.756-1.007-6.388l-2.152,1.266s2.109,3.986.68,7.236c0,0,.366-4.989-1.136-6.93l-1.958,1.528s1.984,3.93.775,6.625c0,0-.159-5.807-1.2-6.246a11.268,11.268,0,0,0-1.976,2.152s1.356,2.85.517,4.356c0,0-.517-3.874-.943-3.874a12.57,12.57,0,0,0-1.885,4.3,9.3,9.3,0,0,1,1.472-4.563,5.119,5.119,0,0,0-2.613,1.352s.267-1.812,3.013-1.971a11.953,11.953,0,0,1,1.791-2.062,11.262,11.262,0,0,0-4.429.512s1.472-1.722,4.933-.934l1.933-1.58s-3.629-.495-5.165.052c0,0,1.769-1.511,5.686-.409l2.105-1.257a19.167,19.167,0,0,0-4.933-.43s1.946-1.05,5.553.086l1.507-.676s-2.268-.431-2.931-.517-.7-.254-.7-.254a7.843,7.843,0,0,1,4.253.473A19.256,19.256,0,0,0,1015.178,805.839Z" transform="translate(-578.552 -481.231)"/>
    <ellipse id="Ellipse_141" data-name="Ellipse 141" class="cls-1" cx="12.879" cy="2.178" rx="12.879" ry="2.178" transform="translate(411.213 338.473)"/>
    <path id="Path_136" data-name="Path 136" class="cls-2" d="M1105.656,727.782s-10.258-.615-9.04,6.573a1.752,1.752,0,0,0,.908,1.847s.022-.534,1.055-.353a4.57,4.57,0,0,0,1.115.056,2.3,2.3,0,0,0,1.36-.564h0s2.884-1.192,4.008-5.906c0,0,.831-1.029.8-1.291l-1.722.74a3.107,3.107,0,0,1,.125,2.286s-.056-2.243-.387-2.187c-.069,0-.9.431-.9.431s1.016,2.178.25,3.758c0,0,.293-2.682-.568-3.6l-1.218.71s1.188,2.247.383,4.081c0,0,.207-2.811-.641-3.909l-1.1.861s1.115,2.217.43,3.736c0,0-.09-3.271-.676-3.521a6.889,6.889,0,0,0-1.115,1.2s.766,1.61.293,2.458c0,0-.293-2.182-.529-2.191a7.234,7.234,0,0,0-1.063,2.436,5.258,5.258,0,0,1,.831-2.583,2.9,2.9,0,0,0-1.476.762s.151-1.02,1.722-1.111a6.7,6.7,0,0,1,1.007-1.162,6.343,6.343,0,0,0-2.5.288,2.811,2.811,0,0,1,2.781-.529l1.093-.887a9,9,0,0,0-2.914.03s1-.861,3.207-.232l1.188-.71a10.861,10.861,0,0,0-2.785-.241,4.27,4.27,0,0,1,3.129.052l.861-.383s-1.291-.25-1.653-.288-.4-.146-.4-.146a4.442,4.442,0,0,1,2.4.267A10.233,10.233,0,0,0,1105.656,727.782Z" transform="translate(-634.12 -436.78)"/>
    <ellipse id="Ellipse_142" data-name="Ellipse 142" class="cls-1" cx="7.262" cy="1.227" rx="7.262" ry="1.227" transform="translate(457.211 298.824)"/>
    <path id="Path_137" data-name="Path 137" class="cls-2" d="M962.446,742.279s-12.388-.749-10.925,7.933a2.114,2.114,0,0,0,1.1,2.23s0-.641,1.27-.43a5.9,5.9,0,0,0,1.347.069,2.832,2.832,0,0,0,1.644-.68h0s3.482-1.438,4.838-7.133c0,0,1-1.24.96-1.558l-2.088.891a3.749,3.749,0,0,1,.151,2.763s-.065-2.708-.469-2.643c-.082,0-1.085.521-1.085.521s1.227,2.63.3,4.537c0,0,.353-3.237-.684-4.348l-1.472.861s1.433,2.712.461,4.929c0,0,.25-3.4-.771-4.735l-1.334,1.037s1.352,2.673.529,4.511c0,0-.108-3.952-.818-4.253a8.1,8.1,0,0,0-1.343,1.451s.921,1.941.349,2.966c0,0-.349-2.63-.637-2.643a8.867,8.867,0,0,0-1.291,2.94,6.358,6.358,0,0,1,1-3.108,3.5,3.5,0,0,0-1.778.921s.181-1.235,2.066-1.343a8.1,8.1,0,0,1,1.218-1.4,7.665,7.665,0,0,0-3.013.349s1-1.167,3.353-.637l1.317-1.072a10.825,10.825,0,0,0-3.517.034s1.205-1.029,3.874-.28l1.433-.861a12.959,12.959,0,0,0-3.362-.293,5.174,5.174,0,0,1,3.779.06l1.029-.422s-1.541-.3-1.993-.349-.474-.172-.474-.172a5.35,5.35,0,0,1,2.9.323A12.957,12.957,0,0,0,962.446,742.279Z" transform="translate(-551.47 -445.034)"/>
    <ellipse id="Ellipse_143" data-name="Ellipse 143" class="cls-1" cx="8.768" cy="1.481" rx="8.768" ry="1.481" transform="translate(393.676 306.684)"/>
    <path id="Path_138" data-name="Path 138" class="cls-5" d="M439.476,507.746,396.3,524.452l-63.113,24.394c-2.38-4.421-5.893-10.469-10.24-17.649-14.945-24.772-39.679-63.3-61.692-97.161-24.811-38.151-46.162-70.366-46.162-70.366l15.458-4.481,126.26-36.618Z" transform="translate(-132.105 -205.999)"/>
    <path id="Path_139" data-name="Path 139" class="cls-6" d="M441.476,500.746,398.3,517.452l-63.113,24.394c-2.38-4.421-5.893-10.469-10.24-17.649-14.945-24.772-39.679-63.3-61.692-97.161-24.811-38.151-46.162-70.366-46.162-70.366l15.458-4.481,126.26-36.618Z" transform="translate(-133.244 -202.012)"/>
    <path id="Path_140" data-name="Path 140" class="cls-5" d="M461.928,500.746,418.75,517.452A324.732,324.732,0,0,1,345.4,524.2c-14.945-24.772-39.679-63.3-61.692-97.161L253,352.188,379.26,315.57Z" transform="translate(-153.697 -202.012)"/>
    <path id="Path_141" data-name="Path 141" class="cls-2" d="M486.079,465.978S419,505.657,318.849,496.7L239,302.058l38.263-6.573L409.532,272.77l75.049,189.446Z" transform="translate(-145.723 -177.636)"/>
    <path id="Path_142" data-name="Path 142" class="cls-5" d="M535.231,462.216a317.566,317.566,0,0,1-52.455-1.489c-19.9-2.333-39.886-7.163-57.061-16-14.343-7.391-26.606-15.419-37.3-25.057C360.6,394.648,343.387,358.86,327.93,295.485L460.2,272.77Z" transform="translate(-196.373 -177.636)"/>
    <path id="Path_143" data-name="Path 143" class="cls-6" d="M572.561,376.33s-49.467,9.694-99.77,3.723c-19.9-2.346-39.907-7.163-57.061-16-14.343-7.391-26.606-15.419-37.3-25.057C343.991,308,325.822,260.556,307.08,164.7c0,0,82.216,19.84,163.447-23.619C470.527,141.08,497.925,312.085,572.561,376.33Z" transform="translate(-184.498 -102.632)"/>
    <path id="Path_144" data-name="Path 144" class="cls-5" d="M567.194,617.567c-19.9-2.346-39.907-7.163-57.061-16-14.343-7.391-26.606-15.419-37.3-25.057,29.309-2.38,33.523-18.406,33.523-18.406C528.083,592.588,567.194,617.567,567.194,617.567Z" transform="translate(-278.9 -340.145)"/>
    <path id="Path_145" data-name="Path 145" class="cls-7" d="M405.85,253.647s44.164,5.041,85.5-18.187l2.832,9.1s-39.546,19.719-88.333,19.719Z" transform="translate(-240.752 -156.386)"/>
    <path id="Path_146" data-name="Path 146" class="cls-8" d="M405.85,346.056s43.906-3.543,92.784-27.166l1.653,3.779S482.3,345.307,405.85,351.221Z" transform="translate(-240.752 -203.903)"/>
    <path id="Path_147" data-name="Path 147" class="cls-8" d="M417.94,386.741s43.906-3.543,92.784-27.161l1.653,3.779s-17.984,22.659-94.437,28.578Z" transform="translate(-247.638 -227.078)"/>
    <path id="Path_148" data-name="Path 148" class="cls-8" d="M429,430.591s43.906-3.543,92.784-27.161l1.653,3.779S505.427,429.855,429,435.787Z" transform="translate(-253.937 -252.053)"/>
    <path id="Path_149" data-name="Path 149" class="cls-8" d="M442.13,468.171s43.906-3.543,92.784-27.161l1.653,3.779s-17.984,22.65-94.437,28.582Z" transform="translate(-261.415 -273.457)"/>
    <path id="Path_150" data-name="Path 150" class="cls-5" d="M454.23,508.892s43.906-3.543,92.784-27.162l1.653,3.779s-17.989,22.65-94.437,28.578Z" transform="translate(-268.307 -296.649)"/>
    <rect id="Rectangle_319" data-name="Rectangle 319" class="cls-9" width="12.978" height="12.978" transform="translate(265.135 107.381) rotate(-18.8)"/>
    <rect id="Rectangle_320" data-name="Rectangle 320" class="cls-9" width="12.978" height="12.978" transform="translate(272.124 125.658) rotate(-18.8)"/>
    <rect id="Rectangle_321" data-name="Rectangle 321" class="cls-9" width="12.978" height="12.978" transform="translate(283.329 160.826) rotate(-18.8)"/>
    <rect id="Rectangle_322" data-name="Rectangle 322" class="cls-9" width="12.978" height="12.978" transform="translate(289.758 179.701) rotate(-18.8)"/>
    <rect id="Rectangle_323" data-name="Rectangle 323" class="cls-9" width="12.978" height="12.978" transform="translate(277.823 144.645) rotate(-18.8)"/>
    <path id="Path_151" data-name="Path 151" class="cls-10" d="M861.71,372.374l-.461-.43c1.188-.241,2.307-.349,2.307-.349s-4.076-14.747-10.951-19.667c-3.4-2.432-6.233-6.483-8.234-9.956a150.527,150.527,0,0,0-12.264-17.98l-1.24-1.563-.534-.68c.745-1.128,1.657-2.2,1.554-3.508a.054.054,0,0,1,0-.026,1.656,1.656,0,0,0,0-.207,2.4,2.4,0,0,0-.086-.478l-.047.073c-.581-1.687-2.815-2.432-4.472-3.362-3.874-2.182-5.531-6.952-6.358-11.385-.646-3.444-1.179-7.318-3.874-9.534-1.722-1.425-4.063-1.894-5.8-3.31-1.644-1.343-2.561-3.379-3.594-5.252a21.034,21.034,0,0,0-6.995-7.89,11.666,11.666,0,0,0-10.1-1.334c-1.261.482-2.406,1.231-3.654,1.752-3.1,1.291-6.65,1.119-9.72,2.484-3.779,1.679-6.237,5.389-8.484,8.91a42.392,42.392,0,0,0-4.025,7.167v-.28a10.252,10.252,0,0,0-.8,3.728,5.6,5.6,0,0,0,.177,1.618c.465,1.722,1.851,2.673,3.5,3.336a14.564,14.564,0,0,0,.379,1.623,15.927,15.927,0,0,0,10.288,10.507c.142.052.288.086.43.129a3.419,3.419,0,0,0,.512.947c1.373,1.722,4.128,1.231,5.919-.022.073-.047.142-.108.211-.159a6.45,6.45,0,0,0,.078.727c.039.207.069.43.112.616,1.614,8.7,5.746,13.4,5.746,13.4s.383.577,1.007,1.532c-.327,4.8,1.864,9.173,4.395,12.552-2.182,1.261-6.887,3.732-9.8,3.525,0,0-10.693,1.382-11.932.689-.172-.095-.336.034-.491.327-2.944-1.795-12.358-6.969-13.163-.327-.727,6.026,7.851,6.8,11.936,6.827-.185,1.765-.288,3.177-.288,3.177l17.567-1.2,9.147-1.347a11,11,0,0,1-3.267,3.112s-8.269,6.694-9.7,6.754c-.2,0-.267.2-.237.525-3.478,0-14.3.5-11.295,6.53,2.725,5.462,10.4,1.683,13.865-.4.818,1.588,1.515,2.832,1.515,2.832l14.175-10.094,3.069-2.583a10.92,10.92,0,0,0,3.052-.59.356.356,0,0,0,.043.112,5.83,5.83,0,0,1,.245.973c.861,4.946-2.032,16.482-2.032,16.482s-6.362,16.224-3.306,18.436.8,11.549.8,11.549a17.25,17.25,0,0,0,1.834,2.531h0a7.691,7.691,0,0,0,1.072,1.02,9.945,9.945,0,0,0-.353,1.184,9.651,9.651,0,0,0,.5,5.957c2.1,5.1.822,12.483.822,12.483l-4.124,27.859c-1.98-.3-4.537-.551-5.488,0-1.459.822-.981,4.967,2.406,6.749a8.721,8.721,0,0,1-3.487,1.606c-3.013.689-5.131,1.128-6.526,1.395-.09,0-7.232-1.575-9.065-.534s-.951,6.818,4.266,8.235c5.105,1.382,24.144,3.409,29.628,2.583l.349-.06c4.662-.921.568-7.046.052-7.791-.034-.25-.065-.512-.1-.8-.073-.637-.138-1.369-.185-2.152,5.2.478,10.331.71,12.685.357a1.367,1.367,0,0,0,.31-.056c4.128-.818.512-6.233.047-6.887q-.03-.25-.065-.529v-.047c0-.125-.03-.258-.043-.387a1.672,1.672,0,0,0-.034-.336c-.034-.116,0-.207-.03-.314q-.026-.319-.052-.659v-.28c0-.172-.022-.344-.03-.521v-.288c0-.258,0-.525-.026-.792v-2.1c0-.288.026-.585.043-.882l.026-.319c0-.22.034-.43.056-.654a1.031,1.031,0,0,1,.034-.323c.034-.3.073-.6.116-.908a1.969,1.969,0,0,1,.043-.271c.039-.228.077-.461.12-.693a1.687,1.687,0,0,1,.069-.344q.078-.374.168-.749a.9.9,0,0,1,.047-.207c.077-.3.164-.6.254-.9.03-.1.065-.207.1-.31.073-.224.151-.43.232-.663l.1-.275c.116-.293.241-.581.37-.861.034-.073.073-.146.112-.22.108-.224.224-.43.344-.663l.146-.254c.164-.276.331-.551.516-.814,4.735-6.749,5.983-19.766,5.867-22.6s.564-8.708,1.412-9.578a74.765,74.765,0,0,0,5.85-8.652c.357-.637.667-1.235.913-1.769,1.4-.486,2.333-.861,2.333-.861h0a19.957,19.957,0,0,1-.706-5.549,16.818,16.818,0,0,1,5.2-12.406c6.138-5.785,6.995-11.519,7.077-13.723v-.409C861.731,372.572,861.71,372.374,861.71,372.374Z" transform="translate(-443.141 -178.856)"/>
    <path id="Path_152" data-name="Path 152" class="cls-11" d="M906.181,576.376a73.984,73.984,0,0,1-5.6,8.553c-.809.861-1.459,6.676-1.347,9.47s-1.072,15.673-5.6,22.345-2.2,18.2-2.2,18.2l-7.219,2.531H875.55l-5.975-1.786L868,631.345s2.1-.323,7.318-1.562a6.771,6.771,0,0,0,5.4-6.143l3.663-25.582s1.08-6.457-.7-10.925a8.893,8.893,0,0,1,.585-7.791l.116-.181a72.947,72.947,0,0,1,11.411-7.257c5.1-2.462,10.275-3.633,11.743.736C907.726,573.2,907.106,574.655,906.181,576.376Z" transform="translate(-503.969 -346.756)"/>
    <path id="Path_153" data-name="Path 153" class="cls-12" d="M906.181,576.376a73.984,73.984,0,0,1-5.6,8.553c-.809.861-1.459,6.676-1.347,9.47s-1.072,15.673-5.6,22.345c-3.185,4.7-2.974,11.816-2.583,15.608.168,1.588.374,2.583.374,2.583l-7.219,2.531H875.55l-5.975-1.773L868,631.345s.525-.082,1.722-.314,3.013-.628,5.622-1.248a6.771,6.771,0,0,0,5.376-6.143l3.663-25.582s1.08-6.457-.7-10.925a8.893,8.893,0,0,1,.585-7.791l.116-.181a72.947,72.947,0,0,1,11.411-7.257c5.1-2.462,10.275-3.633,11.743.736C907.726,573.2,907.106,574.655,906.181,576.376Z" transform="translate(-503.969 -346.756)"/>
    <path id="Path_154" data-name="Path 154" class="cls-5" d="M891.442,716.091l-7.219,2.531H875.55l-5.975-1.791L868,712.484s.525-.082,1.722-.314a3.25,3.25,0,0,0,2.5,3.512l3.392.116c.478,0,.96.026,1.433.026a43.251,43.251,0,0,0,14.024-2.329C891.244,715.084,891.442,716.091,891.442,716.091Z" transform="translate(-503.969 -427.895)"/>
    <path id="Path_155" data-name="Path 155" class="cls-13" d="M866.878,715.466l-3.4-.116a3.313,3.313,0,0,1-2.393-4.266s-6.112-1.386-7.675-.469-.809,5.975,3.607,7.214c4.3,1.21,20.429,2.987,25.065,2.26l.3-.052c4.2-.861,0-6.887,0-6.887h0A43.42,43.42,0,0,1,866.878,715.466Z" transform="translate(-495.237 -426.831)"/>
    <path id="Path_156" data-name="Path 156" class="cls-11" d="M876.489,579.076c-.228.456-.474.93-.753,1.425a80.153,80.153,0,0,1-6.147,9.384c-.913.973-1.64,7.533-1.524,10.7s-1.21,17.683-6.315,25.216c-2.613,3.874-3.2,9.147-3.16,13.391q.019,2.157.254,4.3c.189,1.752.43,2.845.43,2.845l-8.144,2.854h-9.8l-6.745-2.006-1.765-4.924s.59-.095,1.916-.357,3.392-.7,6.345-1.4a7.653,7.653,0,0,0,6.082-6.93l4.128-28.87s1.218-7.3-.788-12.333a9.9,9.9,0,0,1-.482-5.893,9.4,9.4,0,0,1,1.291-3.108s1.575-1.24,3.952-2.88c1.05-.723,2.268-1.524,3.577-2.333,5.751-3.56,13.314-7.193,16.938-4.546a4.689,4.689,0,0,1,1.67,2.406C877.6,576.523,877.187,577.655,876.489,579.076Z" transform="translate(-483.932 -348.466)"/>
    <path id="Path_157" data-name="Path 157" class="cls-5" d="M859.254,737.914l-8.144,2.854h-9.78l-6.745-2.006-1.765-4.924s.59-.095,1.916-.357a3.594,3.594,0,0,0,1.145,3.181,3.835,3.835,0,0,0,2.428.913l3.086.1c.538,0,1.081.03,1.619.03a48.965,48.965,0,0,0,15.832-2.634C859.034,736.82,859.254,737.914,859.254,737.914Z" transform="translate(-483.932 -440.032)"/>
    <path id="Path_158" data-name="Path 158" class="cls-13" d="M831.5,737.208l-3.082-.1a3.875,3.875,0,0,1-2.432-.912,3.805,3.805,0,0,1-1.02-3.93s-6.887-1.562-8.665-.529-.908,6.745,4.072,8.144c4.877,1.365,23.059,3.371,28.294,2.553l.332-.06c4.735-.973,0-7.783,0-7.783h0A48.837,48.837,0,0,1,831.5,737.208Z" transform="translate(-474.041 -438.836)"/>
    <path id="Path_159" data-name="Path 159" class="cls-5" d="M915.835,576.388c-2.949,1.029-7.279,2.393-9.655,2.449a4.325,4.325,0,0,1-.736-.034h0c-1.661-.228-6.8.138-11.506.56-1.89.168-3.706.344-5.208.5-2.238.232-3.779.4-3.779.4V578.8c1.05-.723,2.268-1.524,3.577-2.333,5.751-3.56,13.314-7.193,16.938-4.546,5.1-2.462,10.275-3.633,11.743.736C917.38,573.215,916.76,574.666,915.835,576.388Z" transform="translate(-513.623 -346.768)"/>
    <path id="Path_160" data-name="Path 160" class="cls-14" d="M929.938,500.173c-.082,2.182-.9,7.847-6.762,13.572-7.473,7.3-4.3,17.773-4.3,17.773s-8.91,3.5-12.754,3.594a4.319,4.319,0,0,1-.736-.034c-2.307-.323-11.467.525-16.732,1.059-2.238.232-3.779.4-3.779.4V505.545l41.293-10.025,3.741,3.723A6.9,6.9,0,0,1,929.938,500.173Z" transform="translate(-513.577 -304.503)"/>
    <path id="Path_161" data-name="Path 161" class="cls-15" d="M955.5,576.89" transform="translate(-553.805 -350.847)"/>
    <g id="Group_93" data-name="Group 93" class="cls-16" transform="translate(371.31 191.03)">
      <path id="Path_162" data-name="Path 162" d="M885.59,588.432l-.68.073v.327s1.541-.168,3.779-.4c3.779-.383,9.552-.921,13.37-1.08C899.416,587.111,890.687,587.916,885.59,588.432Z" transform="translate(-884.91 -547.81)"/>
      <path id="Path_163" data-name="Path 163" d="M955.442,499.278,951.7,495.55l-2.492.624,3.134,3.121a6.854,6.854,0,0,1,0,.934c-.082,2.178-.9,7.847-6.762,13.572-7.473,7.292-4.3,17.773-4.3,17.773s-7.374,2.893-11.6,3.491a10.674,10.674,0,0,1,1.205.065,4.307,4.307,0,0,0,.736.039c3.844-.095,12.754-3.594,12.754-3.594s-3.185-10.482,4.3-17.773c5.863-5.725,6.681-11.394,6.762-13.572A6.873,6.873,0,0,0,955.442,499.278Z" transform="translate(-910.409 -495.55)"/>
    </g>
    <path id="Path_164" data-name="Path 164" class="cls-11" d="M780.084,450.022s-12.483-8.661-13.4-.861,13.4,6.685,13.4,6.685Z" transform="translate(-446.241 -276.244)"/>
    <path id="Path_165" data-name="Path 165" class="cls-17" d="M816.38,442.13s-6.754,4.468-10.49,4.193c0,0-10.21,1.369-11.4.684s-1.911,9.9-1.911,9.9l16.788-1.184,10.761-1.644s5.381-3.28,5.381-6.108S816.38,442.13,816.38,442.13Z" transform="translate(-461.014 -274.094)"/>
    <path id="Path_166" data-name="Path 166" class="cls-12" d="M816.38,442.13s-6.754,4.468-10.49,4.193c0,0-10.21,1.369-11.4.684s-1.911,9.9-1.911,9.9l16.788-1.184,10.761-1.644s5.381-3.28,5.381-6.108S816.38,442.13,816.38,442.13Z" transform="translate(-461.014 -274.094)"/>
    <path id="Path_167" data-name="Path 167" class="cls-11" d="M808.615,494.471s-15.182-.628-11.781,6.457,14.906-1.515,14.906-1.515Z" transform="translate(-463.153 -303.897)"/>
    <path id="Path_168" data-name="Path 168" class="cls-14" d="M846.13,427.93s-12.307-9.207-10.572-20.421,10.572,8.583,10.572,8.583Z" transform="translate(-485.396 -252.418)"/>
    <path id="Path_169" data-name="Path 169" class="cls-11" d="M811.27,320.826a15.574,15.574,0,0,1-4.378,10.809,14.632,14.632,0,0,1-2.247,1.916,16.051,16.051,0,0,1-5.105,2.359,16.22,16.22,0,0,1-2.208.392c-.534.052-1.072.082-1.619.082a15.176,15.176,0,0,1-5.127-.861,15.557,15.557,0,1,1,20.683-14.678Z" transform="translate(-453.937 -196.15)"/>
    <path id="Path_170" data-name="Path 170" class="cls-5" d="M923.052,500.173c-1.395.258-3.116.723-3.116,1.446,0,1.218-19.448,7.783-19.448,7.783s.727,1.7-1.214,4.614-17.747,19.689-17.747,19.689l.052.5.2,1.933.964,9.237s-6.078-2.187-8.024-1.946a2.668,2.668,0,0,1-1.941-.9,9.4,9.4,0,0,1,1.291-3.108s1.575-1.24,3.952-2.88V505.545l41.293-10.025,3.741,3.723A6.891,6.891,0,0,1,923.052,500.173Z" transform="translate(-506.691 -304.503)"/>
    <path id="Path_171" data-name="Path 171" class="cls-17" d="M900.03,418.419s-4.864.482-4.864,1.7-19.448,7.783-19.448,7.783.727,1.7-1.214,4.614-17.747,19.693-17.747,19.693l1.218,11.665s-6.078-2.187-8.024-1.946c-.861.108-1.829-.693-2.626-1.627a16.931,16.931,0,0,1-1.752-2.5s2.191-9.242-.727-11.428,3.16-18.23,3.16-18.23,2.746-11.407,1.937-16.3a5.878,5.878,0,0,0-.232-.964.347.347,0,0,0-.034-.108c-1.722-4.675-20.386-43.906-20.386-43.906a28.177,28.177,0,0,1,.232-3.327c.039-.306.09-.624.146-.947a16.06,16.06,0,0,1,.379-1.722,10.751,10.751,0,0,1,.353-1.072c.577-1.481,1.459-2.621,2.776-2.647a8.158,8.158,0,0,1,4.881-2.053c2.505-.327,6.082,0,10.925,2.053,11.42,4.855,14.1,5.105,14.1,5.105l5.738,7.533,1.18,1.545a148.888,148.888,0,0,1,11.713,17.778c1.911,3.444,4.619,7.443,7.864,9.849C896.139,403.835,900.03,418.419,900.03,418.419Z" transform="translate(-481.922 -224.461)"/>
    <path id="Path_172" data-name="Path 172" class="cls-5" d="M894.65,437.05s16.228,4.012,22.517,14.127Z" transform="translate(-519.147 -271.201)"/>
    <path id="Path_173" data-name="Path 173" class="cls-5" d="M906.3,478.34s3.069,20.606,2.217,22.155S906.3,478.34,906.3,478.34Z" transform="translate(-525.783 -294.718)"/>
    <path id="Path_174" data-name="Path 174" class="cls-5" d="M885.206,496.018c-1.179,1.545-5.97,13.49-5.97,13.49l1.382,20.059,1.218,11.665s-6.074-2.187-8.019-1.946c-.861.108-1.834-.693-2.626-1.627,1.261-6.831,3.96-21.127,4.447-21.4.641-.366,3.926-11.85,4.1-15.066s4.735-10.383,4.735-10.383S886.394,494.473,885.206,496.018Z" transform="translate(-505.786 -301.82)"/>
    <path id="Path_175" data-name="Path 175" class="cls-5" d="M856.757,406.228c-.3.908-.766,6.2-.766,6.2-.336,4.657-3.874,6.181-6.048,6.672a5.873,5.873,0,0,0-.232-.964c-1.459-4.128-20.421-44-20.421-44a26.187,26.187,0,0,1,.758-6c4.128-1.214,10.662.654,10.662.654,1.89-.25,8.054,12.005,8.054,12.005s4.106,9.384,4.558,10.662,0,3.375.181,4.107,2.1,1.36,2.372,2.367.095,3.013.275,3.37S857.063,405.316,856.757,406.228Z" transform="translate(-481.922 -231.719)"/>
    <path id="Path_176" data-name="Path 176" class="cls-18" d="M850.028,404.519c-.3.913-.766,6.2-.766,6.2a6.885,6.885,0,0,1-4.856,6.332,10.176,10.176,0,0,1-2.918.581l-2.931,2.548-13.538,9.965s-5.045-9.328-3.676-9.38,9.263-6.681,9.263-6.681c2.415-1.291,4.834-5.6,5.957-7.808a6.839,6.839,0,0,1-.146-.8c-.486-4.128-10.7-19.934-10.7-19.934s-3.947-4.645-5.484-13.249c-.043-.2-.073-.4-.112-.607a6.18,6.18,0,0,1-.077-.809c-.185-3.31,2.225-4.515,5.084-4.8h0a20.4,20.4,0,0,1,4.477.138,32.407,32.407,0,0,1,4.378.861c1.222-.164,4.236,4.92,6.211,8.523h0c1.063,1.954,1.829,3.478,1.829,3.478s4.106,9.388,4.558,10.662,0,3.379.181,4.106,2.1,1.365,2.372,2.372.095,3.013.276,3.37S850.333,403.606,850.028,404.519Z" transform="translate(-476.652 -230.741)"/>
    <path id="Path_177" data-name="Path 177" class="cls-5" d="M842.986,348.9c-2.583,2.639-6.754,2.647-10.1,1.291s-6.186-3.784-9.289-5.673c-2.014-1.231-4.15-2.238-6.134-3.508h0c-.293-.189-.577-.379-.861-.577-2.29-1.619-4.274-3.7-6.646-5.165a10.33,10.33,0,0,0-5.338-1.722,6.069,6.069,0,0,0-2.544.534,3.435,3.435,0,0,0-.43.211,10.976,10.976,0,0,0-2.152,1.614c-.672.6-1.313,1.244-2.019,1.808-.043-.2-.073-.4-.112-.607a6.181,6.181,0,0,1-.077-.809c-.534.052-1.072.082-1.618.082a15.178,15.178,0,0,1-5.127-.861.349.349,0,0,0-.039-.194c-.581-3.065-1.631-6.31-4.1-8.032-1.429-1-3.71-1.408-5.69-2.152a15.556,15.556,0,1,1,29.314,1.683c2.505-.327,6.082,0,10.925,2.053,11.42,4.856,14.1,5.105,14.1,5.105l5.738,7.533A6.44,6.44,0,0,0,839.4,344.5C839.288,346.532,841.264,347.948,842.986,348.9Z" transform="translate(-453.907 -196.158)"/>
    <path id="Path_178" data-name="Path 178" class="cls-19" d="M782.135,311.544c2.466,1.722,3.517,4.963,4.1,8.024a6.256,6.256,0,0,0,.938,2.72c1.291,1.7,3.943,1.218,5.652,0s3.056-3.065,4.963-3.926c2.531-1.145,5.51-.31,7.882,1.175s4.356,3.564,6.646,5.165c2.217,1.563,4.688,2.677,6.995,4.085,3.1,1.89,5.94,4.33,9.289,5.673s7.533,1.339,10.1-1.291c-1.722-.956-3.7-2.367-3.564-4.416s2.518-3.577,2.359-5.678-2.63-2.923-4.4-3.956c-3.7-2.152-5.282-6.887-6.074-11.256-.616-3.418-1.124-7.236-3.676-9.431-1.649-1.412-3.874-1.872-5.536-3.271-1.571-1.33-2.445-3.34-3.444-5.2a20.664,20.664,0,0,0-6.676-7.8,10.706,10.706,0,0,0-9.646-1.317c-1.205.478-2.3,1.218-3.491,1.722-2.961,1.291-6.349,1.106-9.281,2.454-3.612,1.662-5.957,5.329-8.105,8.811-1.817,2.983-5.419,8.243-4.4,12.117C773.779,309.887,779.457,309.676,782.135,311.544Z" transform="translate(-449.626 -181.875)"/>
    <g id="Group_94" data-name="Group 94" class="cls-16" transform="translate(322.949 118.779)">
      <path id="Path_179" data-name="Path 179" d="M921.21,378.613a2.706,2.706,0,0,0-.082-.474,7.284,7.284,0,0,0-1.545,3.233,2.937,2.937,0,0,0,.069.831C920.379,381.046,921.313,379.956,921.21,378.613Z" transform="translate(-856.294 -356.428)"/>
      <path id="Path_180" data-name="Path 180" d="M829.315,358.365c-3.349-1.343-6.181-3.784-9.285-5.673-2.312-1.408-4.782-2.522-7-4.085-2.29-1.619-4.274-3.7-6.646-5.165s-5.346-2.32-7.881-1.179c-1.907.861-3.25,2.69-4.963,3.93s-4.339,1.722-5.652,0a6.258,6.258,0,0,1-.938-2.72c-.581-3.06-1.636-6.3-4.1-8.024-2.682-1.872-8.359-1.662-9.388-5.6a6.114,6.114,0,0,1-.133-2.152,8.6,8.6,0,0,0-.6,5.058c1.033,3.952,6.711,3.741,9.388,5.6,2.466,1.722,3.517,4.967,4.1,8.028a6.309,6.309,0,0,0,.934,2.72c1.291,1.7,3.943,1.218,5.656-.021s3.052-3.065,4.963-3.926c2.531-1.141,5.51-.306,7.882,1.179s4.356,3.564,6.646,5.165c2.217,1.567,4.688,2.677,6.995,4.085,3.1,1.894,5.94,4.335,9.289,5.678s7.533,1.334,10.1-1.291a12.376,12.376,0,0,1-1.881-1.244A10.727,10.727,0,0,1,829.315,358.365Z" transform="translate(-772.561 -327.7)"/>
    </g>
    <path id="Path_181" data-name="Path 181" class="cls-14" d="M720.688,450.046l34.436-12.862a3.271,3.271,0,0,1,4.214,1.92h0a3.276,3.276,0,0,1-1.924,4.214l-34.436,12.866-7.378-.74Z" transform="translate(-417.17 -271.159)"/>
    <path id="Path_182" data-name="Path 182" class="cls-20" d="M758.281,438.74h0a3.28,3.28,0,0,1-1.924,4.218L721.921,455.82l-5.544-.555-.8.861,7.378.74L757.394,444a3.276,3.276,0,0,0,1.924-4.214h0a3.262,3.262,0,0,0-1.339-1.636A3.558,3.558,0,0,1,758.281,438.74Z" transform="translate(-417.158 -271.828)"/>
    <path id="Path_183" data-name="Path 183" class="cls-21" d="M698.388,415.58l2.294,6.138-6.057-.607-1.326-.133,1.812-1.92Z" transform="translate(-394.87 -236.693)"/>
    <path id="Path_184" data-name="Path 184" class="cls-22" d="M717.419,475.42a1.312,1.312,0,0,1,.353.387.555.555,0,0,1,0,.6,1.345,1.345,0,0,1-.336.237,1.1,1.1,0,0,0-.491.831l-1.326-.133Z" transform="translate(-417.181 -293.055)"/>
    <path id="Path_185" data-name="Path 185" class="cls-23" d="M649.385,296.655l-5.807-2.832a.7.7,0,0,1-.323-.938l.616-1.266a.7.7,0,0,1,.938-.323l3.913,1.907,4.085-8.377a.706.706,0,0,1,.938-.327l1.266.62a.7.7,0,0,1,.323.938l-5.01,10.275A.7.7,0,0,1,649.385,296.655Z" transform="translate(-375.926 -184.276)"/>
    <path id="Path_186" data-name="Path 186" class="cls-23" d="M678.855,380.813l-5.807-2.832a.7.7,0,0,1-.323-.938l.615-1.266a.706.706,0,0,1,.943-.323l3.909,1.907,4.081-8.385a.706.706,0,0,1,.938-.327l1.261.62a.7.7,0,0,1,.327.938l-5.011,10.275a.71.71,0,0,1-.943.323Z" transform="translate(-392.71 -232.204)"/>
    <path id="Path_187" data-name="Path 187" class="cls-23" d="M665.623,339.32l-5.807-2.832a.706.706,0,0,1-.327-.938l.62-1.266a.7.7,0,0,1,.938-.323l3.913,1.907,4.085-8.39a.7.7,0,0,1,.938-.323l1.266.616a.71.71,0,0,1,.323.943L666.557,339a.7.7,0,0,1-.938.323Z" transform="translate(-385.172 -208.57)"/>
    <path id="Path_188" data-name="Path 188" class="cls-23" d="M691.655,418.824l-5.807-2.832a.7.7,0,0,1-.323-.938l.615-1.266a.7.7,0,0,1,.938-.323l3.913,1.907L695.077,407a.71.71,0,0,1,.943-.327l1.261.62a.7.7,0,0,1,.323.938L692.6,418.5A.71.71,0,0,1,691.655,418.824Z" transform="translate(-400 -253.858)"/>
    <path id="Path_189" data-name="Path 189" class="cls-23" d="M186.19,693.36s2.561,3.349-1.179,8.4-6.831,9.324-5.6,12.483c0,0,5.648-9.388,10.24-9.517S191.243,699.007,186.19,693.36Z" transform="translate(-111.629 -417.182)"/>
    <path id="Path_190" data-name="Path 190" class="cls-5" d="M186.4,693.36a4.127,4.127,0,0,1,.525,1.05c4.481,5.269,6.887,10.185,2.561,10.331-4.016.112-8.833,7.292-9.982,9.1a3.3,3.3,0,0,0,.133.43s5.648-9.388,10.24-9.517S191.449,699.007,186.4,693.36Z" transform="translate(-111.835 -417.182)"/>
    <path id="Path_191" data-name="Path 191" class="cls-24" d="M205.8,702.273c0,1.175-.133,2.152-.3,2.152s-.293-.956-.293-2.152.164-.624.327-.624S205.8,701.094,205.8,702.273Z" transform="translate(-126.478 -421.825)"/>
    <path id="Path_192" data-name="Path 192" class="cls-24" d="M207.7,705.45c-1.033.564-1.937.908-2.014.762s.7-.715,1.722-1.291.624-.155.7,0S208.735,704.886,207.7,705.45Z" transform="translate(-126.744 -423.599)"/>
    <path id="Path_193" data-name="Path 193" class="cls-23" d="M156.515,693.36s-2.557,3.349,1.184,8.4,6.827,9.324,5.6,12.483c0,0-5.643-9.388-10.24-9.517S151.461,699.007,156.515,693.36Z" transform="translate(-95.479 -417.182)"/>
    <path id="Path_194" data-name="Path 194" class="cls-5" d="M156.485,693.36a4.221,4.221,0,0,0-.521,1.05c-4.485,5.269-6.887,10.185-2.561,10.331,4.012.112,8.829,7.292,9.982,9.1a3.319,3.319,0,0,1-.138.43S157.6,704.849,153,704.72,151.432,699.007,156.485,693.36Z" transform="translate(-95.449 -417.182)"/>
    <path id="Path_195" data-name="Path 195" class="cls-24" d="M153.05,702.273c0,1.175.129,2.152.293,2.152s.3-.956.3-2.152-.164-.624-.327-.624S153.05,701.094,153.05,702.273Z" transform="translate(-96.77 -421.825)"/>
    <path id="Path_196" data-name="Path 196" class="cls-24" d="M148.424,705.45c1.037.564,1.937.908,2.014.762s-.7-.715-1.722-1.291-.628-.155-.706,0S147.391,704.886,148.424,705.45Z" transform="translate(-93.78 -423.599)"/>
    <ellipse id="Ellipse_144" data-name="Ellipse 144" class="cls-1" cx="26.77" cy="4.107" rx="26.77" ry="4.107" transform="translate(41.033 314.454)"/>
    <path id="Path_197" data-name="Path 197" class="cls-25" d="M175.339,729.307l-.129,1.046-.176,1.477-.077.615-.176,1.477-.082.615-.176,1.477L172.472,752.8c-.185,1.5-2.634,2.669-5.6,2.669H156.24c-2.957,0-5.4-1.171-5.6-2.669L148.6,736.013l-.181-1.477-.073-.615-.185-1.477-.073-.615-.181-1.477-.129-1.046c-.1-.861,1.222-1.567,2.9-1.567h21.777C174.125,727.74,175.447,728.459,175.339,729.307Z" transform="translate(-93.762 -436.763)"/>
    <path id="Path_198" data-name="Path 198" class="cls-26" d="M153.109,682.05l-.181,1.476H125.986l-.176-1.476Z" transform="translate(-71.657 -388.46)"/>
    <path id="Path_199" data-name="Path 199" class="cls-26" d="M153.191,686.91l-.181,1.477h-26.43l-.181-1.477Z" transform="translate(-71.993 -391.228)"/>
    <path id="Path_200" data-name="Path 200" class="cls-26" d="M153.269,691.77l-.181,1.477H127.171l-.181-1.477Z" transform="translate(-72.329 -393.996)"/>
  </g>
</svg>
