<svg xmlns="http://www.w3.org/2000/svg" xmlns:xlink="http://www.w3.org/1999/xlink" width="344.274" height="273.937" viewBox="0 0 344.274 273.937">
  <defs>
    <style>
      .cls-1 {
        fill: #f8f8f8;
      }

      .cls-2 {
        fill: url(#linear-gradient);
      }

      .cls-3 {
        fill: #b77983;
      }

      .cls-4 {
        fill: #d39999;
      }

      .cls-5 {
        opacity: 0.05;
      }

      .cls-6 {
        fill: #e5f1fb;
      }

      .cls-10, .cls-7 {
        opacity: 0.1;
      }

      .cls-10, .cls-8 {
        fill: #0874d9;
      }

      .cls-9 {
        fill: #ffd037;
      }

      .cls-11 {
        fill: #f6f7f9;
      }
    </style>
    <linearGradient id="linear-gradient" x1="0.5" y1="1" x2="0.5" gradientUnits="objectBoundingBox">
      <stop offset="0" stop-color="gray" stop-opacity="0.251"/>
      <stop offset="0.54" stop-color="gray" stop-opacity="0.122"/>
      <stop offset="1" stop-color="gray" stop-opacity="0.102"/>
    </linearGradient>
  </defs>
  <g id="undraw_upload_87y9" transform="translate(-5.529 -20.21)">
    <path id="Path_400" data-name="Path 400" class="cls-1" d="M259.243,69.485C246.5,64.3,233.03,59.967,219.28,60.519a59.419,59.419,0,0,0-49.124,30.808c-8.065,15.124-9.059,32.855-12.532,49.639-4.279,20.682-12.474,40.336-21.231,59.558-4.7,10.31-9.666,20.871-10.437,32.19-1.073,15.711,6.439,31.37,18.217,41.831s27.43,15.964,43.124,17.168c8.356.641,17.086.048,24.509-3.84,7.852-4.115,13.575-11.552,21.457-15.6,7.307-3.772,15.851-4.286,24.053-3.8a107.708,107.708,0,0,1,31.4,6.672c11.462,4.306,22.123,10.54,33.561,14.9s24.218,6.8,35.91,3.158c10.972-3.429,19.661-11.727,27.489-20.144a352.533,352.533,0,0,0,35.042-44.334c7.06-10.574,13.629-21.732,16.753-34.058,5.966-23.563-2.246-50.15-20.467-66.244-15.087-13.331-35.347-19.119-55.176-22.63-18.08-3.2-38.985-3.4-55.629-11.747C290.328,86.077,275.886,76.254,259.243,69.485Z" transform="translate(-89.596 -24.268)"/>
    <path id="Path_402" data-name="Path 402" class="cls-2" d="M855.405,216.632c.056-.126.1-.259.144-.392a8.2,8.2,0,0,0-.37.906C855.258,216.972,855.335,216.8,855.405,216.632Z" transform="translate(-549.294 -140.79)"/>
    <path id="Path_404" data-name="Path 404" class="cls-3" d="M753.479,566.792c-.133,1.645-4.181,1.024-4.181,1.024-6.714.932-5.6-5.649-5.6-5.649v-.336l.233-6.137.067-1.712s7.394-3.379,7.205-2.669a4.206,4.206,0,0,0,.3,1.6c.37,1.15.9,2.451.9,2.451a22.1,22.1,0,0,1-.177,3.512c-.222.8,1.157,2.935,1.157,2.935s0,.133.022.37A43.11,43.11,0,0,1,753.479,566.792Z" transform="translate(-478.98 -351.926)"/>
    <path id="Path_409" data-name="Path 409" class="cls-4" d="M763.626,216.03C761.493,219.941,763.53,216.148,763.626,216.03Z" transform="translate(-485.796 -140.658)"/>
    <path id="Path_411" data-name="Path 411" class="cls-5" d="M752.091,552.91c-2.78,3.305-5.782,3.25-7.571,2.784l.067-1.712s7.394-3.379,7.205-2.669A3.927,3.927,0,0,0,752.091,552.91Z" transform="translate(-479.544 -351.926)"/>
    <path id="Path_414" data-name="Path 414" class="cls-5" d="M806.13,489.35s4.492-2.588,5.471-1.423S806.13,489.35,806.13,489.35Z" transform="translate(-518.378 -311.845)"/>
    <path id="Path_415" data-name="Path 415" class="cls-5" d="M813.185,496.14s-.739.37.891.843S813.185,496.14,813.185,496.14Z" transform="translate(-522.719 -317.212)"/>
    <path id="Path_416" data-name="Path 416" class="cls-5" d="M739.993,476.793c-.152.044,3.738,2.625,7.25.488C747.228,477.281,740.869,476.527,739.993,476.793Z" transform="translate(-476.688 -304.982)"/>
    <path id="Path_417" data-name="Path 417" class="cls-5" d="M752.675,490.24a4.767,4.767,0,0,1-3.246,2.4C747.247,492.954,752.675,490.24,752.675,490.24Z" transform="translate(-482.313 -313.493)"/>
    <path id="Path_418" data-name="Path 418" class="cls-5" d="M797.71,502.52s5.117,8.133,4.137,10.052S797.71,502.52,797.71,502.52Z" transform="translate(-513.07 -321.233)"/>
    <path id="Path_429" data-name="Path 429" class="cls-5" d="M753.526,583.448a10.5,10.5,0,0,1-.044,1.231c-.133,1.645-4.181,1.024-4.181,1.024-3.7.514-5.028-1.261-5.468-2.958a6.771,6.771,0,0,1-.2-1.686,6.994,6.994,0,0,1,.067-1.013v-.336a2.473,2.473,0,0,1,2.3.469,3.905,3.905,0,0,0,3.826.311,5.133,5.133,0,0,1,2.218.665c.348.3.921-.422,1.357-1.109.026.444.067,1.246.092,2.1C753.519,582.59,753.526,583.034,753.526,583.448Z" transform="translate(-478.983 -369.821)"/>
    <path id="Path_430" data-name="Path 430" class="cls-5" d="M747.035,585.857s-1.109,1.087-3.2-.591a6.777,6.777,0,0,1-.2-1.686A19.345,19.345,0,0,0,747.035,585.857Z" transform="translate(-478.983 -372.326)"/>
    <path id="Path_431" data-name="Path 431" class="cls-5" d="M768.352,587.781a.835.835,0,0,1-1.2-.192,7.913,7.913,0,0,0,1.183-1.109C768.344,586.924,768.352,587.367,768.352,587.781Z" transform="translate(-493.808 -374.154)"/>
    <path id="Path_434" data-name="Path 434" class="cls-5" d="M793.868,589.841a.832.832,0,0,0,1.2-.192,7.818,7.818,0,0,1-1.183-1.109C793.872,588.98,793.865,589.424,793.868,589.841Z" transform="translate(-510.648 -375.452)"/>
    <path id="Path_451" data-name="Path 451" class="cls-6" d="M310.07,520.668a5.083,5.083,0,0,1-1.135-3.871l16.318-133.523,1.353-11.091a5.12,5.12,0,0,1,5.043-4.5l47.8-.318a5.113,5.113,0,0,0,5.08-5.253l-.019-.507a5.117,5.117,0,0,1,5.113-5.29h50.227a5.113,5.113,0,0,1,5.113,5.1,5.458,5.458,0,0,1-.044.688,5.113,5.113,0,0,0,4.939,5.789l48.238,1.231A5.109,5.109,0,0,1,503,375.1L478.887,515.958l-.455,2.662a5,5,0,0,1-.739,1.908Z" transform="translate(-204.969 -229.083)"/>
    <path id="Path_457" data-name="Path 457" class="cls-7" d="M438.374,528.709c-11.564-1.36-23.195-4.163-33.165-9.3a100.6,100.6,0,0,1-21.679-14.562c17.036-1.383,19.483-10.7,19.483-10.7C415.642,514.191,438.374,528.709,438.374,528.709Z" transform="translate(-252.011 -315.958)"/>
    <path id="Path_494" data-name="Path 494" class="cls-7" d="M477.686,564.166a3.811,3.811,0,0,1-2.447.865l-165.169-.7a5.083,5.083,0,0,1-1.135-3.871l16.318-133.523,10.233-.111a3.867,3.867,0,0,1,3.771,2.854l1.911,7.054a3.867,3.867,0,0,0,3.823,2.854l40.84-.98a3.867,3.867,0,0,0,3.775-3.867v-4.673a3.867,3.867,0,0,1,3.823-3.867l56.593-.61a3.867,3.867,0,0,1,3.834,3.139L478.884,559.6l.163.843A3.845,3.845,0,0,1,477.686,564.166Z" transform="translate(-204.969 -272.744)"/>
    <path id="Path_495" data-name="Path 495" class="cls-8" d="M390.813,430.6l-56.593.61a3.867,3.867,0,0,0-3.826,3.863v4.677a3.867,3.867,0,0,1-3.771,3.863l-40.836.98a3.863,3.863,0,0,1-3.826-2.854l-1.919-7.05a3.863,3.863,0,0,0-3.775-2.854l-54.549.588a3.863,3.863,0,0,0-3.771,4.51l21.945,129.157a3.867,3.867,0,0,0,3.8,3.22l172.33.739a3.867,3.867,0,0,0,3.812-4.592L394.646,433.738A3.863,3.863,0,0,0,390.813,430.6Z" transform="translate(-147.608 -275.902)"/>
    <path id="Path_512" data-name="Path 512" class="cls-9" d="M44.66,709.466c0,.37.041.669.092.669s.092-.3.092-.669-.052-.2-.1-.2S44.66,709.1,44.66,709.466Z" transform="translate(-38.419 -451.524)"/>
    <path id="Path_513" data-name="Path 513" class="cls-9" d="M42.932,710.638c.325.177.606.281.632.237s-.218-.222-.543-.4-.2-.048-.222,0S42.606,710.461,42.932,710.638Z" transform="translate(-37.204 -452.252)"/>
    <circle id="Ellipse_211" data-name="Ellipse 211" class="cls-10" cx="7.997" cy="7.997" r="7.997" transform="translate(6.681 45.605)"/>
    <circle id="Ellipse_213" data-name="Ellipse 213" class="cls-10" cx="7.997" cy="7.997" r="7.997" transform="translate(247.452 20.21)"/>
    <circle id="Ellipse_214" data-name="Ellipse 214" class="cls-10" cx="13.401" cy="13.401" r="13.401" transform="translate(17.269 84.315)"/>
    <path id="Path_520" data-name="Path 520" class="cls-11" d="M462.66,609.645l-.473-.473a.506.506,0,0,1,0-.739l4.152-4.155a.507.507,0,0,1,.739,0l4.152,4.152a.514.514,0,0,1,0,.739l-.473.473a.514.514,0,0,1-.739,0l-2.455-2.588v6.141a.51.51,0,0,1-.51.514h-.684a.514.514,0,0,1-.514-.514v-6.133l-2.455,2.588a.514.514,0,0,1-.739,0Z" transform="translate(-301.487 -385.27)"/>
    <path id="Path_521" data-name="Path 521" class="cls-11" d="M458.414,592.449a8.425,8.425,0,1,1-8.425,8.425,8.425,8.425,0,0,1,8.425-8.425m0-1.109a9.534,9.534,0,1,0,9.534,9.534A9.534,9.534,0,0,0,458.414,591.34Z" transform="translate(-293.201 -377.217)"/>
  </g>
</svg>
