<svg xmlns="http://www.w3.org/2000/svg" width="44" height="44" viewBox="0 0 44 44">
  <path id="directions-solid" d="M43.192,20.051,23.949.807a2.757,2.757,0,0,0-3.9,0L.807,20.051a2.757,2.757,0,0,0,0,3.9L20.051,43.192a2.756,2.756,0,0,0,3.9,0L43.192,23.949a2.757,2.757,0,0,0,0-3.9ZM34.515,21.13l-7.237,6.68a.688.688,0,0,1-1.154-.505V22.687h-8.25v5.5a.687.687,0,0,1-.687.687h-2.75a.687.687,0,0,1-.687-.687V21.312a2.75,2.75,0,0,1,2.75-2.75h9.625V13.945a.688.688,0,0,1,1.154-.505l7.237,6.68A.688.688,0,0,1,34.515,21.13Z" fill="#0874d9"/>
</svg>
