<?xml version="1.0" encoding="utf-8"?>
<!-- Generator: Adobe Illustrator 23.0.1, SVG Export Plug-In . SVG Version: 6.00 Build 0)  -->
<svg version="1.1" id="Layer_1" xmlns="http://www.w3.org/2000/svg" xmlns:xlink="http://www.w3.org/1999/xlink" x="0px" y="0px"
	 viewBox="0 0 728 796.4" style="enable-background:new 0 0 728 796.4;" xml:space="preserve">
<style type="text/css">
	.st0{fill:url(#SVGID_1_);}
	.st1{fill:#FCFCFC;}
	.st2{fill:#E0E0E0;}
	.st3{opacity:0.5;fill:#0874D9;enable-background:new    ;}
	.st4{opacity:0.61;fill:#0874D9;enable-background:new    ;}
	.st5{opacity:0.5;fill:#E0E0E0;enable-background:new    ;}
	.st6{fill:#F8F8F8;}
	.st7{fill:url(#SVGID_2_);}
	.st8{fill:#F5F5F5;}
	.st9{opacity:0.5;}
	.st10{fill:url(#SVGID_3_);}
	.st11{fill:#0874D9;}
	.st12{fill:url(#SVGID_4_);}
	.st13{fill:#FFFFFF;}
	.st14{fill:url(#SVGID_5_);}
	.st15{opacity:0.5;fill:#EAEAEA;enable-background:new    ;}
	.st16{fill:url(#SVGID_6_);}
</style>
<title>add file2</title>
<linearGradient id="SVGID_1_" gradientUnits="userSpaceOnUse" x1="506.015" y1="38.19" x2="506.015" y2="744.19" gradientTransform="matrix(1 0 0 -1 -236 744.19)">
	<stop  offset="0" style="stop-color:#B3B3B3;stop-opacity:0.25"/>
	<stop  offset="0.54" style="stop-color:#B3B3B3;stop-opacity:0.1"/>
	<stop  offset="1" style="stop-color:#B3B3B3;stop-opacity:5.000000e-02"/>
</linearGradient>
<path class="st0" d="M414,643c0-51.8,51.1-99.5,102.9-99.5c7.9,0,15.6-2,23-0.2c0.1-2.3,0.2-15.5,0.2-17.8V0H92L0,94.5V706h423
	C413.9,691.6,414,661.3,414,643z"/>
<path class="st1" d="M406,653c0-64.6,52.4-117,117-117c3.5,0,7,0.2,10.5,0.5V265.2H8.5V694h404.9C408.5,680.9,406,667,406,653z"/>
<polygon class="st1" points="533.1,269.2 6.9,269.2 6.9,94.5 92,5.5 533.1,5.5 "/>
<rect x="357.6" y="58.6" class="st2" width="142.7" height="10.9"/>
<rect x="357.6" y="98.6" class="st2" width="142.7" height="10.9"/>
<rect x="357.6" y="138.6" class="st2" width="142.7" height="10.9"/>
<rect x="357.6" y="178.6" class="st3" width="142.7" height="10.9"/>
<rect x="357.6" y="218.6" class="st2" width="142.7" height="10.9"/>
<rect x="357.6" y="258.6" class="st2" width="142.7" height="10.9"/>
<rect x="84.7" y="343.6" class="st4" width="142.7" height="10.9"/>
<rect x="84.7" y="387.1" class="st2" width="142.7" height="10.9"/>
<rect x="84.7" y="365.4" class="st5" width="372.6" height="10.9"/>
<rect x="84.7" y="448.8" class="st4" width="142.7" height="10.9"/>
<rect x="84.7" y="492.4" class="st2" width="142.7" height="10.9"/>
<rect x="84.7" y="470.6" class="st2" width="372.6" height="10.9"/>
<rect x="84.7" y="554.1" class="st4" width="142.7" height="10.9"/>
<rect x="84.7" y="597.6" class="st2" width="142.7" height="10.9"/>
<rect x="84.7" y="575.8" class="st2" width="305.4" height="10.9"/>
<polygon class="st6" points="310,281 50,281 50,54 59,43 79.8,43 310,43 "/>
<linearGradient id="SVGID_2_" gradientUnits="userSpaceOnUse" x1="49.455" y1="699.5" x2="49.455" y2="792.5" gradientTransform="matrix(1 0 0 -1 0 796)">
	<stop  offset="0" style="stop-color:#B3B3B3;stop-opacity:0.25"/>
	<stop  offset="0.54" style="stop-color:#B3B3B3;stop-opacity:0.1"/>
	<stop  offset="1" style="stop-color:#B3B3B3;stop-opacity:5.000000e-02"/>
</linearGradient>
<polygon class="st7" points="4.9,96.5 94,96.5 94,3.5 "/>
<polygon class="st8" points="6.9,94.5 92,94.5 92,5.5 "/>
<g class="st9">
	
		<linearGradient id="SVGID_3_" gradientUnits="userSpaceOnUse" x1="627.87" y1="-0.38" x2="627.87" y2="199.88" gradientTransform="matrix(1 0 0 -1 0 796)">
		<stop  offset="0" style="stop-color:#808080;stop-opacity:0.25"/>
		<stop  offset="0.54" style="stop-color:#808080;stop-opacity:0.12"/>
		<stop  offset="1" style="stop-color:#808080;stop-opacity:0.1"/>
	</linearGradient>
	<circle class="st10" cx="627.9" cy="696.2" r="100.1"/>
</g>
<circle class="st11" cx="627.9" cy="696.2" r="93.7"/>
<g class="st9">
	
		<linearGradient id="SVGID_4_" gradientUnits="userSpaceOnUse" x1="627.87" y1="49.18" x2="627.87" y2="150.32" gradientTransform="matrix(1 0 0 -1 0 796)">
		<stop  offset="0" style="stop-color:#808080;stop-opacity:0.25"/>
		<stop  offset="0.54" style="stop-color:#808080;stop-opacity:0.12"/>
		<stop  offset="1" style="stop-color:#808080;stop-opacity:0.1"/>
	</linearGradient>
	<polygon class="st12" points="678.4,685 639.2,685 639.2,645.7 616.6,645.7 616.6,685 577.3,685 577.3,707.5 616.6,707.5 
		616.6,746.8 639.2,746.8 639.2,707.5 678.4,707.5 	"/>
</g>
<rect x="618.3" y="653.3" class="st13" width="19.2" height="86"/>
<rect x="584.9" y="686.7" class="st13" width="86" height="19.2"/>
<linearGradient id="SVGID_5_" gradientUnits="userSpaceOnUse" x1="611.015" y1="-6.81" x2="611.015" y2="699.19" gradientTransform="matrix(1 0 0 -1 -236 744.19)">
	<stop  offset="0" style="stop-color:#B3B3B3;stop-opacity:0.25"/>
	<stop  offset="0.54" style="stop-color:#B3B3B3;stop-opacity:0.1"/>
	<stop  offset="1" style="stop-color:#B3B3B3;stop-opacity:5.000000e-02"/>
</linearGradient>
<path class="st14" d="M519,688c0-51.8,51.1-99.5,102.9-99.5c7.9,0,15.6-2,23-0.2c0.1-2.3,0.2-15.5,0.2-17.8V45H197l-92,94.5V751h423
	C518.9,736.6,519,706.3,519,688z"/>
<path class="st13" d="M511,698c0-64.6,52.4-117,117-117l0,0c3.5,0,7,0.2,10.5,0.5V310.2h-525V739h404.9C513.5,725.9,511,712,511,698
	z"/>
<polygon class="st13" points="638.1,314.2 111.9,314.2 111.9,139.5 197,50.5 638.1,50.5 "/>
<rect x="462.6" y="103.6" class="st2" width="142.7" height="10.9"/>
<rect x="462.6" y="143.6" class="st2" width="142.7" height="10.9"/>
<rect x="462.6" y="183.6" class="st2" width="142.7" height="10.9"/>
<rect x="462.6" y="223.6" class="st4" width="142.7" height="10.9"/>
<rect x="462.6" y="263.6" class="st2" width="142.7" height="10.9"/>
<rect x="462.6" y="303.6" class="st2" width="142.7" height="10.9"/>
<rect x="189.7" y="388.6" class="st4" width="142.7" height="10.9"/>
<rect x="189.7" y="432.1" class="st2" width="142.7" height="10.9"/>
<rect x="189.7" y="410.4" class="st15" width="372.6" height="10.9"/>
<rect x="189.7" y="493.8" class="st4" width="142.7" height="10.9"/>
<rect x="189.7" y="537.4" class="st2" width="142.7" height="10.9"/>
<rect x="189.7" y="515.6" class="st2" width="372.6" height="10.9"/>
<rect x="189.7" y="599.1" class="st4" width="142.7" height="10.9"/>
<rect x="189.7" y="642.6" class="st2" width="142.7" height="10.9"/>
<rect x="189.7" y="620.8" class="st2" width="305.4" height="10.9"/>
<polygon class="st6" points="415,326 155,326 155,99 164,88 184.8,88 415,88 "/>
<linearGradient id="SVGID_6_" gradientUnits="userSpaceOnUse" x1="154.455" y1="654.5" x2="154.455" y2="747.5" gradientTransform="matrix(1 0 0 -1 0 796)">
	<stop  offset="0" style="stop-color:#B3B3B3;stop-opacity:0.25"/>
	<stop  offset="0.54" style="stop-color:#B3B3B3;stop-opacity:0.1"/>
	<stop  offset="1" style="stop-color:#B3B3B3;stop-opacity:5.000000e-02"/>
</linearGradient>
<polygon class="st16" points="109.9,141.5 199,141.5 199,48.5 "/>
<polygon class="st1" points="111.9,139.5 197,139.5 197,50.5 "/>
</svg>
