<svg id="Layer_1" data-name="Layer 1" xmlns="http://www.w3.org/2000/svg" viewBox="0 0 123.25 40"><defs><style>.cls-1{isolation:isolate;}.cls-2{fill:#0874d9;}.cls-3{fill:#212121;}</style></defs><title>logo</title><g class="cls-1"><path class="cls-2" d="M47.25,6A3.72,3.72,0,0,1,51,9.75v17.5A3.72,3.72,0,0,1,47.25,31H41v6.25A3.72,3.72,0,0,1,37.25,41H4.75a3.62,3.62,0,0,1-2.66-1.09A3.62,3.62,0,0,1,1,37.25V14.75a3.62,3.62,0,0,1,1.09-2.66A3.62,3.62,0,0,1,4.75,11H11V4.75a3.62,3.62,0,0,1,1.09-2.66A3.62,3.62,0,0,1,14.75,1H26.23A2.33,2.33,0,0,1,28,1.7L32.25,6Zm-10,31.25V31H14.75A3.72,3.72,0,0,1,11,27.25V14.75H4.75v22.5Zm10-10V9.75H31.7A2.35,2.35,0,0,1,30,9.05l-4.29-4.3H14.75v22.5Z" transform="translate(-1 -1)"/></g><g class="cls-1"><path class="cls-3" d="M74.8,35H68.34L59,10.78h5.84l6.71,18.58,6.72-18.58h5.84Z" transform="translate(-1 -1)"/></g><g class="cls-1"><path class="cls-3" d="M85.87,17.43l7.07-1.21a20.34,20.34,0,0,1,2.71,6.64,46.46,46.46,0,0,1,3-4.11,9.16,9.16,0,0,1,2.23-2.06,3.88,3.88,0,0,1,1.88-.47,2.31,2.31,0,0,1,1.71.6,2.25,2.25,0,0,1,.6,1.64,2.18,2.18,0,0,1-.6,1.59,2,2,0,0,1-1.49.62,5.89,5.89,0,0,1-1.49-.23,5,5,0,0,0-1.16-.23,2.58,2.58,0,0,0-1.62.6,13,13,0,0,0-2.59,3.55q1.71,6.08,2.75,7.41a1.48,1.48,0,0,0,2.15.53,11.05,11.05,0,0,0,1.8-2.13l.73.42a13.41,13.41,0,0,1-3.49,4.05,4.41,4.41,0,0,1-2.55.92A3.81,3.81,0,0,1,95.36,35a4.8,4.8,0,0,1-1.53-1.88,29.9,29.9,0,0,1-1.58-4.19c-1.58,2-2.82,3.48-3.72,4.41a8.76,8.76,0,0,1-2.24,1.81,4.41,4.41,0,0,1-1.9.43A2.3,2.3,0,0,1,82.72,35a2.13,2.13,0,0,1-.62-1.58A2.29,2.29,0,0,1,84.47,31a3,3,0,0,1,1.24.32,3.92,3.92,0,0,0,1.45.49,2.27,2.27,0,0,0,1.06-.24,6.45,6.45,0,0,0,1.54-1.32c.37-.42,1.07-1.31,2.08-2.67-1.29-4.81-2.31-7.69-3-8.63A2.08,2.08,0,0,0,87.06,18a6.59,6.59,0,0,0-1.33.16Z" transform="translate(-1 -1)"/></g><g class="cls-1"><path class="cls-3" d="M112.27,35h-5.15V10.78h17.13v4.54h-12V20.4H124v4.54H112.27Z" transform="translate(-1 -1)"/></g></svg>