<?xml version="1.0" encoding="utf-8"?>
<!-- Generator: Adobe Illustrator 23.0.1, SVG Export Plug-In . SVG Version: 6.00 Build 0)  -->
<svg version="1.1" id="Layer_1" xmlns="http://www.w3.org/2000/svg" xmlns:xlink="http://www.w3.org/1999/xlink" x="0px" y="0px"
	 viewBox="0 0 512 512" style="enable-background:new 0 0 512 512;" xml:space="preserve">
<path d="M464,32H48C21.5,32,0,53.5,0,80v352c0,26.5,21.5,48,48,48h416c26.5,0,48-21.5,48-48V80C512,53.5,490.5,32,464,32z
	 M458.8,432H66.4c-7.3,0-13.2-2.8-13.2-6.3V98h405.7V432z"/>
<rect x="280.5" y="98" width="40.3" height="334"/>
<rect x="192.9" y="98" width="40.3" height="334"/>
<rect x="368" y="98" width="40.3" height="334"/>
<rect x="105.4" y="98" width="40.3" height="334"/>
</svg>
