<svg xmlns="http://www.w3.org/2000/svg" viewBox="0 0 606.22 212.86"><defs><style>.cls-1{fill:#111;}.cls-2,.cls-3{font-size:180px;font-family:FontAwesome5ProSolid, "Font Awesome 5 Pro";}.cls-2{fill:#e5f1fb;}.cls-3{fill:#0874d9;}</style></defs><title>iconAsset 2</title><g id="Layer_2" data-name="Layer 2"><g id="Layer_1-2" data-name="Layer 1"><path class="cls-1" d="M348,174.41h-35.6L260.82,41h32.4l37,102.6L367,41h32.4Z"/><path class="cls-1" d="M456,109.65q11.13-15.12,17.92-21.23t13.23-6.1q7.71,0,10.64,5.28a13.18,13.18,0,0,1,1.56,6.64,10.3,10.3,0,0,1-3.23,7.32,10.46,10.46,0,0,1-7.82,3.32,12.67,12.67,0,0,1-6.4-2.15q-3.57-2.15-5.43-2.15-3.62,0-6.89,3.71T458.24,120l1.86,9.77q1.47,7.53,2.44,12.37c.66,3.22,1.37,6.2,2.16,8.94a33.88,33.88,0,0,0,3.12,8.2,5.08,5.08,0,0,0,4.6,2.55q2.74,0,6.65-4a87.92,87.92,0,0,0,6.56-7.91l4.1,2.83a77.23,77.23,0,0,1-13.43,16.51q-8.25,7.81-16.16,7.81a13.34,13.34,0,0,1-10.94-5.48,26.77,26.77,0,0,1-4.29-8q-1-2.64-2.69-9.34t-2.2-8.28l-1.36,2.35Q429,164.84,424.5,169.83q-6.75,7.41-15.63,7.41a12.63,12.63,0,0,1-8.84-3.46,11.19,11.19,0,0,1-3.76-8.55,12.33,12.33,0,0,1,2.79-7.76,9.27,9.27,0,0,1,7.76-3.56,18,18,0,0,1,7.47,2.14c3,1.44,4.9,2.15,5.81,2.15a6.58,6.58,0,0,0,5.23-2.68,152.61,152.61,0,0,0,8.64-13.3l3.9-6.43q-1-4.11-2.09-10.07t-2.3-12.22l-1.56-8.31q-1.67-9-5.28-11.83c-1.36-1.11-3.61-1.66-6.73-1.66-.33,0-1.11,0-2.35.14s-2.47.22-3.71.35V86.91q8.79-1.06,19.29-2.73t14-2.35A34.21,34.21,0,0,1,452,91.3a69.59,69.59,0,0,1,2.88,11.81Z"/><path class="cls-1" d="M540.22,174.41h-28.4V41h94.4V66h-66v28.2h64.6v25h-64.6Z"/><text class="cls-2" transform="translate(0 190)">folder</text><text class="cls-3" transform="translate(28 164)">folder</text></g></g></svg>