<svg xmlns="http://www.w3.org/2000/svg" viewBox="0 0 251.29 298.06"><defs><style>.cls-1{fill:#e5f1fb;}.cls-2{fill:#0874d9;}.cls-3{fill:#111;}</style></defs><title>iconAsset 1</title><g id="Layer_2" data-name="Layer 2"><g id="Layer_1-2" data-name="Layer 1"><path class="cls-1" d="M184.77,48.5a16.82,16.82,0,0,1,16.88,16.88v78.74A16.82,16.82,0,0,1,184.77,161H38.52a16.8,16.8,0,0,1-16.87-16.88V42.88A16.8,16.8,0,0,1,38.52,26H94.77l22.5,22.5Z"/><path class="cls-2" d="M212.82,22.44a16.76,16.76,0,0,1,16.83,16.83V117.8a16.75,16.75,0,0,1-16.83,16.82H67A16.73,16.73,0,0,1,50.15,117.8v-101a16.22,16.22,0,0,1,4.9-11.92A16.26,16.26,0,0,1,67,0h56.1l22.44,22.44Z"/><path class="cls-3" d="M63.44,296H37.54L0,198.94H23.57l26.92,74.65,26.78-74.65h23.57Z"/><path class="cls-3" d="M142,248.88q8.09-11,13-15.44t9.63-4.44q5.61,0,7.74,3.83a9.6,9.6,0,0,1,1.14,4.84,7.51,7.51,0,0,1-2.35,5.32,7.65,7.65,0,0,1-5.69,2.42,9.27,9.27,0,0,1-4.66-1.56,8.88,8.88,0,0,0-3.95-1.57q-2.62,0-5,2.7a130.45,130.45,0,0,0-8.22,11.42l1.35,7.11q1.08,5.48,1.78,9t1.57,6.5a24.51,24.51,0,0,0,2.28,6,3.67,3.67,0,0,0,3.34,1.85q2,0,4.84-2.91a64.88,64.88,0,0,0,4.77-5.76l3,2.06a55.9,55.9,0,0,1-9.77,12q-6,5.68-11.75,5.69a9.67,9.67,0,0,1-8-4,19.58,19.58,0,0,1-3.13-5.84q-.7-1.92-2-6.8t-1.6-6l-1,1.7q-7,12.07-10.3,15.69-4.9,5.4-11.37,5.4a9.2,9.2,0,0,1-6.43-2.52,8.15,8.15,0,0,1-2.73-6.22,9,9,0,0,1,2-5.65,6.77,6.77,0,0,1,5.65-2.59,13.14,13.14,0,0,1,5.44,1.56,13.48,13.48,0,0,0,4.23,1.56,4.8,4.8,0,0,0,3.8-1.95,110.48,110.48,0,0,0,6.28-9.67l2.85-4.68c-.48-2-1-4.44-1.53-7.33s-1.1-5.85-1.67-8.89l-1.14-6.05q-1.2-6.54-3.83-8.6c-1-.81-2.63-1.21-4.91-1.21-.23,0-.8,0-1.7.1l-2.7.25v-3.83q6.39-.78,14-2c5.1-.81,8.49-1.38,10.2-1.71a25,25,0,0,1,3.52,6.89,50.64,50.64,0,0,1,2.09,8.59Z"/><path class="cls-3" d="M203.27,296H182.61V198.94h68.68v18.19h-48v20.52h47v18.19h-47Z"/></g></g></svg>